{"glyphs":{"\u0000":{"ha":0,"x_min":0,"x_max":0,"o":""},"\r":{"ha":697,"x_min":0,"x_max":0,"o":""}," ":{"ha":697,"x_min":0,"x_max":0,"o":""},"C":{"ha":1461,"x_min":0,"x_max":1585,"o":"m 1521 551 q 1547 563 1532 563 q 1572 553 1561 564 q 1584 526 1583 542 q 1574 500 1585 511 q 1524 451 1567 493 q 1414 348 1482 410 q 1256 209 1346 286 q 1063 53 1165 132 q 849 -100 960 -25 q 627 -233 738 -175 q 412 -327 517 -292 q 217 -362 307 -362 q 53 -306 110 -362 q 0 -154 0 -250 q 22 -10 0 -89 q 84 154 44 68 q 176 330 124 240 q 288 508 228 419 q 410 679 347 596 q 536 836 474 763 q 751 1069 636 953 q 984 1276 867 1185 q 1214 1425 1101 1368 q 1419 1482 1326 1482 q 1497 1464 1472 1482 q 1529 1426 1521 1446 q 1535 1358 1542 1397 q 1508 1274 1528 1318 q 1459 1185 1488 1231 q 1401 1100 1431 1140 q 1343 1027 1371 1060 q 1299 976 1315 994 q 1275 964 1289 965 q 1250 971 1261 963 q 1235 992 1239 978 q 1238 1018 1231 1006 l 1283 1107 q 1302 1123 1290 1118 q 1325 1125 1314 1128 q 1386 1210 1358 1168 q 1433 1289 1414 1253 q 1460 1353 1451 1325 q 1461 1396 1468 1381 q 1444 1406 1458 1404 q 1419 1408 1431 1408 q 1240 1358 1340 1408 q 1031 1222 1140 1308 q 808 1022 921 1136 q 588 781 694 908 q 388 521 482 654 q 224 263 294 388 q 114 31 154 139 q 74 -154 74 -78 q 106 -253 74 -221 q 217 -287 140 -287 q 402 -252 301 -287 q 610 -158 503 -217 q 826 -25 717 -100 q 1035 128 935 50 q 1224 282 1136 207 q 1376 416 1311 357 q 1481 513 1442 475 q 1521 551 1519 550 z "},"D":{"ha":1881,"x_min":0,"x_max":1776,"o":"m 1657 1358 q 1776 1042 1776 1243 q 1722 754 1776 910 q 1570 442 1668 599 q 1337 141 1472 286 q 1039 -116 1201 -4 q 692 -295 876 -228 q 314 -362 508 -362 q 85 -307 171 -362 q 22 -240 44 -279 q 0 -156 0 -201 q 29 -47 0 -104 q 115 66 58 11 q 257 169 172 121 q 453 254 342 218 q 604 511 526 383 q 755 755 682 639 q 893 969 828 871 q 1008 1141 958 1068 q 1085 1256 1057 1214 q 1115 1299 1114 1297 q 1138 1313 1124 1310 q 1164 1310 1151 1317 q 1181 1263 1192 1293 l 1143 1172 q 1126 1153 1138 1160 q 1103 1150 1115 1147 q 998 994 1060 1088 q 863 786 936 900 q 710 544 790 672 q 554 283 631 417 q 740 315 642 303 q 950 326 838 326 q 976 315 965 326 q 988 289 988 304 q 976 263 988 274 q 950 251 965 251 q 708 236 819 251 q 503 193 596 221 q 456 106 479 149 q 408 19 432 63 q 375 0 397 0 q 358 4 367 0 q 340 26 344 11 q 343 54 336 40 q 369 105 356 79 q 397 156 383 131 q 258 85 318 124 q 156 6 197 47 q 94 -76 115 -35 q 74 -156 74 -118 q 126 -246 74 -210 q 206 -277 158 -267 q 314 -287 253 -287 q 563 -256 436 -287 q 813 -163 689 -224 q 1054 -14 936 -103 q 1281 188 1172 75 q 1454 399 1376 289 q 1587 622 1532 510 q 1672 840 1642 733 q 1701 1042 1701 947 q 1604 1304 1701 1213 q 1278 1408 1497 1408 q 937 1363 1092 1408 q 658 1248 782 1317 q 440 1098 533 1179 q 285 947 347 1017 q 190 831 222 878 q 157 783 158 785 q 135 766 150 769 q 107 769 121 763 q 90 792 93 778 q 93 821 86 807 q 128 872 94 822 q 227 996 161 922 q 392 1154 293 1069 q 622 1312 490 1239 q 917 1433 753 1385 q 1278 1482 1081 1482 q 1657 1358 1526 1482 z "},"E":{"ha":1628,"x_min":-10,"x_max":1701,"o":"m 1692 496 q 1699 468 1701 483 q 1685 443 1697 453 q 1628 400 1678 438 q 1501 305 1579 363 q 1319 176 1422 247 q 1100 31 1217 104 q 859 -113 983 -43 q 615 -237 735 -183 q 383 -325 494 -292 q 179 -358 271 -358 q 141 -357 165 -358 q 90 -349 117 -356 q 41 -326 64 -342 q 7 -283 18 -311 q 15 -184 -10 -240 q 97 -58 39 -128 q 243 97 156 13 q 439 281 331 181 q 513 349 475 314 q 585 417 551 383 q 647 478 619 450 q 686 525 674 506 q 474 574 550 526 q 393 718 393 625 q 440 871 393 788 q 565 1039 486 954 q 749 1203 644 1124 q 968 1345 853 1283 q 1203 1444 1083 1407 q 1432 1482 1322 1482 q 1467 1481 1444 1482 q 1515 1473 1490 1479 q 1559 1452 1539 1467 q 1588 1411 1579 1438 q 1574 1332 1597 1376 q 1505 1238 1550 1288 q 1400 1138 1460 1189 q 1277 1039 1340 1086 q 1154 951 1214 992 q 1051 883 1094 911 q 1025 878 1039 875 q 1001 892 1011 881 q 994 916 993 903 q 1004 940 994 929 l 1072 1008 q 1092 1019 1081 1018 q 1115 1015 1104 1021 q 1280 1136 1204 1076 q 1410 1247 1356 1196 q 1493 1335 1464 1297 q 1517 1390 1522 1372 q 1503 1399 1513 1394 q 1476 1405 1493 1401 q 1432 1408 1460 1408 q 1217 1372 1328 1408 q 999 1278 1106 1336 q 795 1144 892 1219 q 626 993 699 1069 q 510 844 553 917 q 468 718 468 772 q 514 638 468 665 q 703 600 572 600 q 750 587 736 600 q 767 564 764 574 q 765 517 775 543 q 722 451 754 490 q 631 358 689 413 q 489 225 574 304 q 399 142 447 188 q 301 50 350 97 q 209 -44 253 3 q 133 -131 165 -90 q 85 -205 101 -172 q 76 -257 68 -237 q 103 -275 79 -267 q 179 -283 128 -283 q 374 -250 265 -283 q 600 -162 482 -217 q 841 -37 718 -107 q 1078 106 964 33 q 1294 250 1193 179 q 1472 376 1396 321 q 1592 466 1547 432 q 1639 501 1638 500 q 1667 509 1651 511 q 1692 496 1682 507 z "},"F":{"ha":1157,"x_min":-3,"x_max":1806,"o":"m 1768 1482 q 1794 1472 1783 1482 q 1806 1446 1806 1461 q 1794 1419 1806 1431 q 1768 1408 1783 1408 q 1320 1397 1521 1408 q 960 1368 1119 1386 q 677 1327 800 1350 q 463 1279 554 1304 q 308 1229 371 1254 q 207 1183 246 1204 q 185 1146 210 1157 l 104 1113 q 90 1110 96 1110 q 60 1125 72 1110 q 61 1171 43 1149 q 92 1198 64 1174 q 190 1257 119 1222 q 382 1331 261 1292 q 692 1404 503 1371 q 1145 1460 881 1438 q 1768 1482 1410 1482 m 1008 661 q 1035 650 1024 661 q 1046 624 1046 639 q 1035 598 1046 608 q 1008 588 1024 588 q 753 578 865 588 q 554 553 642 568 q 328 158 450 379 q 71 -339 207 -62 q 38 -360 60 -360 q 21 -356 29 -360 q 2 -334 7 -349 q 4 -306 -3 -319 q 243 158 131 -50 q 456 533 356 365 q 344 503 390 518 q 269 474 299 488 q 226 453 240 461 q 213 444 213 444 q 192 438 203 438 q 161 453 172 438 q 154 481 151 465 q 169 506 157 496 q 191 519 171 507 q 251 547 211 531 q 355 584 292 564 q 507 621 418 604 q 699 922 614 796 q 846 1130 785 1047 q 942 1253 907 1213 q 981 1297 976 1293 q 1003 1310 990 1308 q 1028 1304 1017 1311 q 1044 1283 1039 1296 q 1042 1257 1049 1269 l 1008 1182 q 990 1164 1003 1169 q 965 1161 978 1158 q 819 963 911 1092 q 606 636 728 835 q 787 654 688 647 q 1008 661 886 661 z "},"G":{"ha":1594,"x_min":0,"x_max":1624,"o":"m 1418 690 q 1435 669 1431 683 q 1435 642 1440 656 q 1411 592 1431 633 q 1358 485 1392 550 q 1278 335 1325 419 q 1175 156 1232 250 q 1052 -38 1118 61 q 913 -231 986 -137 q 1110 -265 1032 -239 q 1235 -319 1189 -290 q 1300 -371 1281 -347 q 1321 -396 1319 -394 q 1324 -424 1328 -410 q 1307 -447 1321 -439 q 1279 -451 1294 -454 q 1257 -433 1264 -447 q 1239 -414 1257 -433 q 1175 -370 1221 -394 q 1051 -326 1129 -346 q 854 -303 974 -306 q 704 -464 782 -389 q 546 -594 626 -539 q 382 -681 465 -649 q 214 -712 299 -712 q 115 -701 156 -712 q 48 -669 74 -689 q 11 -626 22 -650 q 0 -576 0 -601 q 58 -453 0 -515 q 221 -342 117 -390 q 318 -303 261 -324 q 449 -267 375 -283 q 615 -240 522 -251 q 818 -229 707 -229 q 907 -115 863 -175 q 996 13 951 -56 q 1106 185 1054 100 q 1200 349 1157 271 q 1114 258 1160 304 q 421 -126 733 -126 q 247 -71 310 -126 q 190 79 190 -17 q 235 279 190 168 q 349 506 279 390 q 506 733 419 621 q 676 938 592 844 q 907 1167 793 1065 q 1127 1338 1021 1268 q 1328 1445 1233 1408 q 1501 1482 1424 1482 q 1578 1464 1554 1482 q 1611 1426 1601 1446 q 1617 1358 1624 1397 q 1590 1274 1610 1318 q 1540 1185 1569 1231 q 1481 1100 1511 1140 q 1424 1027 1451 1060 q 1379 976 1396 994 q 1354 963 1369 964 q 1328 972 1339 961 q 1315 999 1317 983 q 1324 1025 1314 1014 q 1413 1134 1369 1076 q 1488 1244 1457 1192 q 1535 1336 1519 1296 q 1543 1396 1551 1376 q 1525 1406 1539 1404 q 1501 1408 1511 1408 q 1345 1372 1433 1408 q 1156 1267 1257 1335 q 947 1102 1056 1199 q 731 888 839 1006 q 541 656 626 772 q 394 434 456 540 q 299 237 332 328 q 265 79 265 146 q 299 -17 265 14 q 421 -51 335 -51 q 590 -20 506 -51 q 758 62 675 11 q 917 178 840 113 q 1061 311 993 243 q 1185 444 1129 379 q 1282 561 1242 510 q 1345 644 1322 613 q 1369 678 1368 676 q 1392 694 1378 690 q 1418 690 1406 697 m 214 -637 q 472 -553 336 -637 q 754 -304 607 -469 q 444 -344 572 -311 q 233 -419 315 -376 q 113 -504 151 -461 q 75 -576 75 -547 q 113 -621 75 -604 q 214 -637 150 -637 z "},"H":{"ha":1949,"x_min":-1,"x_max":2175,"o":"m 2160 1474 q 2173 1449 2171 1464 q 2164 1421 2175 1433 q 2116 1362 2163 1419 q 1992 1196 2069 1304 q 1813 931 1915 1088 q 1599 575 1711 775 q 1699 576 1647 575 q 1803 576 1750 576 q 1829 565 1818 576 q 1840 539 1840 554 q 1829 513 1840 524 q 1803 501 1818 501 q 1676 501 1738 501 q 1557 500 1615 501 q 1285 -42 1422 254 q 1029 -687 1149 -339 q 994 -712 1019 -712 q 982 -710 990 -712 q 960 -692 967 -706 q 958 -662 953 -678 q 1207 -36 1075 -326 q 1471 497 1339 254 q 988 474 1196 490 q 629 439 781 458 q 377 64 517 261 q 67 -346 238 -133 q 38 -360 53 -360 q 14 -351 24 -360 q 0 -326 1 -342 q 8 -299 -1 -311 q 295 78 165 -104 q 532 425 425 260 q 367 395 436 410 q 251 369 299 381 l 251 368 q 240 342 251 353 q 214 331 229 331 l 124 331 q 101 339 111 331 q 88 360 90 347 q 91 384 85 372 q 108 401 97 396 q 138 413 111 403 q 222 439 165 424 q 367 472 278 454 q 585 508 456 490 q 772 822 693 679 q 904 1067 851 964 q 983 1227 957 1169 q 1010 1288 1010 1285 q 1031 1308 1017 1301 q 1058 1307 1044 1314 q 1079 1286 1074 1300 q 1078 1258 1085 1272 q 1053 1201 1078 1256 q 979 1051 1028 1147 q 856 819 931 954 q 681 521 781 683 q 1041 553 836 539 q 1513 574 1246 567 q 1738 949 1631 783 q 1926 1230 1844 1115 q 2057 1406 2008 1344 q 2107 1469 2106 1467 q 2133 1483 2118 1481 q 2160 1474 2149 1485 z "},"I":{"ha":1157,"x_min":-3,"x_max":1531,"o":"m 1493 1482 q 1519 1472 1508 1482 q 1531 1446 1531 1461 q 1519 1419 1531 1431 q 1493 1408 1508 1408 q 1378 1407 1431 1408 q 1281 1403 1325 1406 q 1238 1335 1267 1382 q 1160 1204 1210 1288 q 1040 997 1111 1121 q 869 697 968 872 q 642 288 771 521 q 351 -243 514 56 q 494 -239 418 -239 q 521 -250 510 -239 q 532 -276 532 -261 q 521 -302 532 -292 q 494 -312 510 -312 q 398 -315 444 -312 q 308 -322 351 -318 q 302 -333 306 -328 q 296 -344 299 -337 q 264 -364 285 -364 q 246 -360 254 -364 q 226 -331 229 -349 q 95 -352 143 -342 q 46 -362 47 -362 q 38 -364 43 -364 q 15 -356 25 -364 q 1 -336 4 -349 q 5 -308 -3 -321 q 28 -290 13 -294 q 95 -276 32 -289 q 263 -251 158 -262 q 530 237 410 19 q 745 625 650 454 q 913 924 840 796 q 1038 1144 985 1051 q 1128 1298 1092 1238 q 1188 1396 1165 1358 q 1033 1372 1079 1385 q 985 1360 986 1360 q 972 1358 981 1358 q 938 1382 946 1358 q 938 1410 932 1396 q 958 1429 943 1424 q 976 1435 960 1429 q 1025 1447 992 1440 q 1112 1462 1058 1454 q 1240 1475 1165 1469 q 1283 1476 1261 1489 q 1380 1481 1328 1479 q 1493 1482 1432 1482 z "},"J":{"ha":1678,"x_min":0,"x_max":1692,"o":"m 1094 -89 q 1238 -152 1182 -115 q 1328 -224 1294 -189 q 1374 -285 1361 -260 q 1389 -314 1388 -311 q 1388 -342 1394 -329 q 1367 -361 1382 -356 q 1338 -360 1351 -367 q 1319 -339 1325 -354 q 1306 -315 1318 -337 q 1263 -264 1294 -293 q 1179 -203 1232 -235 q 1043 -151 1126 -172 q 931 -278 992 -212 q 802 -406 869 -344 q 661 -524 735 -468 q 510 -622 588 -579 q 352 -688 432 -664 q 193 -712 272 -712 q 53 -679 103 -712 q 0 -578 0 -643 q 69 -414 0 -504 q 257 -240 138 -324 q 531 -101 388 -150 q 813 -51 675 -51 q 920 -56 871 -51 q 1013 -69 969 -61 q 1174 147 1097 35 q 1319 374 1251 260 q 1441 603 1386 489 q 1535 822 1496 717 q 1595 1023 1574 928 q 1617 1194 1617 1118 q 1581 1340 1617 1292 q 1467 1388 1543 1388 q 1322 1360 1396 1388 q 1177 1290 1247 1332 q 1046 1198 1107 1247 q 938 1106 985 1149 q 865 1035 892 1064 q 836 1006 838 1006 q 811 992 826 993 q 785 1001 796 992 q 772 1028 774 1013 q 781 1054 771 1043 q 815 1090 785 1058 q 894 1167 844 1122 q 1010 1264 944 1213 q 1150 1359 1075 1315 q 1306 1432 1225 1403 q 1467 1461 1386 1461 q 1639 1385 1581 1461 q 1692 1194 1692 1317 q 1656 956 1692 1092 q 1553 668 1619 821 q 1393 353 1486 515 q 1186 33 1300 190 q 1144 -24 1167 7 q 1094 -89 1122 -54 m 193 -637 q 378 -600 282 -637 q 572 -495 474 -562 q 767 -336 669 -428 q 958 -136 865 -244 q 889 -128 925 -131 q 813 -126 853 -126 q 631 -150 721 -126 q 458 -212 540 -174 q 306 -299 376 -250 q 185 -398 236 -347 q 104 -496 133 -449 q 75 -578 75 -543 q 94 -618 75 -604 q 128 -631 106 -625 q 193 -637 151 -637 z "},"K":{"ha":1551,"x_min":-3,"x_max":1986,"o":"m 1960 -512 q 1981 -533 1975 -519 q 1979 -561 1986 -547 q 1965 -587 1979 -564 q 1919 -639 1951 -611 q 1831 -690 1886 -667 q 1694 -712 1776 -712 q 1484 -656 1583 -712 q 1292 -510 1385 -600 q 1112 -304 1199 -419 q 940 -71 1025 -189 q 847 58 894 -7 q 752 182 800 122 q 656 294 704 242 q 558 389 608 347 q 535 383 547 386 q 513 378 524 381 q 310 34 419 217 q 68 -356 200 -149 q 38 -372 57 -372 q 17 -367 26 -372 q 1 -343 4 -358 q 6 -315 -3 -328 q 226 40 125 -128 q 415 358 328 207 q 351 351 383 353 q 288 349 319 349 q 145 383 190 349 q 100 460 100 418 q 161 547 100 514 q 225 569 189 561 q 306 576 261 576 q 408 561 358 576 q 507 518 458 546 q 730 925 640 753 q 872 1203 819 1097 q 862 1226 863 1213 q 868 1250 861 1239 l 949 1365 q 971 1380 957 1376 q 997 1376 985 1383 q 1014 1329 1025 1360 q 986 1270 1013 1328 q 906 1103 960 1213 q 767 837 851 994 q 569 476 683 679 q 572 474 571 475 q 575 472 574 474 q 944 648 749 531 q 1353 944 1139 765 q 1568 1135 1469 1042 q 1738 1303 1667 1229 q 1851 1423 1810 1378 q 1892 1469 1892 1468 q 1918 1483 1903 1481 q 1944 1474 1933 1485 q 1958 1448 1956 1463 q 1949 1421 1960 1433 q 1907 1373 1949 1419 q 1792 1251 1865 1326 q 1619 1081 1719 1176 q 1400 886 1518 986 q 642 417 983 539 q 822 215 735 331 q 1001 -28 910 99 q 1165 -249 1082 -140 q 1333 -445 1247 -358 q 1508 -585 1418 -532 q 1694 -637 1599 -637 q 1800 -622 1758 -637 q 1867 -585 1842 -606 q 1901 -549 1892 -565 q 1911 -532 1911 -532 q 1931 -512 1918 -518 q 1960 -512 1944 -506 m 464 443 q 469 453 467 446 q 388 489 429 476 q 306 501 347 501 q 196 481 233 501 q 174 460 174 469 q 201 437 174 451 q 288 422 228 422 q 464 443 372 422 z "},"L":{"ha":1543,"x_min":0,"x_max":1929,"o":"m 1911 -243 q 1927 -267 1925 -251 q 1921 -294 1929 -282 q 1888 -335 1918 -299 q 1802 -413 1857 -371 q 1669 -490 1747 -456 q 1490 -525 1590 -525 q 1210 -492 1346 -525 q 944 -419 1075 -460 q 689 -350 814 -381 q 432 -319 564 -319 l 419 -319 q 303 -458 353 -406 q 215 -540 253 -511 q 151 -579 178 -569 q 104 -589 124 -589 q 29 -559 58 -589 q 0 -483 0 -529 q 28 -397 0 -439 q 106 -322 57 -354 q 381 -246 210 -254 q 572 36 461 -136 q 829 464 682 208 q 953 685 893 575 q 1069 896 1014 794 q 1172 1087 1124 997 q 1257 1249 1219 1176 q 1256 1292 1242 1268 l 1368 1464 q 1390 1480 1375 1476 q 1417 1476 1404 1483 q 1435 1455 1431 1469 q 1432 1428 1439 1440 q 1411 1386 1432 1426 q 1354 1276 1390 1346 q 1268 1111 1318 1206 q 1159 906 1218 1017 q 1033 673 1100 794 q 894 428 965 551 q 658 33 763 197 q 472 -246 553 -132 q 724 -282 601 -251 q 965 -349 846 -312 q 1224 -419 1093 -386 q 1490 -451 1354 -451 q 1643 -421 1575 -451 q 1759 -353 1711 -390 q 1833 -284 1807 -315 q 1860 -251 1860 -253 q 1884 -236 1869 -239 q 1911 -243 1899 -233 m 104 -515 q 131 -508 114 -515 q 173 -481 147 -501 q 235 -424 199 -461 q 319 -326 271 -387 q 213 -352 254 -336 q 146 -385 171 -368 q 90 -437 106 -410 q 74 -483 74 -464 q 79 -505 74 -494 q 104 -515 85 -515 z "},"M":{"ha":2185,"x_min":-1,"x_max":2376,"o":"m 2365 1450 q 2372 1399 2376 1429 q 2343 1322 2367 1369 q 2277 1203 2319 1274 q 2172 1033 2235 1133 q 2003 761 2096 913 q 1818 436 1911 610 q 1640 68 1725 263 q 1492 -333 1554 -126 q 1477 -353 1488 -346 q 1456 -360 1467 -360 q 1444 -358 1449 -360 q 1422 -340 1429 -354 q 1419 -311 1415 -326 q 1570 96 1483 -101 q 1751 469 1657 293 q 1938 797 1844 644 q 2108 1074 2031 950 q 2172 1176 2140 1125 q 2230 1270 2204 1226 q 2274 1349 2256 1314 q 2297 1404 2292 1385 q 2239 1366 2275 1396 q 2158 1290 2203 1336 q 2060 1185 2113 1243 q 1955 1063 2008 1126 q 1847 933 1901 999 q 1744 808 1793 868 q 1517 534 1615 650 q 1344 342 1418 418 q 1219 228 1271 265 q 1132 190 1168 190 q 1088 213 1104 190 q 1065 288 1068 235 q 1074 428 1063 340 q 1112 646 1086 517 q 1176 953 1138 775 q 1196 1038 1186 994 q 1214 1123 1206 1082 q 1229 1200 1222 1164 q 1240 1264 1236 1236 q 1162 1166 1208 1228 q 1060 1026 1115 1104 q 944 860 1006 949 q 819 682 882 771 q 631 410 728 549 q 436 137 533 271 q 245 -121 339 3 q 65 -347 151 -244 q 40 -360 56 -358 q 13 -351 25 -361 q 0 -325 1 -340 q 8 -299 -1 -310 q 189 -72 93 -197 q 382 188 285 53 q 575 461 479 324 q 758 724 671 599 q 988 1051 897 924 q 1135 1251 1078 1178 q 1224 1353 1192 1325 q 1276 1381 1256 1381 q 1308 1364 1296 1381 q 1319 1333 1317 1353 q 1316 1267 1322 1313 q 1294 1144 1310 1222 q 1249 936 1278 1065 q 1224 819 1238 883 q 1196 686 1210 754 q 1169 551 1182 618 q 1149 428 1157 485 q 1138 328 1140 371 q 1142 267 1136 286 q 1197 302 1163 272 q 1276 377 1232 332 q 1372 481 1321 422 q 1476 602 1422 539 q 1584 731 1531 665 q 1686 856 1638 796 q 1903 1117 1806 1001 q 2077 1313 2000 1232 q 2211 1438 2154 1394 q 2307 1481 2268 1481 q 2347 1470 2335 1481 q 2365 1450 2360 1460 z "},"ı":{"ha":1157,"x_min":0,"x_max":0,"o":""},"N":{"ha":1765,"x_min":-3,"x_max":2274,"o":"m 2236 1481 q 2263 1470 2251 1481 q 2274 1444 2274 1460 q 2263 1418 2274 1429 q 2236 1407 2251 1407 q 2137 1370 2190 1407 q 2024 1269 2083 1333 q 1902 1119 1965 1206 q 1776 934 1839 1033 q 1650 728 1713 835 q 1528 515 1588 621 q 1417 310 1469 410 q 1319 126 1364 210 q 1211 -77 1251 -3 q 1147 -189 1171 -151 q 1108 -237 1122 -226 q 1079 -247 1093 -247 q 1050 -235 1060 -247 q 1041 -219 1044 -229 q 1037 -189 1038 -210 q 1038 -131 1036 -168 q 1045 -33 1040 -94 q 1059 117 1050 28 q 1081 332 1068 206 q 1097 499 1088 408 q 1115 683 1106 590 q 1131 868 1124 776 q 1143 1039 1139 960 q 1149 1179 1147 1118 q 1146 1275 1150 1240 q 1039 1141 1108 1236 q 879 913 969 1046 q 684 622 789 781 q 472 295 579 463 q 261 -36 365 128 q 68 -342 157 -200 q 38 -360 58 -360 q 18 -354 25 -360 q 1 -331 4 -346 q 6 -303 -3 -317 q 27 -268 6 -301 q 85 -177 49 -235 q 170 -41 121 -119 q 278 129 219 38 q 401 322 336 221 q 532 525 465 422 q 767 881 669 736 q 932 1119 865 1025 q 1040 1263 999 1213 q 1104 1337 1081 1314 q 1140 1364 1128 1360 q 1160 1368 1151 1368 q 1196 1351 1181 1368 q 1219 1263 1214 1331 q 1219 1072 1225 1196 q 1197 764 1214 949 q 1154 324 1181 579 q 1142 208 1149 267 q 1131 94 1136 150 q 1121 -10 1125 39 q 1114 -99 1117 -60 q 1178 20 1142 -49 q 1254 161 1215 89 q 1431 491 1342 328 q 1606 801 1519 654 q 1778 1072 1693 947 q 1942 1287 1863 1196 q 2096 1429 2022 1378 q 2236 1481 2169 1481 z "},"O":{"ha":1504,"x_min":0,"x_max":1376,"o":"m 1308 1378 q 1376 1125 1376 1288 q 1351 913 1376 1028 q 1281 674 1326 797 q 1172 426 1235 551 q 1033 186 1108 301 q 870 -29 957 71 q 691 -203 783 -129 q 503 -321 599 -278 q 314 -364 407 -364 q 69 -269 151 -364 q 0 -40 0 -187 q 17 120 0 36 q 60 284 35 204 q 115 435 86 364 q 168 556 144 506 q 192 604 176 574 q 225 670 207 635 q 264 742 243 706 q 306 811 285 779 q 346 865 326 843 q 381 893 365 886 q 501 1113 428 1007 q 667 1301 575 1219 q 864 1432 758 1383 q 1079 1481 969 1481 q 1308 1378 1231 1481 m 314 -290 q 487 -249 399 -290 q 660 -137 575 -208 q 826 31 746 -65 q 978 238 907 128 q 1110 466 1050 347 q 1213 701 1169 585 q 1279 926 1256 818 q 1303 1125 1303 1035 q 1249 1333 1303 1263 q 1079 1407 1193 1407 q 907 1370 992 1407 q 745 1271 822 1333 q 603 1126 668 1208 q 490 951 538 1043 q 416 763 443 858 q 389 579 389 667 q 401 469 389 525 q 449 367 414 413 q 548 293 485 322 q 711 264 611 264 q 738 253 726 264 q 749 228 749 243 q 738 201 749 213 q 711 190 726 190 q 417 292 521 190 q 314 579 314 393 q 325 699 314 635 q 260 576 294 644 q 194 430 226 507 q 134 271 161 353 q 91 112 107 189 q 74 -36 75 35 q 92 -161 72 -107 q 314 -290 139 -290 z "},"P":{"ha":1367,"x_min":-3,"x_max":1578,"o":"m 1482 1396 q 1578 1175 1578 1315 q 1539 988 1578 1088 q 1430 790 1500 889 q 1260 599 1360 690 q 1040 437 1161 508 q 780 321 919 365 q 490 272 640 276 q 322 -50 399 107 q 196 -336 244 -207 q 161 -360 186 -360 q 149 -357 153 -360 q 127 -338 133 -351 q 126 -310 121 -325 q 245 -34 172 -183 q 406 272 318 115 q 288 303 329 279 q 231 355 243 326 q 219 401 219 383 q 245 473 219 438 q 317 537 271 508 q 430 583 364 565 q 575 601 496 601 l 593 601 q 749 860 674 738 q 885 1076 825 982 q 983 1228 944 1169 q 1026 1296 1021 1288 q 1047 1311 1033 1307 q 1074 1308 1061 1315 q 1092 1290 1086 1301 q 1093 1264 1097 1278 l 1064 1174 q 1047 1153 1058 1160 q 1019 1150 1035 1147 q 870 914 961 1060 q 675 593 779 768 q 755 570 722 585 q 807 541 788 556 q 835 515 826 526 q 846 499 844 503 q 849 470 853 485 q 832 449 846 456 q 803 446 818 442 q 781 464 789 450 q 751 489 771 476 q 706 509 735 500 q 635 524 678 518 q 584 437 610 481 q 533 349 558 393 q 753 390 651 357 q 940 466 856 422 q 1088 557 1024 510 q 1197 643 1153 604 q 1324 774 1267 706 q 1420 913 1381 843 q 1481 1049 1460 982 q 1503 1175 1503 1117 q 1474 1292 1503 1247 q 1401 1363 1446 1338 q 1300 1398 1356 1389 q 1190 1407 1244 1407 q 849 1361 1004 1407 q 569 1247 693 1315 q 351 1097 444 1178 q 196 946 258 1015 q 101 830 133 876 q 69 782 69 783 q 47 765 61 768 q 18 768 32 761 q 1 791 4 776 q 6 819 -3 806 q 40 871 7 821 q 140 994 74 921 q 304 1153 206 1068 q 534 1310 403 1238 q 829 1432 665 1383 q 1190 1481 993 1481 q 1482 1396 1381 1481 m 446 346 q 497 436 471 390 q 549 526 522 482 q 439 510 486 524 q 359 476 392 496 q 310 437 326 457 q 293 401 293 417 q 321 368 293 383 q 365 354 336 361 q 446 346 394 347 z "},"Q":{"ha":1467,"x_min":0,"x_max":1553,"o":"m 1526 -293 q 1547 -314 1542 -300 q 1546 -343 1553 -328 q 1526 -376 1544 -346 q 1466 -441 1507 -406 q 1358 -505 1425 -476 q 1193 -533 1292 -533 q 1034 -519 1111 -533 q 885 -481 957 -504 q 743 -429 813 -458 q 606 -371 674 -400 q 521 -333 563 -351 q 439 -300 479 -315 q 167 -364 299 -364 q 51 -346 92 -364 q 24 -328 35 -337 q 8 -308 14 -318 q 1 -290 3 -299 q 0 -276 0 -282 q 14 -235 0 -254 q 51 -200 28 -215 q 106 -176 75 -185 q 172 -167 138 -167 q 304 -181 239 -167 q 436 -219 369 -196 q 684 -42 561 -157 q 921 233 807 72 q 1063 463 999 343 q 1172 701 1126 583 q 1242 930 1217 819 q 1267 1132 1267 1040 q 1214 1336 1267 1264 q 1053 1407 1161 1407 q 850 1346 954 1407 q 648 1185 746 1285 q 463 958 550 1085 q 311 698 376 831 q 208 438 246 565 q 171 213 171 311 q 217 44 171 103 q 363 -14 264 -14 q 389 -25 378 -14 q 400 -51 400 -36 q 389 -78 400 -67 q 363 -89 378 -89 q 158 -1 226 -89 q 97 213 97 76 q 137 459 97 322 q 245 737 176 596 q 406 1012 314 878 q 605 1250 499 1146 q 826 1417 711 1354 q 1053 1481 940 1481 q 1274 1379 1199 1481 q 1340 1132 1340 1292 q 1315 918 1340 1033 q 1242 680 1289 803 q 1129 432 1196 557 q 981 190 1063 307 q 760 -73 875 39 q 525 -256 644 -185 q 581 -278 553 -267 q 636 -303 608 -290 q 768 -360 701 -332 q 903 -409 835 -387 q 1044 -444 972 -431 q 1193 -458 1117 -458 q 1326 -436 1272 -458 q 1414 -387 1381 -414 q 1462 -337 1447 -360 q 1478 -311 1476 -314 q 1499 -292 1485 -297 q 1526 -293 1513 -286 m 167 -290 q 247 -283 207 -290 q 328 -264 288 -276 q 250 -247 289 -253 q 172 -242 211 -242 q 108 -254 132 -242 q 76 -275 83 -267 q 102 -284 82 -278 q 167 -290 122 -290 z "},"S":{"ha":1238,"x_min":-1,"x_max":1447,"o":"m 488 840 q 436 702 454 772 q 418 560 418 632 q 435 378 418 471 q 471 193 451 285 q 483 133 478 163 q 494 75 489 104 q 560 115 526 94 q 632 160 594 136 q 790 253 711 207 q 940 339 868 299 q 1072 413 1011 379 q 1178 472 1133 447 q 1249 511 1224 497 q 1276 525 1275 525 q 1305 528 1290 532 q 1326 510 1319 524 q 1329 481 1333 496 q 1311 460 1325 467 q 876 218 1081 338 q 508 -6 672 99 q 515 -183 522 -101 q 458 -325 507 -265 q 139 -436 369 -436 q 108 -435 128 -436 q 66 -428 88 -435 q 26 -409 44 -422 q 3 -372 8 -396 q 0 -349 1 -362 q 8 -316 -1 -336 q 42 -266 18 -296 q 115 -194 67 -236 q 238 -97 163 -153 q 428 32 314 -42 q 413 104 421 68 q 397 178 406 140 q 360 369 378 274 q 343 560 343 465 q 360 706 343 635 q 407 844 376 776 q 221 887 289 856 q 118 951 153 918 q 74 1010 83 983 q 65 1040 65 1038 q 72 1067 63 1056 q 96 1082 81 1079 q 123 1076 111 1085 q 138 1051 135 1067 q 147 1031 138 1050 q 188 990 157 1013 q 279 945 219 967 q 442 917 339 924 q 612 1142 510 1039 q 828 1322 714 1246 q 1059 1440 943 1397 q 1274 1482 1175 1482 q 1397 1454 1356 1482 q 1447 1364 1447 1422 q 1411 1258 1447 1315 q 1310 1142 1375 1200 q 1158 1030 1246 1085 q 967 933 1071 975 q 749 866 864 892 q 518 840 635 840 l 488 840 m 1274 1408 q 1083 1371 1186 1408 q 878 1267 981 1333 q 685 1110 776 1200 q 528 914 593 1019 q 751 941 643 915 q 952 1006 858 967 q 1124 1095 1046 1046 q 1256 1194 1201 1144 q 1342 1288 1311 1243 q 1372 1364 1372 1333 q 1357 1392 1372 1382 q 1329 1403 1349 1397 q 1274 1408 1310 1408 m 400 -279 q 439 -180 432 -239 q 439 -50 446 -121 q 289 -152 356 -104 q 176 -239 222 -200 q 103 -306 129 -278 q 75 -351 76 -335 q 93 -358 79 -354 q 139 -361 107 -361 q 400 -279 335 -361 z "},"T":{"ha":911,"x_min":-8,"x_max":2017,"o":"m 1979 1482 q 2006 1472 1994 1482 q 2017 1446 2017 1461 q 2006 1419 2017 1431 q 1979 1408 1994 1408 q 1413 1395 1663 1408 q 972 1361 1164 1382 q 642 1315 781 1340 q 410 1265 503 1290 q 269 1224 328 1244 q 171 1185 211 1203 l 171 1182 q 167 1153 175 1167 q 144 1136 160 1140 l 46 1111 q 38 1110 43 1110 q 6 1128 17 1110 q 10 1172 -8 1151 q 44 1199 13 1175 q 154 1258 75 1224 q 372 1332 233 1293 q 729 1404 511 1371 q 1254 1460 947 1438 q 1979 1482 1561 1482 m 1053 1308 q 1069 1284 1067 1299 q 1064 1256 1072 1269 q 1036 1214 1063 1254 q 965 1105 1010 1174 q 863 942 921 1036 q 738 740 804 849 q 601 510 671 631 q 463 269 531 390 q 335 30 396 149 q 228 -194 275 -89 q 232 -197 231 -196 q 236 -200 233 -199 q 250 -226 249 -211 q 242 -253 251 -240 l 164 -346 q 135 -360 154 -360 q 117 -354 124 -360 q 101 -335 106 -347 q 100 -310 96 -322 q 197 -83 139 -206 q 324 170 256 40 q 469 432 393 300 q 618 686 544 564 q 759 916 692 808 q 878 1106 826 1024 q 963 1238 931 1188 q 1001 1297 996 1289 q 1025 1313 1010 1310 q 1053 1308 1040 1317 z "},"U":{"ha":1369,"x_min":-11,"x_max":1658,"o":"m 1650 1465 q 1658 1438 1658 1453 q 1634 1365 1658 1415 q 1568 1246 1610 1315 q 1472 1092 1526 1176 q 1354 919 1417 1008 q 1226 740 1292 829 q 1100 568 1161 650 q 950 243 1024 413 q 811 -101 876 74 q 792 -123 806 -117 q 764 -124 779 -129 q 742 -105 749 -118 q 742 -76 736 -92 q 813 110 775 15 q 894 301 851 204 q 692 58 794 176 q 494 -154 589 -61 q 319 -303 399 -247 q 185 -360 239 -360 q 82 -334 118 -360 q 31 -281 46 -308 q 6 -71 -11 -210 q 101 282 22 68 q 322 790 179 496 q 674 1464 464 1083 q 694 1481 681 1476 q 721 1479 707 1486 q 740 1461 733 1474 q 742 1435 746 1449 l 707 1328 q 693 1308 704 1315 q 669 1301 682 1300 q 172 258 317 646 q 94 -243 26 -129 q 122 -271 103 -257 q 185 -285 140 -285 q 278 -242 215 -285 q 439 -105 342 -200 q 669 144 536 -10 q 972 521 801 297 q 1006 566 989 544 q 1039 610 1022 588 q 1135 796 1086 704 q 1233 976 1183 888 q 1338 1153 1283 1063 q 1445 1316 1393 1243 q 1542 1435 1497 1389 q 1615 1482 1586 1482 q 1650 1465 1638 1482 z "},"V":{"ha":1238,"x_min":-1,"x_max":1928,"o":"m 1890 1482 q 1917 1472 1906 1482 q 1928 1446 1928 1461 q 1917 1419 1928 1431 q 1890 1408 1906 1408 q 1718 1361 1806 1408 q 1542 1233 1631 1314 q 1365 1042 1453 1151 q 1192 811 1278 933 q 1024 560 1106 689 q 865 308 942 431 q 683 22 764 147 q 533 -189 601 -103 q 408 -319 465 -275 q 300 -364 351 -364 q 264 -344 276 -364 q 253 -293 251 -328 q 274 -187 256 -258 q 328 -3 292 -117 q 422 286 364 111 q 477 451 449 367 q 533 621 506 536 q 584 787 560 706 q 628 942 608 868 q 669 1116 657 1049 q 685 1222 682 1183 q 685 1276 688 1260 q 679 1296 682 1292 q 571 1258 636 1294 q 432 1169 506 1222 q 285 1053 358 1115 q 153 936 211 990 q 136 900 156 913 l 58 846 q 32 840 46 838 q 8 853 18 842 q -1 878 -1 864 q 11 903 0 893 q 64 954 24 915 q 163 1045 104 993 q 291 1154 221 1097 q 431 1259 361 1211 q 567 1338 501 1307 q 681 1369 632 1369 q 739 1340 718 1369 q 758 1212 765 1303 q 717 983 751 1121 q 624 664 682 846 q 493 263 567 482 q 438 97 465 181 q 388 -60 411 14 q 349 -192 365 -133 q 328 -283 332 -251 q 423 -205 369 -265 q 538 -57 476 -144 q 667 135 600 31 q 801 349 735 240 q 972 617 885 482 q 1148 878 1058 753 q 1329 1115 1238 1004 q 1514 1306 1421 1225 q 1701 1435 1607 1388 q 1890 1482 1796 1482 z "},"W":{"ha":1660,"x_min":-371,"x_max":2353,"o":"m 2315 1482 q 2342 1472 2331 1482 q 2353 1446 2353 1461 q 2342 1419 2353 1431 q 2315 1408 2331 1408 q 2143 1361 2231 1408 q 1967 1233 2056 1314 q 1790 1042 1878 1151 q 1617 811 1703 933 q 1449 560 1531 689 q 1290 308 1367 431 q 1108 22 1189 147 q 958 -189 1026 -103 q 833 -319 890 -275 q 725 -364 776 -364 q 596 -301 646 -364 q 528 267 488 -167 q 535 333 531 301 q 543 397 539 365 q 499 306 522 353 q 449 213 475 260 q 313 -25 369 64 q 215 -160 256 -114 q 146 -221 174 -207 q 97 -235 118 -235 q 10 -192 40 -235 q -21 -72 -21 -150 q 2 119 -21 7 q 67 374 25 231 q 165 692 110 518 q 203 808 183 746 q 241 934 222 871 q 276 1056 260 997 q 302 1165 292 1115 q 315 1248 313 1214 q 310 1296 318 1282 q 242 1278 281 1294 q 157 1233 203 1261 q 62 1169 111 1206 q -36 1093 13 1133 q -131 1013 -85 1053 q -217 936 -178 972 q -233 900 -214 913 l -311 846 q -337 840 -324 838 q -361 853 -351 842 q -370 878 -371 864 q -358 903 -369 893 q -306 954 -347 915 q -207 1045 -265 993 q -78 1154 -149 1097 q 62 1259 -8 1211 q 197 1338 132 1307 q 311 1369 263 1369 q 368 1340 349 1369 q 388 1257 389 1313 q 369 1118 388 1201 q 316 922 350 1035 q 236 668 282 810 q 185 508 211 592 q 135 341 158 424 q 92 180 111 258 q 62 36 72 101 q 52 -78 51 -29 q 69 -149 53 -126 q 79 -157 74 -153 q 97 -161 85 -161 q 174 -94 122 -161 q 294 86 226 -28 q 439 351 361 200 q 592 672 517 503 q 610 692 597 686 q 636 693 622 697 q 658 676 651 689 q 661 650 664 664 q 637 524 650 600 q 613 359 624 447 q 595 178 601 271 q 592 2 589 86 q 609 -150 594 -82 q 654 -256 624 -218 q 725 -289 682 -289 q 819 -233 764 -289 q 941 -87 875 -178 q 1080 117 1007 3 q 1226 349 1153 231 q 1396 617 1310 482 q 1572 878 1482 753 q 1753 1115 1661 1004 q 1938 1306 1844 1225 q 2125 1435 2031 1388 q 2315 1482 2219 1482 z "},"X":{"ha":1157,"x_min":0,"x_max":2078,"o":"m 2040 1482 q 2067 1472 2056 1482 q 2078 1446 2078 1461 q 2067 1419 2078 1431 q 2040 1408 2056 1408 q 1918 1375 1988 1408 q 1766 1285 1849 1342 q 1590 1151 1683 1228 q 1400 985 1497 1074 q 1203 803 1303 897 q 1007 615 1103 708 q 978 587 992 600 q 949 560 964 574 q 1063 359 1004 461 q 1181 163 1122 257 q 1300 -13 1240 69 q 1417 -157 1360 -96 q 1526 -253 1474 -218 q 1628 -289 1579 -289 q 1654 -300 1643 -289 q 1665 -326 1665 -311 q 1654 -353 1665 -342 q 1628 -364 1643 -364 q 1450 -290 1540 -364 q 1267 -95 1360 -217 q 1080 183 1174 26 q 893 506 986 339 q 631 260 757 375 q 397 59 506 144 q 197 -76 288 -26 q 38 -126 106 -126 q 11 -115 22 -126 q 0 -89 0 -104 q 11 -62 0 -74 q 38 -51 22 -51 q 183 1 96 -51 q 378 140 271 53 q 608 340 486 228 q 856 574 731 453 q 847 588 851 581 q 839 604 843 596 q 698 853 769 728 q 560 1079 626 978 q 435 1244 493 1181 q 336 1307 378 1307 q 310 1318 321 1307 q 300 1344 300 1329 q 310 1371 300 1360 q 336 1382 321 1382 q 451 1331 392 1382 q 578 1183 510 1279 q 728 950 647 1088 q 904 640 808 813 q 911 626 908 633 q 933 647 922 638 q 956 668 944 657 q 1275 972 1118 825 q 1572 1233 1432 1119 q 1832 1414 1713 1346 q 2040 1482 1951 1482 z "},"Y":{"ha":1446,"x_min":-1,"x_max":1596,"o":"m 1449 511 q 1475 523 1460 522 q 1501 513 1490 524 q 1513 486 1513 501 q 1501 460 1513 471 q 1349 325 1435 393 q 1166 190 1263 257 q 965 59 1069 124 q 760 -65 861 -6 q 627 -244 694 -162 q 490 -385 560 -326 q 348 -478 419 -444 q 204 -511 276 -511 q 176 -510 193 -511 q 140 -505 158 -510 q 108 -490 122 -500 q 89 -461 94 -481 q 103 -404 82 -435 q 180 -332 124 -374 q 329 -234 236 -290 q 558 -97 422 -178 q 631 -55 594 -76 q 707 -11 668 -33 q 850 228 781 101 q 985 486 919 356 q 841 351 914 413 q 696 244 768 289 q 553 173 624 199 q 417 147 482 147 q 288 207 326 147 q 264 315 260 250 q 293 458 268 379 q 358 628 318 538 q 442 815 397 719 q 498 940 468 874 q 550 1065 528 1006 q 582 1169 572 1124 q 581 1233 592 1215 q 576 1237 581 1235 q 560 1239 572 1239 q 458 1211 514 1239 q 347 1141 403 1183 q 238 1047 292 1099 q 143 950 185 996 q 129 911 150 928 l 60 857 q 35 848 49 847 q 11 860 21 849 q -1 885 0 871 q 8 910 -1 899 q 38 945 11 914 q 107 1022 64 976 q 205 1118 150 1067 q 319 1213 260 1169 q 441 1285 379 1256 q 560 1314 503 1314 q 615 1301 596 1314 q 644 1272 635 1288 q 660 1199 663 1243 q 639 1094 658 1154 q 585 956 619 1033 q 508 783 551 878 q 438 625 474 707 q 375 469 401 543 q 340 337 349 396 q 350 247 331 278 q 366 233 353 243 q 417 222 379 222 q 558 256 481 222 q 722 353 635 289 q 903 510 808 417 q 1096 722 997 603 q 1101 728 1099 725 q 1106 733 1103 731 q 1189 913 1149 826 q 1317 1183 1264 1074 q 1409 1358 1369 1292 q 1479 1453 1449 1425 q 1539 1482 1510 1482 q 1583 1460 1569 1482 q 1596 1419 1596 1444 q 1563 1307 1596 1383 q 1473 1131 1531 1231 q 1337 917 1415 1032 q 1167 690 1258 803 q 1014 377 1093 535 q 847 74 935 219 q 1018 181 933 126 q 1181 291 1103 236 q 1326 401 1258 346 q 1449 511 1394 457 m 1515 1383 q 1478 1328 1499 1363 q 1433 1249 1457 1294 q 1385 1152 1410 1204 q 1333 1044 1360 1100 q 1453 1246 1407 1157 q 1515 1383 1500 1335 m 204 -437 q 403 -361 303 -437 q 601 -160 503 -285 q 599 -160 600 -160 q 597 -161 599 -161 q 463 -240 531 -200 q 336 -317 394 -281 q 234 -385 278 -354 q 172 -435 190 -415 q 204 -437 186 -437 z "},"Z":{"ha":1157,"x_min":-1,"x_max":1826,"o":"m 1818 1401 q 1824 1345 1826 1379 q 1796 1258 1821 1311 q 1716 1131 1771 1206 q 1565 951 1661 1056 q 1324 708 1468 846 q 974 390 1179 569 q 783 227 878 307 q 599 74 688 147 q 429 -65 510 0 q 282 -182 349 -129 q 419 -135 346 -158 q 569 -94 492 -112 q 724 -63 646 -75 q 875 -51 801 -51 q 1019 -71 958 -51 q 1124 -120 1081 -90 q 1197 -184 1168 -150 q 1241 -248 1225 -218 q 1263 -298 1257 -278 q 1269 -318 1269 -318 q 1265 -347 1274 -333 q 1242 -362 1257 -360 q 1233 -364 1239 -364 q 1210 -356 1221 -364 q 1197 -335 1200 -349 q 1192 -316 1197 -332 q 1173 -277 1186 -300 q 1137 -228 1160 -254 q 1078 -178 1114 -201 q 993 -141 1043 -156 q 875 -126 943 -126 q 694 -144 789 -126 q 509 -187 600 -161 q 336 -242 418 -212 q 192 -299 254 -272 q 92 -342 129 -325 q 54 -360 56 -360 q 26 -362 40 -367 q 6 -346 13 -358 q 1 -320 -1 -335 q 14 -297 3 -306 q 53 -267 15 -296 q 154 -188 90 -239 q 305 -68 218 -137 q 492 83 392 1 q 703 258 593 165 q 925 447 814 350 q 1270 760 1129 625 q 1503 996 1411 896 q 1647 1165 1596 1096 q 1722 1277 1699 1233 q 1749 1344 1746 1321 q 1749 1378 1751 1368 q 1734 1394 1744 1388 q 1710 1403 1724 1400 q 1683 1407 1697 1406 q 1658 1408 1669 1408 q 1521 1396 1601 1408 q 1347 1363 1440 1383 q 1155 1317 1254 1343 q 960 1265 1056 1292 q 779 1212 864 1238 q 631 1167 694 1186 q 619 1147 628 1156 q 597 1136 611 1138 l 490 1124 q 463 1129 475 1121 q 449 1153 451 1138 q 453 1178 446 1167 q 474 1196 460 1190 q 522 1211 481 1197 q 631 1245 564 1225 q 783 1291 697 1265 q 963 1343 868 1317 q 1156 1394 1057 1369 q 1347 1439 1256 1419 q 1519 1470 1439 1458 q 1658 1482 1600 1482 q 1818 1401 1792 1482 z "},"b":{"ha":757,"x_min":-317,"x_max":631,"o":"m 603 665 q 631 590 631 639 q 608 494 631 550 q 547 378 585 439 q 458 258 508 318 q 351 152 407 199 q 239 76 296 106 q 131 47 182 47 q 61 64 85 47 q 26 97 38 81 q 11 143 13 119 q -124 -22 -58 61 q -247 -179 -189 -104 q -276 -194 -258 -194 q -296 -189 -289 -194 q -312 -169 -308 -182 q -311 -142 -317 -156 q -206 74 -265 -40 q -81 308 -147 189 q 56 547 -14 428 q 193 776 126 667 q 319 981 260 886 q 422 1144 378 1075 q 493 1255 467 1214 q 521 1297 519 1296 q 544 1313 529 1310 q 572 1308 560 1317 q 588 1285 585 1300 q 583 1257 592 1269 q 551 1207 582 1254 q 468 1078 519 1160 q 350 889 417 997 q 210 658 283 781 q 60 403 136 535 q -83 146 -15 272 q 23 272 -33 207 q 136 397 79 336 q 249 513 193 458 q 354 607 304 567 q 447 671 404 647 q 522 694 490 694 q 603 665 575 694 m 400 306 q 463 385 435 344 q 513 464 492 426 q 545 534 533 501 q 557 590 557 567 q 556 603 557 597 q 550 614 554 610 q 522 621 543 621 q 455 593 497 621 q 359 516 413 565 q 243 401 306 467 q 114 261 181 336 q 100 230 107 247 q 89 194 93 213 q 85 161 85 176 q 90 136 85 146 q 131 122 99 122 q 253 172 182 122 q 400 306 325 221 z "},"c":{"ha":749,"x_min":-78,"x_max":851,"o":"m 836 525 q 849 499 847 514 q 842 472 851 485 q 809 435 838 468 q 731 354 781 401 q 616 253 682 307 q 472 154 550 200 q 306 78 393 108 q 128 47 218 47 q -24 97 31 47 q -78 233 -78 146 q -44 384 -78 303 q 45 534 -10 465 q 168 649 100 603 q 304 694 236 694 q 370 678 349 694 q 400 646 392 663 q 408 581 414 617 q 387 509 403 544 q 352 444 371 474 q 324 401 333 415 q 299 386 314 389 q 271 393 283 383 q 257 417 260 401 q 264 444 254 432 q 295 492 281 467 q 319 542 310 518 q 333 584 329 565 q 333 613 338 603 q 304 621 329 621 q 205 585 260 621 q 101 486 150 549 q 25 356 53 424 q -3 233 -3 289 q 128 122 -3 122 q 290 151 210 122 q 444 224 371 181 q 578 319 517 268 q 685 415 640 371 q 756 488 731 458 q 783 519 782 518 q 809 533 794 531 q 836 525 824 535 z "},"d":{"ha":1193,"x_min":-271,"x_max":1286,"o":"m 1271 525 q 1284 499 1282 514 q 1276 472 1286 485 q 1244 435 1272 468 q 1166 354 1215 401 q 1051 253 1117 307 q 906 154 985 200 q 740 78 828 108 q 563 47 653 47 q 438 113 478 47 q 401 257 401 165 q 408 342 401 297 q 425 436 414 388 q 426 442 426 439 q 428 450 426 446 q 331 360 385 410 q 219 261 278 311 q 101 165 161 211 q -14 81 42 118 q -117 22 -69 44 q -197 0 -164 0 q -251 20 -231 0 q -271 74 -271 40 q -251 151 -271 107 q -201 245 -232 196 q -129 345 -169 294 q -47 442 -89 396 q 24 514 -21 471 q 124 597 69 557 q 238 666 178 638 q 353 694 297 694 q 463 647 422 694 q 481 619 474 632 q 588 867 525 743 q 721 1089 651 990 q 860 1249 790 1188 q 990 1310 931 1310 q 1042 1292 1024 1310 q 1056 1272 1049 1285 q 1063 1240 1063 1260 q 1031 1146 1063 1203 q 951 1022 1000 1089 q 841 883 901 954 q 722 749 781 813 q 613 633 663 685 q 535 553 563 581 q 516 497 524 525 q 501 440 508 468 q 499 426 500 432 q 499 418 499 421 q 497 413 497 415 q 494 407 496 410 q 481 329 486 367 q 476 257 476 292 q 499 153 476 189 q 563 122 519 122 q 725 151 644 122 q 878 224 806 181 q 1013 319 951 268 q 1120 415 1075 371 q 1191 488 1165 458 q 1218 519 1217 518 q 1243 533 1228 531 q 1271 525 1258 535 m 988 1235 q 904 1192 951 1233 q 805 1081 857 1150 q 701 920 753 1011 q 604 731 649 829 q 803 954 711 844 q 898 1075 863 1025 q 953 1158 933 1125 q 980 1210 974 1192 q 988 1235 986 1228 m -197 75 q -103 113 -167 75 q 45 216 -39 151 q 227 367 129 281 q 426 551 325 453 q 406 600 419 579 q 353 621 386 621 q 249 590 307 621 q 129 508 190 558 q 9 393 68 457 q -97 264 -50 329 q -176 138 -156 185 q -197 75 -197 90 z "},"e":{"ha":760,"x_min":-117,"x_max":853,"o":"m 838 525 q 851 499 849 514 q 842 472 853 483 q 805 431 838 468 q 717 340 772 393 q 590 226 663 286 q 433 114 517 165 q 258 28 350 63 q 76 -6 167 -6 q -66 41 -15 -6 q -117 174 -117 88 q -103 263 -117 215 q -67 363 -90 311 q -65 365 -67 363 q -26 438 -49 401 q 22 507 -4 474 q 67 560 39 528 q 133 622 96 592 q 215 673 171 651 q 306 694 258 694 q 375 671 349 694 q 403 606 403 646 q 372 513 403 563 q 287 419 342 463 q 156 346 232 376 q -8 311 81 315 q -33 240 -24 275 q -42 174 -42 206 q -17 99 -42 124 q 76 69 10 69 q 242 103 158 69 q 405 185 326 136 q 552 293 483 235 q 672 401 621 351 q 753 485 724 451 q 785 519 783 518 q 810 533 796 531 q 838 525 825 535 m 306 621 q 238 602 274 621 q 165 551 201 583 q 94 477 129 519 q 32 389 60 435 q 156 425 101 399 q 249 484 211 451 q 308 549 288 517 q 328 606 328 582 q 328 611 328 608 q 325 617 328 614 q 318 619 322 618 q 306 621 314 621 z "},"f":{"ha":747,"x_min":-392,"x_max":838,"o":"m 824 522 q 836 496 835 511 q 828 469 838 481 q 792 431 824 465 q 701 347 760 396 q 557 241 642 299 q 364 132 472 183 q 124 43 256 81 q -162 -6 -8 6 q -176 -36 -169 -21 q -189 -67 -182 -51 q -142 -210 -167 -129 q -104 -374 -118 -292 q -93 -531 -90 -457 q -126 -651 -96 -604 q -247 -712 -167 -712 q -319 -695 -293 -712 q -360 -658 -346 -678 q -392 -529 -392 -611 q -358 -320 -392 -440 q -269 -65 -325 -200 q -285 -24 -278 -44 q -301 14 -293 -4 q -297 50 -308 33 q -267 67 -285 67 l -212 67 q -176 145 -194 107 q -137 224 -157 183 q -135 229 -137 224 q -44 401 -90 317 q 47 560 3 485 q 119 676 74 604 q 222 832 164 749 q 345 1001 279 915 q 478 1155 411 1086 q 609 1267 544 1224 q 728 1310 674 1310 q 801 1291 779 1310 q 831 1253 824 1272 q 836 1216 836 1238 q 824 1161 836 1194 q 783 1082 811 1128 q 706 972 756 1036 q 580 824 656 908 q 397 632 504 740 q 240 476 318 551 q 96 340 161 400 q -15 239 31 279 q -74 186 -60 199 q -128 74 -101 128 q 133 126 13 88 q 353 213 254 164 q 530 316 453 263 q 660 414 607 369 q 742 488 714 458 q 771 518 769 517 q 796 531 781 529 q 824 522 811 532 m 111 521 q 68 449 89 485 q 28 378 47 414 q 333 672 194 531 q 571 927 472 814 q 720 1119 669 1040 q 761 1226 771 1199 q 728 1235 758 1235 q 619 1183 686 1235 q 471 1036 553 1131 q 297 810 389 942 q 111 521 204 679 m -187 -610 q -167 -536 -169 -583 q -172 -430 -164 -489 q -195 -306 -179 -371 q -232 -175 -211 -240 q -294 -376 -272 -286 q -317 -529 -317 -467 q -299 -615 -317 -589 q -282 -630 -293 -622 q -247 -637 -271 -637 q -207 -628 -219 -637 q -187 -610 -194 -619 z "},"g":{"ha":988,"x_min":-490,"x_max":1069,"o":"m 1056 524 q 1068 499 1067 514 q 1060 472 1069 483 q 812 219 939 331 q 560 21 685 108 q 318 -134 436 -67 q 94 -254 200 -201 q -31 -431 32 -349 q -154 -574 -94 -512 q -267 -672 -214 -636 q -365 -707 -321 -707 q -421 -695 -397 -707 q -460 -666 -444 -683 q -483 -628 -475 -649 q -490 -587 -490 -607 q -462 -495 -490 -536 q -381 -417 -433 -454 q -256 -342 -329 -379 q -93 -262 -183 -306 q -27 -231 -61 -247 q 43 -196 7 -214 q 106 -98 74 -150 q 175 13 139 -46 q 276 184 228 100 q 367 344 325 268 q 215 181 296 264 q 55 29 135 97 q -99 -82 -25 -39 q -231 -125 -174 -125 q -306 -99 -279 -125 q -331 -28 -331 -74 q -297 97 -331 24 q -206 250 -262 169 q -78 410 -150 331 q 67 552 -7 489 q 213 655 142 615 q 342 694 285 694 q 426 675 400 694 q 463 636 453 656 q 474 589 474 611 q 526 655 507 631 q 546 681 546 679 q 569 694 556 692 q 596 689 583 697 q 611 668 607 682 q 608 642 615 654 q 578 583 599 624 q 526 484 557 542 q 457 355 496 426 q 374 203 418 283 q 279 40 329 124 q 176 -128 229 -44 q 375 -14 272 -76 q 583 128 478 49 q 794 303 689 207 q 1003 519 900 400 q 1029 533 1014 532 q 1056 524 1044 535 m 311 394 q 346 447 328 417 q 378 507 364 478 q 397 562 392 536 q 396 603 403 588 q 374 617 390 614 q 342 621 357 621 q 270 602 311 621 q 181 549 229 583 q 81 465 133 514 q -26 357 28 417 q -119 243 -76 300 q -192 135 -161 186 q -240 42 -222 85 q -257 -28 -257 -1 q -253 -46 -257 -42 q -231 -51 -247 -51 q -178 -39 -212 -51 q -87 12 -143 -26 q 47 121 -32 50 q 235 310 126 192 q 273 352 254 331 q 311 394 292 374 m -365 -633 q -328 -623 -353 -633 q -265 -580 -304 -612 q -172 -485 -226 -547 q -42 -319 -117 -424 q -52 -324 -47 -322 q -61 -329 -57 -326 q -203 -399 -139 -367 q -315 -462 -268 -431 q -389 -524 -362 -493 q -415 -587 -415 -554 q -413 -599 -415 -592 q -406 -615 -411 -607 q -390 -628 -400 -622 q -365 -633 -381 -633 z "},"h":{"ha":1257,"x_min":-303,"x_max":1350,"o":"m 1335 522 q 1348 497 1346 513 q 1340 469 1350 482 q 1307 432 1336 465 q 1229 351 1278 399 q 1114 251 1181 304 q 969 151 1047 197 q 803 75 890 106 q 624 44 715 44 q 501 94 543 44 q 474 156 481 121 q 469 231 467 190 q 478 314 471 271 q 496 401 486 357 q 508 463 501 431 q 517 523 514 494 q 518 574 519 551 q 508 608 517 597 q 500 615 506 611 q 475 618 494 618 q 422 592 456 618 q 349 523 389 565 q 263 425 308 481 q 172 312 217 369 q 85 198 128 254 q 10 96 43 142 q -100 -53 -57 4 q -172 -142 -143 -110 q -218 -187 -200 -175 q -251 -199 -236 -199 q -293 -175 -279 -199 q -300 -156 -297 -168 q -295 -115 -303 -143 q -266 -37 -287 -87 q -201 99 -244 14 q -86 308 -157 183 q 92 611 -15 433 q 243 861 168 739 q 378 1078 318 983 q 474 1232 438 1174 q 513 1292 511 1290 q 535 1308 521 1306 q 564 1303 550 1311 q 580 1280 576 1294 q 575 1251 583 1265 q 414 996 494 1125 q 257 741 333 867 q 111 498 181 615 q -17 278 42 381 q -120 92 -75 176 q -192 -49 -165 8 q -123 41 -160 -8 q -50 140 -86 90 q 117 363 39 261 q 261 538 196 465 q 380 652 326 611 q 475 693 433 693 q 565 654 536 693 q 589 603 583 633 q 592 539 594 574 q 583 465 590 504 q 568 386 576 426 q 554 313 561 350 q 544 243 547 276 q 544 183 542 210 q 560 140 547 157 q 576 128 563 136 q 624 119 589 119 q 787 149 706 119 q 941 222 868 178 q 1076 317 1014 265 q 1183 412 1138 368 q 1255 485 1229 456 q 1282 517 1281 515 q 1307 531 1292 529 q 1335 522 1322 532 z "},"i":{"ha":760,"x_min":-67,"x_max":854,"o":"m 839 522 q 852 497 850 513 q 844 469 854 482 q 812 432 840 465 q 734 351 783 399 q 619 251 685 304 q 474 151 553 197 q 308 75 396 106 q 129 44 221 44 q -44 128 -1 44 q -65 224 -67 169 q -46 335 -62 278 q -3 450 -29 393 q 49 554 22 507 q 96 634 75 601 q 124 676 117 667 q 147 692 132 689 q 175 686 163 696 q 190 663 188 678 q 185 635 193 647 q 115 519 151 585 q 51 385 78 453 q 14 258 25 318 q 22 163 3 199 q 29 151 24 158 q 47 138 35 144 q 78 125 58 131 q 129 119 97 119 q 292 149 211 119 q 445 222 372 178 q 580 317 518 265 q 688 412 642 368 q 759 485 733 456 q 786 517 785 515 q 811 531 796 529 q 839 522 826 532 m 232 792 q 217 815 219 800 q 224 843 214 831 l 261 897 q 285 913 269 910 q 313 907 300 915 q 328 882 325 897 q 322 854 331 867 l 285 801 q 254 785 274 785 q 232 792 243 785 z "},"j":{"ha":536,"x_min":-931,"x_max":633,"o":"m 619 522 q 632 496 631 511 q 624 469 633 481 q 375 216 501 328 q 124 17 249 104 q -120 -138 -1 -71 q -344 -258 -239 -206 q -472 -435 -408 -353 q -594 -579 -535 -518 q -708 -676 -654 -640 q -806 -712 -761 -712 q -861 -701 -837 -712 q -900 -672 -885 -689 q -923 -633 -915 -654 q -931 -593 -931 -612 q -902 -501 -931 -542 q -822 -422 -874 -460 q -697 -347 -769 -383 q -533 -267 -624 -310 q -396 -200 -467 -236 q -331 -102 -364 -154 q -262 10 -299 -50 q -122 251 -187 132 q -6 463 -56 369 q 74 613 44 556 q 104 672 104 671 q 126 691 111 686 q 156 689 140 696 q 174 667 169 682 q 171 639 178 653 q 117 535 157 611 q 19 351 78 458 q -111 119 -39 244 q -262 -132 -183 -7 q -62 -17 -165 -81 q 146 124 40 46 q 358 300 251 203 q 567 518 464 397 q 592 531 576 529 q 619 522 607 532 m -806 -637 q -768 -628 -793 -637 q -704 -585 -743 -618 q -610 -490 -665 -551 q -481 -324 -556 -428 q -491 -328 -486 -326 q -501 -333 -496 -331 q -644 -403 -579 -371 q -756 -466 -708 -435 q -829 -528 -803 -497 q -856 -593 -856 -560 q -853 -604 -856 -597 q -846 -619 -851 -611 q -831 -632 -840 -626 q -806 -637 -821 -637 m 222 792 q 207 815 210 800 q 213 843 204 831 l 250 897 q 274 913 258 910 q 301 907 289 915 q 317 882 314 897 q 311 854 319 867 l 274 801 q 243 785 263 785 q 222 792 232 785 z "},"k":{"ha":988,"x_min":-304,"x_max":1078,"o":"m 1067 519 q 1077 493 1078 508 q 1065 467 1076 478 q 1024 429 1061 463 q 931 349 988 396 q 801 249 874 303 q 650 150 728 196 q 495 74 572 104 q 353 44 418 44 q 275 79 308 44 q 240 136 254 101 q 217 210 225 171 q 204 290 208 250 q 199 365 200 331 q 99 228 147 299 q 8 93 51 158 q -78 -35 -40 19 q -147 -126 -117 -90 q -203 -181 -178 -162 q -253 -199 -228 -199 q -294 -175 -281 -199 q -301 -156 -299 -168 q -297 -115 -304 -143 q -267 -37 -289 -87 q -202 99 -246 14 q -87 308 -158 183 q 90 611 -17 433 q 242 861 167 739 q 376 1078 317 983 q 473 1232 436 1174 q 511 1292 510 1290 q 534 1308 519 1306 q 563 1303 549 1311 q 578 1280 575 1294 q 574 1251 582 1265 q 403 981 489 1118 q 237 712 317 843 q 85 458 157 581 q -45 231 14 335 q -146 46 -104 128 q -208 -86 -187 -36 q -173 -40 -192 -67 q -133 15 -154 -14 q -92 75 -112 44 q -54 133 -72 106 q 32 262 -12 196 q 124 390 76 328 q 219 507 171 451 q 319 603 268 563 q 422 669 369 644 q 526 693 474 693 q 553 682 542 693 q 564 656 564 671 q 553 629 564 640 q 526 618 542 618 q 401 572 465 618 q 274 454 338 526 l 274 451 q 274 367 272 415 q 281 273 275 319 q 299 188 288 226 q 329 131 311 149 q 342 121 336 122 q 353 119 349 119 q 483 149 411 119 q 627 222 554 178 q 769 319 700 267 q 892 415 839 371 q 979 490 946 460 q 1014 521 1013 519 q 1040 531 1025 532 q 1067 519 1056 531 z "},"l":{"ha":618,"x_min":-185,"x_max":713,"o":"m 696 524 q 710 499 707 514 q 703 471 713 483 q 680 442 703 471 q 618 366 657 413 q 528 260 579 319 q 418 140 476 201 q -76 -199 96 -199 q -162 -151 -136 -199 q -172 -33 -185 -111 q -124 146 -160 44 q -33 366 -87 247 q 85 606 22 485 q 215 847 149 728 q 342 1067 282 965 q 449 1246 401 1168 q 522 1364 497 1324 q 545 1380 531 1376 q 574 1375 560 1383 q 590 1352 586 1367 q 585 1324 593 1338 q 231 724 369 982 q 14 290 92 467 q -88 12 -64 113 q -97 -115 -112 -89 q -92 -121 -96 -118 q -76 -124 -87 -124 q 33 -89 -29 -124 q 164 2 96 -54 q 303 129 232 58 q 438 271 374 200 q 556 407 503 342 q 643 517 608 472 q 668 531 653 528 q 696 524 683 533 z "},"m":{"ha":1585,"x_min":-261,"x_max":1678,"o":"m 1663 522 q 1676 497 1674 513 q 1668 469 1678 482 q 1635 432 1664 465 q 1557 351 1606 399 q 1442 251 1508 304 q 1297 151 1375 197 q 1131 75 1218 106 q 951 44 1043 44 q 807 106 844 44 q 788 174 788 136 q 799 256 788 213 q 831 345 811 299 q 874 438 851 392 q 897 488 883 460 q 920 542 910 515 q 935 588 931 568 q 936 617 940 608 l 932 617 q 927 617 929 617 q 921 618 925 618 q 841 596 885 618 q 753 538 797 574 q 666 460 708 503 q 589 376 624 418 q 578 306 586 340 q 555 246 569 272 q 521 203 540 219 q 476 188 501 188 q 438 204 451 188 q 429 217 433 208 q 425 240 425 226 q 450 311 425 267 q 515 407 475 356 q 510 460 515 436 q 503 490 507 474 q 490 522 499 507 q 467 547 481 536 q 436 557 454 557 q 342 519 396 557 q 231 426 289 482 q 116 305 174 371 q 11 183 58 239 q -65 95 -33 131 q -119 38 -96 60 q -158 7 -142 17 q -190 -3 -175 -3 q -250 32 -233 -3 q -247 99 -261 56 q -203 198 -233 143 q -130 316 -174 253 q -38 444 -86 379 q 59 569 10 508 q 150 679 108 629 q 175 693 160 692 q 203 685 190 694 q 216 658 214 674 q 207 632 218 643 q 58 448 125 535 q -57 290 -8 361 q -136 167 -106 219 q -176 86 -167 115 q -116 150 -153 108 q -46 232 -79 192 q 74 369 11 299 q 199 499 136 440 q 323 594 263 557 q 436 632 383 632 q 558 553 518 632 q 582 485 575 518 q 665 563 621 525 q 753 629 708 600 q 840 676 797 658 q 921 693 883 693 q 974 681 956 693 q 1000 657 992 669 q 1013 610 1013 636 q 1003 552 1013 583 q 977 484 993 521 q 942 406 961 447 q 908 333 925 372 q 878 258 890 294 q 863 192 867 222 q 869 144 858 163 q 905 124 881 129 q 951 119 929 119 q 1115 149 1033 119 q 1269 222 1196 178 q 1403 317 1342 265 q 1511 412 1465 368 q 1583 485 1557 456 q 1610 517 1608 515 q 1635 531 1619 529 q 1663 522 1650 532 z "},"n":{"ha":1204,"x_min":-258,"x_max":1292,"o":"m 1276 522 q 1290 497 1289 513 q 1282 469 1292 482 q 1249 432 1278 465 q 1172 351 1221 399 q 1056 251 1122 304 q 912 151 990 197 q 746 75 833 106 q 567 44 658 44 q 413 110 454 44 q 390 186 390 143 q 401 278 389 229 q 433 378 413 326 q 475 478 454 429 q 492 516 483 496 q 507 555 500 536 q 519 590 514 574 q 526 618 525 607 q 470 592 503 614 q 398 539 438 571 q 315 467 358 507 q 229 383 272 426 q 145 299 186 340 q 69 221 104 257 q -37 110 6 154 q -109 42 -81 67 q -156 7 -137 17 q -187 -3 -174 -3 q -247 32 -231 -3 q -244 99 -258 56 q -201 198 -231 143 q -127 316 -171 253 q -35 444 -83 379 q 62 569 13 508 q 153 679 111 629 q 178 693 163 692 q 206 685 193 694 q 219 658 217 674 q 210 632 221 643 q 60 446 128 533 q -56 288 -7 358 q -135 164 -104 217 q -175 83 -165 111 q -137 117 -160 96 q -90 163 -115 138 q -36 217 -64 189 q 17 272 -8 246 q 183 442 106 364 q 324 575 260 519 q 442 662 389 631 q 535 693 494 693 q 572 683 560 693 q 590 665 585 674 q 595 581 613 633 q 543 449 578 528 q 508 366 526 410 q 478 281 490 322 q 464 206 467 240 q 475 150 461 171 q 567 119 496 119 q 730 149 649 119 q 883 222 811 178 q 1018 317 956 265 q 1126 412 1081 368 q 1197 485 1171 456 q 1224 517 1222 515 q 1250 531 1235 529 q 1276 522 1265 532 z "},"o":{"ha":857,"x_min":-140,"x_max":951,"o":"m 935 526 q 949 502 947 517 q 943 475 951 488 q 919 445 940 472 q 861 380 899 418 q 771 298 824 342 q 652 217 718 254 q 508 156 586 181 q 343 132 431 132 q 263 143 300 132 q 260 140 261 142 q 257 138 260 139 q 126 34 196 72 q -3 -4 56 -4 q -122 71 -90 -4 q -134 174 -140 114 q -105 298 -128 235 q -47 420 -82 361 q 28 519 -12 479 q 53 531 39 531 q 78 522 67 532 q 113 613 89 575 q 174 674 138 653 q 253 696 210 696 q 365 641 325 696 q 406 489 406 586 q 314 208 406 340 q 328 206 321 207 q 343 206 336 206 q 491 228 421 206 q 621 286 561 251 q 729 361 681 321 q 811 436 778 401 q 863 494 844 471 q 882 518 882 517 q 907 533 892 531 q 935 526 922 536 m -3 69 q 89 98 36 69 q 192 176 142 126 q 99 294 129 221 q 69 443 69 367 l 69 454 q 8 367 36 417 q -37 267 -19 318 q -59 172 -54 217 q -53 99 -64 126 q -38 78 -49 88 q -3 69 -28 69 m 242 233 q 306 351 281 286 q 331 489 331 415 q 328 535 331 511 q 317 577 325 558 q 293 608 308 596 q 253 621 278 621 q 175 572 207 621 q 151 514 160 549 q 143 443 143 479 q 148 389 143 418 q 164 331 153 360 q 194 277 175 303 q 242 233 214 251 z "},"p":{"ha":922,"x_min":-685,"x_max":1003,"o":"m 997 508 q 997 480 1003 493 q 975 461 990 467 q 683 353 811 401 q 460 265 556 306 q 382 181 424 221 q 297 112 340 142 q 209 65 253 82 q 125 47 165 47 q 101 48 115 47 q 72 53 86 49 q 46 67 57 57 q 32 94 35 76 q 31 111 31 101 q 41 133 32 121 q 73 163 50 146 q 139 203 96 179 q 249 258 182 226 q 417 329 317 289 q 465 399 443 364 q 504 467 488 433 q 530 529 521 500 q 539 581 539 558 q 538 597 539 588 q 531 611 536 606 q 514 619 524 618 q 496 621 504 621 q 389 581 453 621 q 244 467 325 542 q 69 284 164 392 q -132 39 -26 176 q -306 -295 -232 -160 q -433 -519 -379 -431 q -522 -655 -486 -607 q -581 -725 -558 -703 q -618 -751 -604 -747 q -642 -754 -632 -754 q -676 -736 -665 -754 q -685 -708 -685 -724 q -666 -645 -685 -689 q -614 -542 -647 -601 q -536 -412 -581 -483 q -440 -265 -492 -342 q -333 -110 -389 -189 q -224 40 -278 -32 q -209 60 -217 50 q -194 79 -201 69 q 3 479 -99 269 q 201 901 104 689 q 222 922 208 917 q 250 919 236 926 q 271 899 265 913 q 269 871 276 885 q 249 827 269 869 q 195 713 229 785 q 115 544 161 640 q 17 338 69 447 q 146 476 81 411 q 273 590 211 542 q 392 667 335 639 q 496 696 449 696 q 583 663 551 696 q 614 581 614 633 q 594 488 614 540 q 540 379 574 436 q 725 449 624 411 q 950 531 826 486 q 978 530 965 536 q 997 508 992 524 m 150 125 q 211 147 179 131 q 275 186 243 163 q 201 151 232 167 q 150 125 171 136 z "},"q":{"ha":1085,"x_min":-275,"x_max":1183,"o":"m 1165 526 q 1181 501 1178 517 q 1174 474 1183 486 q 1139 431 1169 468 q 1053 337 1108 393 q 917 215 997 281 q 733 86 836 149 q 506 -28 631 24 q 235 -106 381 -81 q 202 -177 218 -142 q 171 -247 186 -212 q 265 -486 249 -378 q 251 -661 281 -594 q 197 -730 232 -706 q 114 -754 161 -754 q 46 -735 69 -754 q 11 -697 22 -717 q -6 -624 -6 -668 q 4 -522 -7 -579 q 37 -397 15 -464 q 88 -256 58 -329 q 37 -185 64 -219 q -25 -114 10 -150 q -32 -74 -42 -94 q 3 -50 -21 -50 q 185 -37 97 -50 q 324 238 251 101 q 463 490 396 375 q 351 378 410 436 q 231 267 292 321 q 110 164 171 213 q -6 79 50 115 q -112 22 -62 43 q -201 1 -162 1 q -255 22 -235 1 q -275 75 -275 42 q -256 153 -275 108 q -205 247 -236 197 q -133 347 -174 296 q -51 442 -93 397 q 20 514 -25 471 q 119 597 65 557 q 233 667 174 638 q 349 696 293 696 q 410 681 389 696 q 440 650 431 665 q 456 590 456 625 q 563 706 514 653 q 647 800 613 760 q 672 813 658 811 q 699 806 686 815 q 713 783 710 797 q 707 757 715 769 q 600 581 656 675 q 488 385 544 486 q 378 182 432 285 q 275 -21 324 79 q 519 59 406 8 q 724 169 632 110 q 889 290 817 229 q 1011 401 961 351 q 1087 484 1061 451 q 1114 518 1113 517 q 1138 533 1122 531 q 1165 526 1153 535 m 349 481 q 364 516 357 497 q 376 553 371 535 q 381 588 381 572 q 376 613 382 604 q 349 621 372 621 q 244 590 303 621 q 125 508 186 558 q 5 393 64 457 q -101 265 -54 329 q -181 138 -160 186 q -201 75 -201 90 q -96 110 -158 75 q 40 203 -33 146 q 194 333 114 260 q 349 481 274 406 m 83 -122 q 103 -149 94 -136 q 122 -174 113 -161 q 135 -146 129 -160 q 147 -117 140 -132 q 115 -120 132 -119 q 83 -122 99 -121 m 183 -632 q 192 -508 203 -585 q 135 -337 182 -431 q 73 -539 90 -454 q 76 -661 56 -624 q 88 -674 81 -668 q 114 -679 96 -679 q 183 -632 163 -679 z "},"r":{"ha":772,"x_min":-154,"x_max":742,"o":"m 706 408 q 731 398 721 408 q 742 372 742 388 q 731 346 742 357 q 706 335 721 335 q 639 353 664 335 q 601 399 614 372 q 582 458 588 426 q 574 518 576 490 q 559 601 567 581 q 533 621 551 621 q 440 590 493 621 q 326 510 386 560 q 206 400 267 461 q 90 276 146 339 q -12 158 35 214 q -87 63 -58 101 q -117 49 -97 49 q -129 50 -125 49 q -154 85 -154 60 q -137 163 -154 113 q -94 272 -121 213 q -36 394 -68 331 q 26 513 -4 457 q 80 613 56 569 q 115 676 104 657 q 138 694 124 690 q 167 690 153 697 q 184 668 181 683 q 181 640 188 653 q 134 558 158 603 q 85 465 110 513 q 35 369 60 417 q -10 276 11 321 q 72 368 28 319 q 163 463 115 417 q 260 552 211 510 q 356 626 308 594 q 449 677 404 658 q 533 696 494 696 q 591 679 569 696 q 624 638 613 663 q 641 583 636 613 q 649 526 646 553 q 665 435 654 461 q 706 408 676 408 z "},"s":{"ha":754,"x_min":-249,"x_max":846,"o":"m 838 517 q 843 489 846 504 q 828 465 840 474 q 622 326 725 397 q 423 187 519 256 q 238 53 326 118 q 78 -69 150 -12 q 53 -183 69 -131 q 8 -274 38 -235 q -67 -336 -22 -314 q -178 -358 -112 -358 q -228 -344 -214 -358 q -246 -318 -242 -329 q -248 -291 -249 -307 q -225 -244 -247 -275 q -149 -163 -203 -214 q 7 -31 -96 -112 q 15 189 15 65 q 20 368 15 278 q 47 531 25 458 q 115 650 68 604 q 249 696 163 696 q 275 685 264 696 q 286 658 286 674 q 275 632 286 643 q 249 621 264 621 q 163 591 194 621 q 116 505 132 561 q 95 369 100 449 q 90 188 90 289 q 89 110 89 149 q 86 32 89 71 q 169 94 125 61 q 265 164 214 128 q 454 299 361 233 q 621 415 547 364 q 740 496 694 465 q 786 526 785 526 q 814 533 799 536 q 838 517 829 529 m -162 -283 q -65 -242 -100 -279 q -12 -142 -31 -206 q -107 -224 -68 -187 q -162 -283 -146 -260 z "},"t":{"ha":336,"x_min":-319,"x_max":1168,"o":"m 1167 999 q 1166 977 1168 988 q 1149 953 1164 967 q 1105 924 1135 940 q 1022 888 1075 908 q 994 888 1008 882 q 975 910 981 894 q 974 938 968 925 q 996 957 981 951 l 1004 961 q 873 951 947 957 q 714 937 799 944 q 538 919 629 929 q 354 900 446 910 q 199 647 282 785 q 36 367 117 510 q -118 86 -44 225 q -244 -172 -192 -53 q -279 -194 -256 -194 q -294 -190 -286 -194 q -314 -169 -308 -183 q -312 -142 -319 -156 q -192 105 -261 -28 q -47 374 -124 238 q 110 642 31 510 q 260 890 189 775 q -92 851 31 864 q -219 838 -215 838 l -224 838 q -249 847 -239 838 q -261 869 -258 856 q -254 897 -264 885 q -229 911 -244 908 q -71 928 -211 914 q 310 969 69 943 q 392 1101 354 1042 q 458 1204 431 1161 q 502 1272 486 1247 q 518 1297 518 1296 q 542 1313 526 1310 q 569 1308 557 1317 q 586 1285 583 1300 q 581 1257 589 1269 q 567 1235 581 1256 q 531 1179 554 1215 q 475 1092 507 1143 q 404 981 443 1042 q 615 1002 511 992 q 810 1020 719 1013 q 974 1033 901 1028 q 1092 1038 1047 1038 q 1110 1037 1099 1038 q 1133 1033 1122 1036 q 1154 1021 1144 1029 q 1167 999 1164 1013 z "},"u":{"ha":1215,"x_min":-87,"x_max":1311,"o":"m 1296 525 q 1310 500 1308 515 q 1301 472 1311 485 q 1269 435 1297 468 q 1192 355 1240 401 q 1076 254 1143 308 q 932 155 1010 200 q 767 79 854 110 q 588 49 679 49 q 413 133 458 49 q 391 215 393 169 q 399 310 389 260 q 32 49 188 49 q -36 66 -12 49 q -69 101 -60 83 q -83 186 -87 135 q -61 295 -79 238 q -15 413 -43 353 q 41 526 13 474 q 94 619 69 579 q 131 678 118 660 q 153 694 139 692 q 182 689 168 697 q 198 666 194 681 q 193 638 201 651 q 112 501 153 576 q 40 353 71 425 q -6 223 8 282 q -4 138 -19 164 q 3 128 -3 135 q 32 122 10 122 q 114 146 71 122 q 202 208 157 169 q 292 297 247 247 q 377 401 336 347 q 454 509 418 456 q 518 607 490 563 q 544 653 533 635 q 560 678 556 671 q 583 694 568 690 q 610 690 597 697 q 627 667 624 682 q 624 640 631 653 q 613 620 622 638 q 583 574 603 603 q 529 465 556 524 q 486 351 503 407 q 465 248 469 296 q 478 169 461 200 q 485 157 479 165 q 503 141 490 149 q 535 128 515 133 q 588 122 556 122 q 750 151 669 122 q 903 224 831 181 q 1038 319 976 268 q 1146 415 1100 371 q 1217 488 1192 458 q 1244 519 1243 518 q 1269 533 1254 532 q 1296 525 1285 535 z "},"v":{"ha":1019,"x_min":-118,"x_max":1133,"o":"m 1118 528 q 1131 505 1129 519 q 1122 476 1133 490 q 1097 446 1119 472 q 1038 381 1075 419 q 948 299 1000 343 q 833 218 896 256 q 700 156 771 181 q 554 132 629 132 q 403 172 458 132 q 310 59 358 113 q 210 -35 261 6 q 109 -100 160 -76 q 11 -124 58 -124 q -61 -104 -36 -124 q -97 -64 -86 -85 q -116 26 -118 -28 q -99 141 -114 81 q -61 263 -85 201 q -15 376 -37 324 q 28 464 8 428 q 53 511 47 500 q 76 532 61 526 q 104 531 92 538 q 122 510 119 524 q 117 482 125 497 q 53 353 86 426 q -5 206 19 279 q -39 72 -29 133 q -32 -24 -49 10 q -16 -41 -26 -32 q 21 -50 -6 -50 q 97 -28 56 -50 q 181 32 138 -6 q 269 119 225 69 q 354 226 313 169 q 327 301 333 258 q 328 394 321 344 q 356 500 335 446 q 406 597 376 554 q 473 668 436 640 q 547 696 510 696 q 603 664 588 696 q 613 592 618 632 q 594 523 608 563 q 559 437 581 483 q 509 340 538 390 q 447 238 481 289 q 563 207 488 207 q 690 230 628 207 q 808 287 753 253 q 910 361 864 321 q 991 435 957 401 q 1044 492 1025 469 q 1064 517 1064 515 q 1091 533 1075 529 q 1118 528 1107 536 m 404 301 q 442 359 422 325 q 479 430 461 393 q 511 502 497 467 q 534 565 525 538 q 544 609 543 593 q 538 622 546 625 q 501 603 522 622 q 460 553 481 585 q 423 481 439 522 q 401 394 407 440 q 399 350 399 375 q 404 301 399 325 z "},"w":{"ha":1343,"x_min":-49,"x_max":1440,"o":"m 1421 528 q 1437 505 1433 519 q 1432 476 1440 490 q 1410 446 1429 472 q 1359 381 1392 419 q 1280 299 1326 343 q 1176 218 1233 256 q 1051 156 1118 181 q 908 132 983 132 q 751 174 814 132 q 746 165 749 171 q 684 74 721 125 q 603 -20 647 24 q 506 -94 558 -64 q 400 -124 454 -124 q 283 -46 319 -124 q 260 43 267 -11 q 165 -31 214 -1 q 71 -60 117 -60 q -14 -17 18 -60 q -42 58 -35 13 q -45 157 -49 104 q -32 265 -42 210 q -10 368 -22 319 q 14 454 3 417 q 31 508 25 492 q 48 531 35 524 q 76 532 61 538 q 99 513 92 526 q 100 485 106 500 q 64 358 81 428 q 38 223 47 289 q 28 103 28 157 q 46 26 29 50 q 71 15 56 15 q 156 52 107 15 q 258 153 206 89 q 270 245 261 194 q 294 340 279 296 q 330 413 308 383 q 381 442 351 442 q 432 418 415 442 q 447 371 447 399 q 438 322 447 350 q 414 260 429 293 q 377 192 399 228 q 329 124 356 157 q 331 59 328 90 q 344 1 335 28 q 371 -42 356 -33 q 400 -50 386 -50 q 472 -28 435 -50 q 549 32 510 -6 q 625 119 588 69 q 696 226 663 169 q 658 301 671 258 q 646 393 646 344 q 660 499 646 446 q 698 597 674 553 q 756 668 722 640 q 826 696 789 696 q 892 660 868 696 q 907 592 907 633 q 899 521 907 561 q 874 434 890 481 q 836 338 858 388 q 788 238 814 288 q 908 207 832 207 q 1033 230 974 207 q 1143 287 1092 253 q 1236 361 1194 321 q 1307 435 1278 401 q 1352 492 1336 469 q 1369 517 1368 515 q 1392 533 1376 529 q 1421 528 1407 536 m 738 301 q 752 333 744 317 q 767 364 760 349 q 828 546 818 481 q 828 622 838 611 q 794 603 813 622 q 759 553 775 585 q 732 481 743 522 q 721 393 721 439 q 724 349 721 374 q 738 301 726 325 z "},"x":{"ha":1214,"x_min":-101,"x_max":1303,"o":"m 1288 525 q 1301 500 1300 515 q 1293 474 1303 485 q 1260 436 1289 469 q 1183 356 1232 403 q 1068 254 1135 308 q 924 155 1001 200 q 758 79 846 110 q 581 49 671 49 q 383 90 476 49 q 207 210 290 131 q 92 65 151 143 q -31 -107 32 -14 q -61 -124 -42 -124 q -82 -118 -75 -124 q -98 -94 -94 -110 q -93 -67 -101 -79 q 35 114 -26 32 q 156 264 97 196 q 153 268 156 265 q 95 345 119 307 q 55 414 71 383 q 31 463 39 444 q 22 483 22 482 q 22 512 15 499 q 43 531 28 525 q 71 531 57 538 q 90 510 85 525 q 98 493 90 510 q 120 450 106 476 q 156 390 135 424 q 206 321 176 356 q 384 499 303 428 q 525 613 465 569 q 619 674 585 656 q 658 693 654 692 q 686 694 672 700 q 707 674 700 688 q 708 644 714 658 q 688 625 701 631 q 653 606 686 624 q 564 548 621 589 q 428 438 507 507 q 257 265 350 369 q 396 165 315 207 q 581 124 476 124 q 742 153 663 124 q 895 226 822 182 q 1030 321 968 269 q 1137 416 1092 372 q 1208 489 1182 460 q 1235 519 1233 518 q 1261 534 1246 532 q 1288 525 1276 536 z "},"y":{"ha":965,"x_min":-496,"x_max":1064,"o":"m 1049 525 q 1062 499 1060 514 q 1053 472 1064 483 q 806 221 932 332 q 555 22 679 110 q 313 -133 431 -65 q 89 -253 194 -200 q -37 -428 26 -346 q -160 -572 -100 -511 q -273 -669 -219 -633 q -371 -706 -326 -706 q -426 -694 -403 -706 q -465 -665 -450 -682 q -488 -626 -481 -647 q -496 -586 -496 -606 q -467 -494 -496 -535 q -387 -415 -439 -453 q -262 -341 -335 -378 q -100 -261 -189 -304 q 38 -194 -33 -231 q 101 -97 68 -149 q 169 14 133 -44 q 226 109 199 63 q 281 203 253 156 q 10 49 128 49 q -72 69 -44 49 q -110 108 -99 89 q -124 176 -125 138 q -112 256 -124 215 q -82 339 -100 297 q -44 416 -64 381 q -8 478 -25 451 q 17 517 8 504 q 40 533 25 531 q 68 528 56 536 q 85 504 82 519 q 79 476 88 489 q 26 389 53 438 q -19 293 0 340 q -47 206 -39 246 q -43 144 -56 165 q -31 132 -40 140 q 10 124 -22 124 q 104 154 54 124 q 206 233 154 185 q 307 342 257 281 q 401 465 357 403 q 479 582 444 526 q 536 676 514 638 q 568 696 547 696 q 600 678 590 696 q 603 642 611 660 q 549 538 589 614 q 452 355 510 461 q 322 124 394 249 q 171 -126 250 -1 q 369 -12 267 -75 q 577 128 472 50 q 788 304 682 207 q 996 521 893 401 q 1022 533 1007 532 q 1049 525 1038 535 m -371 -631 q -334 -621 -358 -631 q -271 -578 -310 -611 q -177 -484 -232 -546 q -47 -318 -122 -422 q -58 -323 -53 -321 q -68 -328 -62 -325 q -210 -397 -146 -365 q -322 -460 -275 -429 q -396 -522 -369 -492 q -422 -586 -422 -553 q -420 -597 -422 -590 q -412 -612 -418 -604 q -397 -625 -407 -619 q -371 -631 -386 -631 z "},"z":{"ha":1107,"x_min":-411,"x_max":1201,"o":"m 1190 521 q 1200 494 1201 510 q 1188 469 1199 479 q 923 256 1068 364 q 625 42 778 147 q 563 -104 614 -24 q 437 -267 513 -185 q 267 -429 361 -350 q 72 -569 172 -508 q -126 -668 -28 -631 q -307 -706 -224 -706 q -329 -705 -315 -706 q -358 -700 -343 -704 q -385 -686 -372 -696 q -403 -658 -397 -676 q -389 -594 -411 -629 q -299 -504 -367 -560 q -112 -366 -232 -449 q 194 -160 8 -283 q 370 -42 279 -103 q 554 82 461 18 q 548 104 553 97 q 538 114 543 111 q 461 132 515 132 q 355 119 408 132 q 252 89 301 107 q 160 49 203 71 q 86 9 118 28 q 35 -22 54 -10 q 17 -35 17 -35 q -11 -42 4 -44 q -36 -26 -26 -39 q -42 1 -44 -14 q -28 25 -40 15 q 121 140 47 81 q 260 258 194 200 q 383 372 326 317 q 478 472 439 426 q 538 553 518 518 q 551 606 557 588 q 536 615 550 610 q 486 621 522 621 q 342 603 413 621 q 217 563 272 585 q 126 524 161 542 q 92 506 92 506 q 63 501 78 497 q 40 518 49 506 q 37 547 33 532 q 54 569 40 561 q 94 591 57 571 q 192 635 132 611 q 329 677 253 658 q 486 696 406 696 q 622 629 599 696 q 624 579 628 608 q 592 503 621 550 q 503 388 564 456 q 333 224 442 321 q 306 199 319 211 q 279 176 293 188 q 369 198 324 190 q 461 206 415 206 q 583 172 539 206 q 619 128 607 156 q 894 326 761 226 q 1138 525 1028 426 q 1165 533 1150 535 q 1190 521 1179 532 m -307 -631 q -158 -602 -237 -631 q 4 -526 -78 -574 q 165 -416 86 -478 q 313 -287 244 -354 q 436 -154 382 -221 q 521 -31 490 -87 q 374 -128 446 -81 q 235 -222 303 -176 q 53 -344 144 -282 q -117 -461 -39 -406 q -251 -561 -194 -517 q -325 -631 -307 -606 l -307 -631 z "},"B":{"ha":1750,"x_min":0,"x_max":1710,"o":"m 1615 1408 q 1710 1208 1710 1335 q 1674 1045 1710 1133 q 1575 868 1639 957 q 1421 694 1511 779 q 1222 539 1331 608 q 1260 523 1242 532 q 1294 504 1278 514 q 1417 392 1376 458 q 1458 244 1458 326 q 1418 80 1458 164 q 1305 -83 1378 -4 q 1129 -231 1232 -161 q 901 -353 1026 -301 q 632 -436 776 -406 q 332 -467 488 -467 q 89 -417 175 -467 q 23 -357 46 -393 q 0 -278 0 -321 q 32 -172 0 -222 q 118 -79 64 -121 q 244 -6 172 -37 q 396 46 315 26 q 397 50 397 49 q 399 54 397 51 q 478 199 438 126 q 563 346 519 272 q 457 363 497 350 q 401 399 413 378 q 390 436 390 421 q 417 494 390 467 q 490 542 444 521 q 593 577 535 563 q 714 599 651 592 q 885 868 803 742 q 1030 1090 967 994 q 1132 1240 1093 1185 q 1172 1299 1171 1296 q 1194 1313 1181 1310 q 1221 1310 1208 1317 q 1238 1289 1233 1303 q 1236 1261 1243 1275 l 1197 1174 q 1161 1151 1186 1149 q 1007 921 1101 1064 q 804 603 913 778 q 1126 569 990 603 q 1331 714 1238 633 q 1492 880 1424 794 q 1597 1050 1560 965 q 1635 1208 1635 1135 q 1569 1349 1635 1300 q 1335 1408 1496 1408 q 994 1363 1149 1408 q 715 1248 839 1317 q 497 1098 590 1179 q 342 947 404 1017 q 247 831 279 878 q 214 783 215 785 q 192 766 207 769 q 164 769 176 763 q 147 792 150 778 q 150 821 143 807 q 185 872 151 822 q 284 996 218 922 q 449 1154 350 1069 q 678 1312 547 1239 q 974 1433 810 1385 q 1335 1482 1138 1482 q 1615 1408 1518 1482 m 799 529 q 778 529 788 529 q 757 528 768 529 q 726 477 742 503 q 694 425 710 451 q 860 456 779 433 q 1019 515 942 479 q 916 526 971 522 q 799 529 861 529 m 606 419 q 635 469 621 444 q 664 518 649 493 q 529 478 581 503 q 467 439 478 454 q 504 427 475 435 q 603 419 533 419 l 606 419 m 1258 440 q 1139 489 1204 471 q 903 391 1026 428 q 649 347 781 354 q 567 206 607 276 q 489 64 526 135 q 558 72 524 69 q 626 74 592 74 q 653 63 642 74 q 664 38 664 53 q 653 11 664 22 q 626 0 642 0 q 400 -28 501 0 q 226 -97 299 -56 q 113 -187 153 -139 q 74 -278 74 -236 q 126 -353 74 -324 q 332 -392 196 -392 q 622 -362 485 -392 q 876 -284 760 -333 q 1088 -169 993 -235 q 1248 -34 1182 -104 q 1349 108 1314 36 q 1385 244 1385 181 q 1258 440 1385 367 z "},"ﬀ":{"ha":1692,"x_min":0,"x_max":1933,"o":"m 1919 524 q 1932 497 1931 513 q 1924 471 1933 482 q 1886 431 1919 467 q 1792 346 1853 396 q 1645 238 1732 296 q 1447 128 1558 179 q 1199 40 1335 76 q 906 -4 1064 3 q 900 -17 903 -11 q 894 -29 897 -22 q 944 -172 917 -87 q 988 -347 971 -257 q 1006 -517 1006 -436 q 972 -649 1006 -599 q 850 -710 931 -710 q 728 -649 769 -710 q 693 -507 693 -597 q 727 -287 693 -411 q 814 -28 761 -162 q 806 -6 810 -17 q 797 17 801 6 q 800 51 789 33 q 831 68 813 68 l 854 68 q 894 156 874 113 q 936 243 915 200 q 810 169 883 208 q 648 94 738 129 q 453 32 558 58 q 229 -3 347 6 q 215 -34 222 -18 q 201 -65 208 -50 q 248 -208 224 -126 q 287 -372 272 -289 q 299 -528 301 -454 q 265 -649 296 -601 q 144 -710 225 -710 q 72 -692 99 -710 q 32 -656 46 -675 q 0 -528 0 -608 q 33 -318 0 -437 q 122 -64 67 -199 q 106 -22 114 -42 q 90 17 99 -3 q 94 51 83 35 q 125 68 107 68 q 152 68 139 68 q 179 69 165 68 q 216 147 197 108 q 254 225 235 186 q 257 231 254 228 q 347 402 301 318 q 438 561 393 486 q 510 677 464 604 q 613 833 556 750 q 736 1001 671 917 q 869 1155 801 1086 q 1000 1267 936 1224 q 1118 1310 1064 1310 q 1191 1292 1168 1310 q 1221 1254 1214 1274 q 1226 1217 1226 1239 q 1214 1161 1226 1194 q 1174 1082 1201 1128 q 1096 972 1146 1036 q 971 825 1046 908 q 789 633 896 742 q 631 477 710 553 q 488 341 553 401 q 377 240 422 281 q 318 188 332 200 q 264 75 289 131 q 553 140 422 93 q 783 240 685 188 q 940 338 881 293 q 1014 394 1000 382 q 1040 442 1028 418 q 1065 488 1053 465 q 1127 590 1088 526 q 1217 728 1167 654 q 1325 877 1267 801 q 1443 1013 1383 953 q 1563 1112 1503 1074 q 1675 1150 1622 1150 q 1733 1134 1717 1150 q 1754 1106 1750 1118 q 1760 1085 1757 1097 q 1756 1053 1763 1074 q 1731 1000 1750 1032 q 1674 920 1713 968 q 1574 806 1636 872 q 1419 651 1513 740 q 1306 544 1363 596 q 1201 449 1249 492 q 1117 376 1153 407 q 1068 333 1082 346 q 1000 203 1032 268 q 939 72 968 138 q 1208 121 1083 83 q 1435 208 1332 158 q 1617 311 1538 257 q 1752 411 1697 365 q 1836 488 1807 457 q 1867 519 1865 518 q 1893 532 1878 531 q 1919 524 1908 533 m 1675 1076 q 1576 1033 1633 1076 q 1454 917 1519 990 q 1318 743 1389 843 q 1179 529 1247 643 q 1368 705 1278 618 q 1528 865 1458 792 q 1640 994 1597 939 q 1685 1075 1682 1050 q 1675 1076 1682 1076 m 501 522 q 460 451 481 486 q 419 379 439 415 q 724 673 585 532 q 961 928 863 814 q 1110 1120 1060 1042 q 1151 1228 1161 1199 q 1142 1233 1150 1231 q 1118 1235 1135 1235 q 1010 1183 1076 1235 q 861 1036 943 1131 q 687 810 779 942 q 501 522 594 679 m 203 -607 q 224 -533 221 -581 q 220 -428 228 -486 q 197 -303 213 -369 q 160 -172 181 -237 q 97 -374 119 -283 q 75 -528 75 -464 q 93 -612 75 -586 q 110 -627 99 -619 q 144 -635 121 -635 q 185 -626 172 -635 q 203 -607 197 -617 m 910 -607 q 931 -526 929 -578 q 924 -410 933 -475 q 895 -275 914 -346 q 854 -136 876 -204 q 791 -341 814 -246 q 768 -507 768 -436 q 790 -607 768 -576 q 810 -626 797 -617 q 850 -635 822 -635 q 890 -626 878 -635 q 910 -607 903 -617 z "},"`":{"ha":357,"x_min":-3,"x_max":224,"o":"m 193 1200 q 216 1183 208 1196 q 219 1154 224 1169 q 206 1134 217 1142 q 183 1126 196 1126 q 178 1127 181 1126 q 174 1128 176 1128 q 86 1174 119 1142 q 34 1239 53 1206 q 8 1298 15 1272 q 0 1326 0 1324 q 6 1354 -3 1342 q 31 1369 15 1367 q 58 1363 46 1372 q 74 1339 71 1354 q 79 1319 74 1338 q 98 1278 85 1301 q 134 1232 111 1254 q 193 1200 157 1210 z "},"@":{"ha":1157,"x_min":0,"x_max":1296,"o":"m 1224 1022 q 1296 782 1296 931 q 1263 571 1296 681 q 1169 367 1229 461 q 1024 206 1104 263 q 863 150 944 150 q 779 170 807 150 q 740 211 751 190 q 724 274 725 239 q 733 350 724 310 q 639 253 689 300 q 537 169 589 206 q 433 110 485 132 q 331 88 381 88 q 283 97 301 88 q 257 117 265 107 q 232 189 232 143 q 251 278 232 226 q 303 383 271 329 q 380 490 336 438 q 472 585 424 543 q 569 652 519 626 q 667 678 619 678 q 717 668 694 678 q 759 643 740 658 q 792 609 778 628 q 817 572 806 590 q 852 619 836 597 q 879 660 868 642 q 881 661 881 660 q 904 678 889 675 q 932 672 919 681 q 949 649 946 664 q 943 621 951 633 q 942 619 943 619 q 883 520 913 575 q 831 413 853 465 q 801 315 810 360 q 806 246 793 269 q 819 233 808 242 q 863 224 829 224 q 985 270 921 224 q 1101 394 1049 317 q 1187 573 1153 472 q 1221 782 1221 674 q 1207 892 1221 843 q 1165 975 1193 942 q 979 1051 1106 1051 q 750 1008 863 1051 q 538 893 638 965 q 352 727 438 821 q 206 533 267 633 q 110 332 144 432 q 75 147 75 232 q 158 -64 75 11 q 450 -150 256 -150 q 597 -125 531 -150 q 710 -70 663 -100 q 785 -15 758 -40 q 811 11 811 11 q 838 24 822 22 q 864 14 853 25 q 876 -12 875 3 q 867 -39 878 -26 q 833 -71 864 -42 q 749 -134 803 -100 q 619 -196 694 -168 q 450 -224 543 -224 q 108 -119 225 -224 q 0 147 0 -22 q 39 363 0 250 q 146 583 78 475 q 307 790 214 692 q 509 964 400 889 q 738 1083 618 1039 q 979 1126 857 1126 q 1224 1022 1140 1126 m 331 163 q 436 194 379 163 q 551 276 493 226 q 664 388 608 326 q 767 507 719 449 q 751 538 761 521 q 729 569 742 554 q 701 594 717 583 q 667 604 685 604 q 592 581 632 604 q 512 522 551 558 q 435 440 472 486 q 369 349 397 394 q 324 260 340 303 q 307 189 307 218 q 311 168 307 172 q 331 163 315 163 z "},"€":{"ha":1157,"x_min":-3,"x_max":961,"o":"m 958 1076 q 951 1050 961 1061 q 925 1038 940 1039 q 898 1046 910 1036 q 885 1071 886 1056 q 876 1122 882 1093 q 858 1175 871 1150 q 824 1217 846 1200 q 769 1235 803 1235 q 689 1213 733 1235 q 597 1151 644 1192 q 500 1053 549 1111 q 406 924 451 996 q 510 928 454 928 q 631 922 567 929 q 656 909 646 921 q 664 882 667 897 q 651 857 663 867 q 624 849 639 847 q 478 853 546 856 q 358 844 411 851 q 315 758 335 803 q 278 667 296 714 q 261 620 268 643 q 247 574 254 597 q 372 581 306 579 q 514 576 439 583 q 540 563 529 575 q 549 536 550 551 q 535 511 547 521 q 508 503 524 501 q 358 506 429 508 q 226 497 286 504 q 207 301 203 388 q 244 165 211 214 q 324 124 275 124 q 416 151 365 124 q 521 228 467 178 q 547 238 532 239 q 574 226 563 238 q 584 200 585 215 q 572 174 583 185 q 324 49 439 49 q 183 124 235 49 q 135 276 143 182 q 149 486 126 369 q 74 473 101 479 q 46 467 47 467 q 42 466 43 467 q 38 465 40 465 q 15 474 25 465 q 1 494 4 482 q 5 523 -3 510 q 28 539 13 536 q 67 549 31 540 q 167 565 104 557 q 185 628 175 597 q 207 693 196 660 q 235 762 221 728 q 267 829 250 796 q 205 814 226 821 q 182 807 183 807 q 169 804 174 804 q 135 829 144 804 q 135 858 129 844 q 157 876 142 871 q 200 890 160 878 q 311 913 240 901 q 419 1074 361 1000 q 538 1199 478 1147 q 656 1281 597 1251 q 769 1310 715 1310 q 900 1248 850 1310 q 958 1076 950 1186 z "},"ˆ":{"ha":1157,"x_min":-1,"x_max":326,"o":"m 321 1169 q 320 1140 326 1154 q 299 1121 314 1126 q 286 1119 294 1119 q 251 1143 260 1119 l 206 1267 l 63 1129 q 36 1119 51 1118 q 10 1131 21 1119 q -1 1157 -1 1142 q 11 1183 0 1172 l 194 1360 q 229 1368 210 1372 q 256 1346 249 1363 l 321 1169 l 321 1169 z "},"“":{"ha":1157,"x_min":0,"x_max":317,"o":"m 292 1346 q 311 1340 306 1346 q 317 1328 317 1335 q 313 1317 317 1322 q 304 1313 308 1313 q 278 1301 289 1313 q 259 1275 267 1290 q 248 1241 251 1260 q 244 1208 244 1222 q 234 1176 244 1188 q 208 1164 224 1164 q 183 1175 190 1164 q 175 1201 175 1186 q 187 1252 175 1226 q 216 1299 199 1278 q 253 1333 233 1319 q 292 1346 274 1346 m 115 1346 q 135 1340 129 1346 q 141 1328 140 1335 q 138 1317 142 1322 q 129 1313 133 1313 q 102 1301 114 1313 q 83 1275 90 1290 q 72 1241 75 1260 q 68 1208 68 1222 q 58 1176 68 1188 q 33 1164 49 1164 q 7 1175 14 1164 q 0 1201 0 1186 q 12 1252 0 1226 q 41 1299 24 1278 q 78 1333 58 1319 q 115 1346 99 1346 z "},"”":{"ha":1157,"x_min":0,"x_max":317,"o":"m 108 1346 q 134 1335 126 1346 q 142 1308 142 1324 q 130 1258 142 1283 q 101 1211 118 1232 q 63 1177 83 1190 q 25 1164 43 1164 q 6 1169 11 1164 q 0 1180 0 1174 q 3 1192 0 1186 q 13 1197 7 1197 q 39 1208 28 1197 q 58 1235 50 1219 q 69 1268 65 1250 q 72 1301 72 1286 q 83 1334 72 1322 q 108 1346 93 1346 m 283 1346 q 310 1335 303 1346 q 317 1308 317 1324 q 305 1258 317 1283 q 276 1211 293 1232 q 238 1177 258 1190 q 201 1164 218 1164 q 182 1169 188 1164 q 176 1180 176 1174 q 179 1192 175 1186 q 188 1197 183 1197 q 215 1208 203 1197 q 234 1235 226 1219 q 245 1268 242 1250 q 249 1301 249 1286 q 258 1334 249 1322 q 283 1346 268 1346 z "},"Æ":{"ha":2694,"x_min":-1,"x_max":2771,"o":"m 2760 497 q 2769 469 2771 485 q 2754 444 2767 454 q 2697 401 2746 439 q 2570 306 2649 364 q 2389 177 2492 249 q 2169 32 2286 106 q 1929 -111 2053 -42 q 1685 -235 1806 -181 q 1453 -322 1564 -289 q 1250 -356 1342 -356 q 1207 -354 1235 -356 q 1150 -343 1179 -353 q 1080 -500 1114 -419 q 1004 -685 1046 -581 q 969 -707 996 -707 q 956 -704 961 -707 q 935 -685 942 -699 q 935 -657 929 -671 q 1015 -465 979 -549 q 1088 -300 1051 -381 q 1083 -291 1085 -296 q 1078 -281 1081 -286 q 1103 -146 1056 -224 q 1251 36 1151 -68 q 1305 146 1274 81 q 1369 281 1336 211 q 1433 417 1403 351 q 1483 528 1463 483 q 1337 511 1417 521 q 1170 489 1257 501 q 992 463 1083 476 q 813 436 901 450 q 599 225 704 331 q 397 20 493 119 q 216 -171 300 -79 q 65 -342 132 -262 q 38 -356 56 -356 q 13 -346 22 -356 q 0 -321 1 -336 q 8 -294 -1 -306 q 292 18 117 -164 q 688 417 467 200 q 533 391 604 403 q 403 369 461 379 q 418 351 414 363 q 418 328 422 339 q 405 308 415 315 q 383 301 394 301 q 372 303 376 301 l 235 346 q 215 360 222 350 q 208 383 207 371 q 218 406 210 396 q 239 418 226 415 q 293 427 247 419 q 413 447 339 435 q 581 474 486 458 q 781 506 675 489 q 931 649 854 576 q 1086 797 1007 722 q 1226 928 1150 857 q 1382 1070 1303 999 q 1540 1210 1461 1142 q 1685 1333 1618 1278 q 1805 1427 1753 1389 q 1885 1478 1857 1465 q 1903 1482 1893 1482 l 1911 1482 q 1942 1463 1931 1478 q 1949 1397 1957 1440 q 1911 1269 1942 1354 q 2056 1355 1981 1315 q 2206 1422 2131 1394 q 2356 1466 2282 1450 q 2501 1482 2431 1482 q 2537 1481 2514 1482 q 2584 1473 2560 1479 q 2628 1452 2608 1467 q 2657 1411 2649 1438 q 2643 1332 2667 1376 q 2574 1238 2619 1288 q 2469 1138 2529 1189 q 2347 1039 2410 1086 q 2224 951 2283 992 q 2121 883 2164 911 q 2094 878 2108 876 q 2072 892 2081 881 q 2063 917 2063 903 q 2075 942 2064 931 l 2142 1010 q 2185 1017 2161 1029 q 2349 1138 2274 1078 q 2478 1247 2424 1197 q 2561 1335 2532 1297 q 2585 1390 2590 1374 q 2571 1399 2581 1394 q 2546 1405 2563 1401 q 2501 1408 2529 1408 q 2287 1372 2399 1408 q 2068 1278 2175 1336 q 1865 1145 1961 1219 q 1697 994 1769 1071 q 1581 846 1624 918 q 1539 719 1539 774 q 1585 639 1539 667 q 1653 613 1611 621 l 1654 613 q 1708 603 1679 606 q 1772 601 1738 601 q 1819 588 1806 601 q 1838 565 1833 575 q 1835 518 1846 544 q 1792 453 1825 492 q 1702 360 1760 415 q 1560 228 1644 306 q 1469 145 1518 190 q 1373 53 1421 100 q 1281 -41 1325 6 q 1204 -128 1236 -87 q 1156 -202 1172 -169 q 1147 -254 1140 -235 q 1154 -262 1149 -257 l 1156 -262 q 1188 -275 1165 -269 q 1250 -281 1210 -281 q 1444 -247 1336 -281 q 1671 -159 1553 -214 q 1911 -35 1789 -104 q 2148 108 2033 35 q 2364 252 2263 182 q 2541 378 2465 322 q 2662 467 2617 433 q 2708 503 2707 501 q 2735 510 2719 513 q 2760 497 2750 508 m 906 525 q 1072 549 989 538 q 1232 572 1154 561 q 1380 590 1310 582 q 1508 604 1450 599 q 1464 719 1464 651 q 1489 828 1464 769 q 1559 947 1514 886 q 1666 1071 1604 1008 q 1801 1190 1728 1133 l 1803 1194 q 1819 1236 1810 1211 q 1839 1288 1829 1261 q 1858 1340 1849 1314 q 1872 1388 1867 1367 q 1723 1269 1822 1351 q 1494 1071 1624 1186 q 1213 815 1365 956 q 906 525 1061 675 m 1569 535 q 1541 475 1558 513 q 1501 390 1524 438 q 1455 291 1479 343 q 1407 188 1431 239 q 1456 234 1431 211 q 1510 282 1482 257 q 1584 350 1546 315 q 1656 418 1622 385 q 1717 479 1690 451 q 1757 526 1744 507 q 1643 539 1693 528 q 1569 535 1613 539 z "},"Œ":{"ha":2103,"x_min":0,"x_max":2176,"o":"m 2167 497 q 2174 469 2176 485 q 2161 444 2172 454 q 2104 401 2153 439 q 1977 306 2056 364 q 1795 177 1899 249 q 1576 32 1692 106 q 1335 -111 1460 -42 q 1091 -235 1211 -181 q 860 -322 971 -289 q 657 -356 749 -356 q 627 -355 646 -356 q 588 -351 608 -354 q 546 -339 567 -347 q 508 -315 525 -331 q 313 -360 404 -360 q 69 -265 151 -360 q 0 -36 0 -183 q 17 124 0 40 q 60 288 35 208 q 114 438 85 368 q 167 558 143 508 q 207 640 181 588 q 264 747 233 693 q 326 844 294 801 q 382 896 358 888 q 540 1171 442 1043 q 797 1401 657 1321 q 1078 1482 936 1482 q 1250 1432 1178 1482 q 1351 1292 1322 1382 q 1631 1429 1486 1376 q 1908 1482 1775 1482 q 1944 1481 1921 1482 q 1990 1473 1967 1479 q 2034 1452 2014 1467 q 2063 1411 2054 1438 q 2049 1332 2072 1376 q 1981 1238 2026 1288 q 1876 1138 1936 1189 q 1753 1039 1815 1086 q 1631 951 1690 992 q 1528 883 1571 911 q 1501 878 1515 876 q 1478 892 1488 881 q 1470 917 1469 903 q 1481 942 1471 931 l 1549 1010 q 1592 1017 1568 1029 q 1755 1138 1679 1078 q 1885 1247 1831 1197 q 1968 1335 1939 1297 q 1992 1390 1997 1374 q 1978 1399 1988 1394 q 1953 1405 1969 1401 q 1908 1408 1936 1408 q 1694 1372 1806 1408 q 1475 1278 1582 1336 q 1272 1145 1368 1219 q 1102 994 1175 1071 q 987 846 1029 918 q 944 719 944 774 q 990 639 944 668 q 1179 601 1050 601 q 1226 588 1213 601 q 1244 565 1240 575 q 1242 518 1253 544 q 1199 453 1232 492 q 1108 360 1165 415 q 965 228 1051 306 q 876 145 925 190 q 779 53 828 100 q 687 -41 731 6 q 611 -128 643 -87 q 563 -201 579 -168 q 553 -253 546 -233 q 554 -254 553 -254 q 581 -272 557 -264 q 657 -281 606 -281 q 851 -247 743 -281 q 1078 -159 960 -214 q 1318 -35 1196 -104 q 1555 108 1440 35 q 1771 252 1669 182 q 1948 378 1872 322 q 2068 467 2024 433 q 2115 503 2113 501 q 2142 510 2126 513 q 2167 497 2157 508 m 478 -247 q 508 -149 476 -204 q 597 -29 539 -94 q 735 114 654 36 q 915 282 817 192 q 990 350 951 315 q 1062 418 1028 385 q 1123 479 1096 451 q 1163 526 1150 507 q 951 575 1025 528 q 871 719 871 626 q 903 843 871 776 q 990 980 935 910 q 1122 1119 1046 1050 q 1286 1249 1199 1188 q 1213 1366 1268 1324 q 1078 1408 1158 1408 q 906 1372 990 1408 q 744 1272 821 1335 q 601 1127 667 1210 q 489 953 536 1044 q 415 765 442 861 q 388 582 388 669 q 463 357 388 439 q 711 268 544 268 q 737 257 726 268 q 747 231 747 246 q 737 204 747 215 q 711 193 726 193 q 417 294 521 193 q 314 582 314 396 q 317 641 314 611 q 325 703 319 671 q 261 581 296 650 q 194 434 226 511 q 134 276 161 357 q 91 117 107 194 q 74 -31 75 39 q 92 -156 72 -101 q 313 -285 139 -285 q 478 -247 392 -285 z "},"Ç":{"ha":1465,"x_min":0,"x_max":1663,"o":"m 1650 685 q 1662 659 1661 674 q 1651 633 1663 644 q 1601 581 1644 626 q 1487 468 1557 536 q 1324 315 1417 400 q 1124 140 1231 229 q 904 -35 1018 51 q 677 -190 790 -121 q 456 -304 564 -258 q 257 -360 349 -350 q 237 -400 246 -381 q 221 -435 228 -419 q 278 -451 256 -439 q 314 -479 301 -462 q 331 -515 326 -496 q 336 -553 336 -535 q 328 -597 336 -575 q 301 -637 319 -619 q 254 -665 283 -654 q 183 -676 225 -676 q 157 -666 168 -676 q 146 -640 146 -656 q 157 -614 146 -625 q 183 -603 168 -603 q 261 -553 261 -603 q 260 -537 261 -546 q 251 -523 258 -529 q 230 -512 244 -517 q 188 -508 215 -508 q 147 -486 161 -508 q 142 -474 144 -482 q 141 -453 140 -467 q 149 -417 142 -439 q 174 -360 157 -394 q 53 -306 96 -350 q 0 -154 0 -250 q 22 -10 0 -89 q 84 154 44 68 q 176 330 124 240 q 288 508 228 419 q 410 679 347 596 q 536 836 474 763 q 676 992 603 914 q 827 1142 750 1071 q 983 1276 904 1214 q 1139 1384 1063 1339 q 1286 1456 1215 1429 q 1419 1482 1357 1482 q 1497 1464 1472 1482 q 1529 1426 1521 1446 q 1535 1358 1542 1397 q 1508 1274 1528 1318 q 1458 1185 1488 1231 q 1399 1100 1429 1140 q 1342 1027 1369 1060 q 1299 976 1315 994 q 1275 964 1289 965 q 1250 971 1261 963 q 1235 992 1239 978 q 1238 1018 1231 1006 l 1283 1107 q 1325 1125 1297 1132 q 1386 1210 1358 1168 q 1433 1289 1414 1253 q 1459 1353 1451 1325 q 1461 1396 1467 1381 q 1444 1406 1457 1404 q 1419 1408 1431 1408 q 1240 1358 1340 1408 q 1031 1222 1140 1308 q 808 1022 921 1136 q 588 781 694 908 q 388 521 482 654 q 224 263 294 388 q 114 31 154 139 q 74 -154 74 -78 q 106 -253 74 -221 q 217 -287 140 -287 q 406 -247 301 -287 q 622 -137 510 -206 q 850 17 735 -69 q 1073 194 965 104 q 1276 372 1181 285 q 1442 527 1371 458 q 1554 639 1513 596 q 1597 683 1596 682 q 1624 695 1608 694 q 1650 685 1639 696 z "},"ç":{"ha":758,"x_min":-81,"x_max":849,"o":"m 832 525 q 847 500 844 515 q 838 474 849 485 q 806 438 833 469 q 731 360 778 406 q 621 261 685 314 q 481 163 557 208 q 321 85 406 117 q 147 50 236 54 q 127 10 136 29 q 113 -25 118 -10 q 170 -41 147 -29 q 206 -69 193 -53 q 223 -106 218 -86 q 228 -143 228 -125 q 219 -187 228 -165 q 193 -227 211 -210 q 146 -256 175 -244 q 74 -267 117 -267 q 48 -256 58 -267 q 38 -229 38 -244 q 48 -203 38 -214 q 74 -193 58 -193 q 153 -143 153 -193 q 151 -127 153 -135 q 143 -112 150 -119 q 122 -101 136 -106 q 79 -97 107 -97 q 39 -75 53 -97 q 34 -64 36 -71 q 33 -42 32 -57 q 42 -5 35 -28 q 67 54 49 18 q -42 115 -4 68 q -81 235 -81 161 q -47 385 -81 304 q 42 535 -12 467 q 165 650 97 604 q 301 696 233 696 q 367 680 346 696 q 397 647 389 664 q 406 581 411 618 q 384 510 400 544 q 349 445 368 475 q 321 401 331 415 q 296 387 311 389 q 268 393 281 385 q 253 418 256 403 q 260 446 251 433 q 291 494 276 468 q 316 543 306 519 q 331 585 326 567 q 331 613 335 604 q 301 621 326 621 q 202 585 257 621 q 99 488 147 550 q 22 357 50 425 q -7 235 -7 289 q 125 124 -7 124 q 288 153 207 124 q 440 226 368 182 q 574 320 513 269 q 682 415 636 371 q 753 488 728 458 q 781 519 779 518 q 806 534 790 532 q 832 525 821 536 z "},"æ":{"ha":1183,"x_min":-269,"x_max":1286,"o":"m 1271 525 q 1285 499 1283 514 q 1276 472 1286 485 q 1239 431 1272 468 q 1151 340 1206 393 q 1024 227 1097 288 q 867 115 951 167 q 692 30 783 64 q 511 -4 601 -4 q 368 42 418 -4 q 318 174 318 89 q 331 264 318 215 q 367 363 343 313 q 368 364 368 363 q 376 383 371 369 q 344 352 361 368 q 311 321 328 336 q 13 81 139 161 q -196 1 -114 1 q -249 22 -229 1 q -269 75 -269 42 q -239 177 -269 115 q -158 308 -208 239 q -44 447 -108 378 q 90 571 21 515 q 228 661 160 626 q 354 696 297 696 q 430 678 403 696 q 468 640 457 660 q 485 600 481 621 q 527 644 508 624 q 561 683 546 665 q 586 696 571 694 q 613 686 601 697 q 625 663 625 675 q 681 687 653 678 q 739 696 710 696 q 810 671 785 696 q 836 606 836 649 q 806 513 836 563 q 721 420 775 464 q 591 347 667 376 q 426 313 515 317 q 392 174 392 236 q 417 99 392 124 q 511 71 447 71 q 677 103 593 71 q 840 186 761 136 q 987 294 918 236 q 1107 401 1056 351 q 1188 485 1158 451 q 1219 521 1218 519 q 1244 533 1229 532 q 1271 525 1260 535 m 739 621 q 672 602 707 621 q 599 551 636 583 q 528 478 563 519 q 467 390 494 436 q 591 426 536 400 q 684 485 646 453 q 742 550 722 517 q 763 606 763 583 q 760 617 763 611 q 739 621 756 621 m -196 76 q -68 119 -143 76 q 91 228 7 163 q 260 374 175 294 q 415 528 344 454 q 416 569 418 550 q 406 600 414 588 q 391 614 401 607 q 354 621 381 621 q 250 590 308 621 q 131 508 192 558 q 10 393 69 457 q -96 265 -49 329 q -175 139 -154 186 q -196 76 -196 92 z "},"œ":{"ha":1060,"x_min":-142,"x_max":1158,"o":"m 1143 525 q 1156 499 1154 514 q 1147 472 1158 485 q 1110 431 1143 468 q 1023 340 1078 393 q 895 227 968 288 q 739 115 822 167 q 564 30 656 64 q 382 -4 472 -4 q 271 21 315 -4 q 206 92 226 46 q 97 22 153 47 q -4 -4 42 -4 q -124 71 -92 -4 q -135 174 -142 114 q -106 298 -129 235 q -49 420 -83 361 q 26 519 -14 479 q 51 531 38 531 q 76 522 65 531 q 77 530 76 526 q 79 538 78 533 q 144 654 99 613 q 251 696 189 696 q 285 692 265 696 q 326 677 306 689 q 364 642 346 665 q 393 582 382 619 q 439 623 414 603 q 492 660 464 643 q 549 686 519 676 q 611 696 579 696 q 682 671 654 696 q 708 606 708 647 q 678 513 708 563 q 593 420 647 464 q 463 347 539 376 q 297 313 388 317 q 273 241 282 276 q 264 174 264 206 q 289 99 264 124 q 382 71 319 71 q 548 103 464 71 q 710 186 632 136 q 858 294 789 236 q 978 401 926 351 q 1059 485 1029 451 q 1090 521 1089 519 q 1117 533 1101 532 q 1143 525 1132 535 m 611 621 q 543 602 579 621 q 471 551 507 583 q 400 478 435 519 q 338 390 365 436 q 462 426 407 400 q 555 485 517 453 q 613 550 593 517 q 633 606 633 583 q 631 617 633 614 q 611 621 628 621 m 189 176 q 190 178 189 178 q 94 301 124 225 q 68 454 65 378 q 7 368 35 418 q -38 268 -21 318 q -60 173 -56 218 q -54 100 -65 128 q -40 80 -50 89 q -4 71 -29 71 q 81 97 28 71 q 189 176 135 122 m 240 365 q 279 438 257 401 q 328 508 301 474 q 329 510 329 508 q 318 574 328 551 q 297 606 308 596 q 272 619 285 617 q 251 621 260 621 q 209 609 226 621 q 180 581 192 597 q 161 547 168 564 q 151 518 154 529 q 142 453 143 488 q 147 385 140 419 q 167 321 153 351 q 203 265 181 290 q 239 364 215 311 l 240 365 z "},"Ã":{"ha":1822,"x_min":-1,"x_max":2156,"o":"m 2140 1704 q 2153 1679 2151 1694 q 2144 1651 2156 1664 q 2075 1592 2108 1610 q 2010 1575 2042 1575 q 1928 1598 1965 1575 q 1863 1644 1892 1621 q 1815 1678 1835 1665 q 1776 1694 1794 1692 q 1738 1688 1757 1697 q 1697 1651 1719 1678 q 1672 1639 1688 1640 q 1644 1647 1657 1638 q 1632 1674 1633 1658 q 1640 1700 1631 1689 q 1719 1760 1681 1747 q 1791 1767 1757 1774 q 1855 1741 1825 1761 q 1908 1703 1885 1721 q 1960 1667 1938 1681 q 2002 1650 1982 1653 q 2042 1659 2022 1647 q 2088 1700 2063 1671 q 2114 1713 2099 1711 q 2140 1704 2129 1715 m 1658 558 q 1684 547 1674 558 q 1694 521 1694 536 q 1684 495 1694 506 q 1658 485 1674 485 q 1607 483 1636 485 q 1542 479 1578 482 q 1395 192 1469 340 q 1250 -106 1321 44 q 1117 -402 1179 -256 q 1006 -686 1054 -549 q 992 -704 1003 -697 q 971 -711 982 -711 q 958 -708 967 -711 q 937 -690 943 -703 q 936 -661 931 -676 q 1044 -385 983 -528 q 1173 -97 1106 -242 q 1313 193 1240 49 q 1456 474 1385 338 q 1305 460 1386 468 q 1137 444 1224 453 q 960 425 1050 435 q 785 406 871 415 q 578 201 679 303 q 384 4 476 100 q 210 -180 292 -92 q 65 -344 129 -268 q 38 -358 54 -358 q 13 -349 24 -358 q 0 -324 1 -339 q 8 -297 -1 -308 q 283 6 115 -171 q 665 392 451 182 q 528 376 592 383 q 411 363 464 369 q 419 325 425 346 q 383 300 410 300 q 372 301 376 300 l 235 344 q 215 358 222 347 q 208 383 207 369 q 219 405 210 396 q 240 417 228 414 q 292 423 249 418 q 403 436 335 428 q 563 455 472 444 q 753 476 653 465 q 916 634 832 554 q 1088 796 1000 714 q 1228 926 1151 856 q 1384 1069 1304 997 q 1542 1209 1464 1140 q 1688 1333 1621 1278 q 1808 1427 1756 1389 q 1888 1478 1860 1465 q 1906 1482 1896 1482 l 1914 1482 q 1958 1454 1943 1478 q 1965 1372 1975 1426 q 1913 1222 1954 1318 q 1800 982 1872 1126 q 1621 631 1728 838 q 1601 593 1610 611 q 1582 556 1592 575 q 1624 558 1604 558 q 1658 558 1643 558 m 872 490 q 1040 509 956 500 q 1206 526 1125 518 q 1360 540 1286 533 q 1496 551 1433 547 q 1525 608 1511 579 q 1554 665 1539 638 q 1672 894 1613 778 q 1781 1110 1732 1010 q 1860 1288 1829 1211 q 1894 1400 1892 1365 q 1813 1340 1868 1383 q 1683 1232 1758 1297 q 1513 1084 1607 1167 q 1315 906 1419 1001 q 1099 704 1211 810 q 872 490 986 599 z "},"Õ":{"ha":1504,"x_min":0,"x_max":1407,"o":"m 1392 1704 q 1405 1679 1403 1694 q 1396 1651 1407 1664 q 1326 1592 1360 1610 q 1261 1575 1293 1575 q 1180 1598 1217 1575 q 1114 1644 1143 1621 q 1066 1678 1086 1665 q 1027 1694 1046 1692 q 990 1688 1008 1697 q 949 1651 971 1678 q 924 1639 939 1640 q 896 1647 908 1638 q 883 1674 885 1658 q 892 1700 882 1689 q 970 1760 932 1747 q 1042 1767 1008 1774 q 1106 1741 1076 1761 q 1160 1703 1136 1721 q 1211 1667 1189 1681 q 1253 1650 1233 1653 q 1294 1659 1274 1647 q 1339 1700 1314 1671 q 1365 1713 1350 1711 q 1392 1704 1381 1715 m 1308 1378 q 1376 1125 1376 1288 q 1351 913 1376 1028 q 1281 674 1326 797 q 1172 426 1235 551 q 1033 186 1108 301 q 870 -29 957 71 q 691 -203 783 -129 q 503 -321 599 -278 q 314 -364 407 -364 q 69 -269 151 -364 q 0 -40 0 -187 q 17 120 0 36 q 60 284 35 204 q 115 435 86 364 q 168 556 144 506 q 192 604 176 574 q 225 670 207 635 q 264 742 243 706 q 306 811 285 779 q 346 865 326 843 q 381 893 365 886 q 501 1113 428 1007 q 667 1301 575 1219 q 864 1432 758 1383 q 1079 1481 969 1481 q 1308 1378 1231 1481 m 314 -290 q 487 -249 399 -290 q 660 -137 575 -208 q 826 31 746 -65 q 978 238 907 128 q 1110 466 1050 347 q 1213 701 1169 585 q 1279 926 1256 818 q 1303 1125 1303 1035 q 1249 1333 1303 1263 q 1079 1407 1193 1407 q 907 1370 992 1407 q 745 1271 822 1333 q 603 1126 668 1208 q 490 951 538 1043 q 416 763 443 858 q 389 579 389 667 q 401 469 389 525 q 449 367 414 413 q 548 293 485 322 q 711 264 611 264 q 738 253 726 264 q 749 228 749 243 q 738 201 749 213 q 711 190 726 190 q 417 292 521 190 q 314 579 314 393 q 325 699 314 635 q 260 576 294 644 q 194 430 226 507 q 134 271 161 353 q 91 112 107 189 q 74 -36 75 35 q 92 -161 72 -107 q 314 -290 139 -290 z "},"õ":{"ha":857,"x_min":-140,"x_max":951,"o":"m 593 900 q 606 875 604 890 q 597 847 608 860 q 528 788 561 806 q 463 771 494 771 q 381 794 418 771 q 315 840 344 817 q 267 874 288 861 q 228 890 247 888 q 191 883 210 893 q 150 847 172 874 q 125 835 140 836 q 97 843 110 833 q 85 869 86 854 q 93 896 83 885 q 172 956 133 943 q 244 963 210 969 q 308 937 278 957 q 361 899 338 917 q 413 863 390 876 q 455 846 435 849 q 495 855 475 843 q 540 896 515 867 q 567 909 551 907 q 593 900 582 911 m 935 526 q 949 502 947 517 q 943 475 951 488 q 919 445 940 472 q 861 380 899 418 q 771 298 824 342 q 652 217 718 254 q 508 156 586 181 q 343 132 431 132 q 263 143 300 132 q 260 140 261 142 q 257 138 260 139 q 126 34 196 72 q -3 -4 56 -4 q -122 71 -90 -4 q -134 174 -140 114 q -105 298 -128 235 q -47 420 -82 361 q 28 519 -12 479 q 53 531 39 531 q 78 522 67 532 q 113 613 89 575 q 174 674 138 653 q 253 696 210 696 q 365 641 325 696 q 406 489 406 586 q 314 208 406 340 q 328 206 321 207 q 343 206 336 206 q 491 228 421 206 q 621 286 561 251 q 729 361 681 321 q 811 436 778 401 q 863 494 844 471 q 882 518 882 517 q 907 533 892 531 q 935 526 922 536 m -3 69 q 89 98 36 69 q 192 176 142 126 q 99 294 129 221 q 69 443 69 367 l 69 454 q 8 367 36 417 q -37 267 -19 318 q -59 172 -54 217 q -53 99 -64 126 q -38 78 -49 88 q -3 69 -28 69 m 242 233 q 306 351 281 286 q 331 489 331 415 q 328 535 331 511 q 317 577 325 558 q 293 608 308 596 q 253 621 278 621 q 175 572 207 621 q 151 514 160 549 q 143 443 143 479 q 148 389 143 418 q 164 331 153 360 q 194 277 175 303 q 242 233 214 251 z "},"ñ":{"ha":1204,"x_min":-258,"x_max":1292,"o":"m 710 900 q 723 875 721 890 q 714 847 725 860 q 644 788 678 806 q 579 771 611 771 q 498 794 535 771 q 432 840 461 817 q 384 874 404 861 q 345 890 364 888 q 308 883 326 893 q 267 847 289 874 q 242 835 257 836 q 214 843 226 833 q 201 869 203 854 q 210 896 200 885 q 288 956 250 943 q 360 963 326 969 q 424 937 394 957 q 478 899 454 917 q 529 863 507 876 q 572 846 551 849 q 612 855 592 843 q 657 896 632 867 q 683 909 668 907 q 710 900 699 911 m 1276 522 q 1290 497 1289 513 q 1282 469 1292 482 q 1249 432 1278 465 q 1172 351 1221 399 q 1056 251 1122 304 q 912 151 990 197 q 746 75 833 106 q 567 44 658 44 q 413 110 454 44 q 390 186 390 143 q 401 278 389 229 q 433 378 413 326 q 475 478 454 429 q 492 516 483 496 q 507 555 500 536 q 519 590 514 574 q 526 618 525 607 q 470 592 503 614 q 398 539 438 571 q 315 467 358 507 q 229 383 272 426 q 145 299 186 340 q 69 221 104 257 q -37 110 6 154 q -109 42 -81 67 q -156 7 -137 17 q -187 -3 -174 -3 q -247 32 -231 -3 q -244 99 -258 56 q -201 198 -231 143 q -127 316 -171 253 q -35 444 -83 379 q 62 569 13 508 q 153 679 111 629 q 178 693 163 692 q 206 685 193 694 q 219 658 217 674 q 210 632 221 643 q 60 446 128 533 q -56 288 -7 358 q -135 164 -104 217 q -175 83 -165 111 q -137 117 -160 96 q -90 163 -115 138 q -36 217 -64 189 q 17 272 -8 246 q 183 442 106 364 q 324 575 260 519 q 442 662 389 631 q 535 693 494 693 q 572 683 560 693 q 590 665 585 674 q 595 581 613 633 q 543 449 578 528 q 508 366 526 410 q 478 281 490 322 q 464 206 467 240 q 475 150 461 171 q 567 119 496 119 q 730 149 649 119 q 883 222 811 178 q 1018 317 956 265 q 1126 412 1081 368 q 1197 485 1171 456 q 1224 517 1222 515 q 1250 531 1235 529 q 1276 522 1265 532 z "},"ã":{"ha":1189,"x_min":-272,"x_max":1286,"o":"m 676 900 q 690 875 688 890 q 681 847 692 860 q 611 788 644 806 q 546 771 578 771 q 465 794 501 771 q 399 840 428 817 q 351 874 371 861 q 312 890 331 888 q 274 883 293 893 q 233 847 256 874 q 208 835 224 836 q 181 843 193 833 q 168 869 169 854 q 176 896 167 885 q 255 956 217 943 q 327 963 293 969 q 391 937 361 957 q 444 899 421 917 q 496 863 474 876 q 538 846 518 849 q 578 855 558 843 q 624 896 599 867 q 650 909 635 907 q 676 900 665 911 m 1269 524 q 1284 499 1282 514 q 1275 472 1286 483 q 1242 435 1271 468 q 1165 354 1214 401 q 1050 253 1117 307 q 906 153 983 199 q 740 78 828 108 q 561 47 653 47 q 389 131 432 47 q 370 246 363 179 q 401 382 378 313 q 406 399 404 390 q 411 417 408 408 q 260 274 342 347 q 96 139 178 200 q -62 39 14 78 q -199 0 -139 0 q -252 20 -232 0 q -272 74 -272 40 q -242 176 -272 114 q -161 307 -211 238 q -46 445 -111 376 q 89 569 19 514 q 226 660 158 625 q 353 694 294 694 q 427 677 400 694 q 467 640 454 660 q 478 622 474 631 q 486 601 482 613 q 525 645 507 625 q 558 682 543 665 q 584 694 569 693 q 610 686 599 696 q 623 663 621 678 q 618 636 625 649 q 538 505 579 581 q 471 354 497 429 q 458 314 461 322 q 442 230 444 268 q 454 165 440 192 q 461 153 456 161 q 478 139 467 146 q 510 126 490 132 q 561 121 529 121 q 724 150 643 121 q 877 223 804 179 q 1012 318 950 267 q 1119 414 1074 369 q 1191 488 1165 458 q 1218 519 1217 518 q 1243 533 1228 531 q 1269 524 1258 535 m -199 75 q -69 119 -146 75 q 94 232 8 164 q 265 381 179 300 q 424 536 351 463 q 406 597 421 575 q 389 613 400 604 q 353 621 378 621 q 248 590 307 621 q 128 507 189 558 q 8 392 67 456 q -99 264 -51 328 q -178 138 -157 185 q -199 75 -199 90 z "},"Á":{"ha":1822,"x_min":-1,"x_max":2143,"o":"m 2076 1782 q 2103 1794 2088 1793 q 2129 1785 2118 1796 q 2142 1758 2140 1774 q 2132 1732 2143 1743 l 1999 1588 q 1972 1575 1988 1575 q 1947 1585 1960 1575 q 1935 1611 1936 1596 q 1944 1638 1933 1626 l 2076 1782 m 1658 558 q 1684 547 1674 558 q 1694 521 1694 536 q 1684 495 1694 506 q 1658 485 1674 485 q 1607 483 1636 485 q 1542 479 1578 482 q 1395 192 1469 340 q 1250 -106 1321 44 q 1117 -402 1179 -256 q 1006 -686 1054 -549 q 992 -704 1003 -697 q 971 -711 982 -711 q 958 -708 967 -711 q 937 -690 943 -703 q 936 -661 931 -676 q 1044 -385 983 -528 q 1173 -97 1106 -242 q 1313 193 1240 49 q 1456 474 1385 338 q 1305 460 1386 468 q 1137 444 1224 453 q 960 425 1050 435 q 785 406 871 415 q 578 201 679 303 q 384 4 476 100 q 210 -180 292 -92 q 65 -344 129 -268 q 38 -358 54 -358 q 13 -349 24 -358 q 0 -324 1 -339 q 8 -297 -1 -308 q 283 6 115 -171 q 665 392 451 182 q 528 376 592 383 q 411 363 464 369 q 419 325 425 346 q 383 300 410 300 q 372 301 376 300 l 235 344 q 215 358 222 347 q 208 383 207 369 q 219 405 210 396 q 240 417 228 414 q 292 423 249 418 q 403 436 335 428 q 563 455 472 444 q 753 476 653 465 q 916 634 832 554 q 1088 796 1000 714 q 1228 926 1151 856 q 1384 1069 1304 997 q 1542 1209 1464 1140 q 1688 1333 1621 1278 q 1808 1427 1756 1389 q 1888 1478 1860 1465 q 1906 1482 1896 1482 l 1914 1482 q 1958 1454 1943 1478 q 1965 1372 1975 1426 q 1913 1222 1954 1318 q 1800 982 1872 1126 q 1621 631 1728 838 q 1601 593 1610 611 q 1582 556 1592 575 q 1624 558 1604 558 q 1658 558 1643 558 m 872 490 q 1040 509 956 500 q 1206 526 1125 518 q 1360 540 1286 533 q 1496 551 1433 547 q 1525 608 1511 579 q 1554 665 1539 638 q 1672 894 1613 778 q 1781 1110 1732 1010 q 1860 1288 1829 1211 q 1894 1400 1892 1365 q 1813 1340 1868 1383 q 1683 1232 1758 1297 q 1513 1084 1607 1167 q 1315 906 1419 1001 q 1099 704 1211 810 q 872 490 986 599 z "},"É":{"ha":1628,"x_min":-10,"x_max":1701,"o":"m 1425 1782 q 1451 1794 1436 1793 q 1478 1785 1467 1796 q 1490 1758 1489 1774 q 1481 1732 1492 1743 l 1347 1588 q 1321 1575 1336 1575 q 1296 1585 1308 1575 q 1283 1611 1285 1596 q 1293 1638 1282 1626 l 1425 1782 m 1692 496 q 1699 468 1701 483 q 1685 443 1697 453 q 1628 400 1678 438 q 1501 305 1579 363 q 1319 176 1422 247 q 1100 31 1217 104 q 859 -113 983 -43 q 615 -237 735 -183 q 383 -325 494 -292 q 179 -358 271 -358 q 141 -357 165 -358 q 90 -349 117 -356 q 41 -326 64 -342 q 7 -283 18 -311 q 15 -184 -10 -240 q 97 -58 39 -128 q 243 97 156 13 q 439 281 331 181 q 513 349 475 314 q 585 417 551 383 q 647 478 619 450 q 686 525 674 506 q 474 574 550 526 q 393 718 393 625 q 440 871 393 788 q 565 1039 486 954 q 749 1203 644 1124 q 968 1345 853 1283 q 1203 1444 1083 1407 q 1432 1482 1322 1482 q 1467 1481 1444 1482 q 1515 1473 1490 1479 q 1559 1452 1539 1467 q 1588 1411 1579 1438 q 1574 1332 1597 1376 q 1505 1238 1550 1288 q 1400 1138 1460 1189 q 1277 1039 1340 1086 q 1154 951 1214 992 q 1051 883 1094 911 q 1025 878 1039 875 q 1001 892 1011 881 q 994 916 993 903 q 1004 940 994 929 l 1072 1008 q 1092 1019 1081 1018 q 1115 1015 1104 1021 q 1280 1136 1204 1076 q 1410 1247 1356 1196 q 1493 1335 1464 1297 q 1517 1390 1522 1372 q 1503 1399 1513 1394 q 1476 1405 1493 1401 q 1432 1408 1460 1408 q 1217 1372 1328 1408 q 999 1278 1106 1336 q 795 1144 892 1219 q 626 993 699 1069 q 510 844 553 917 q 468 718 468 772 q 514 638 468 665 q 703 600 572 600 q 750 587 736 600 q 767 564 764 574 q 765 517 775 543 q 722 451 754 490 q 631 358 689 413 q 489 225 574 304 q 399 142 447 188 q 301 50 350 97 q 209 -44 253 3 q 133 -131 165 -90 q 85 -205 101 -172 q 76 -257 68 -237 q 103 -275 79 -267 q 179 -283 128 -283 q 374 -250 265 -283 q 600 -162 482 -217 q 841 -37 718 -107 q 1078 106 964 33 q 1294 250 1193 179 q 1472 376 1396 321 q 1592 466 1547 432 q 1639 501 1638 500 q 1667 509 1651 511 q 1692 496 1682 507 z "},"Í":{"ha":1157,"x_min":-3,"x_max":1531,"o":"m 1406 1782 q 1432 1794 1417 1793 q 1458 1785 1447 1796 q 1471 1758 1469 1774 q 1461 1732 1472 1743 l 1328 1588 q 1301 1575 1317 1575 q 1276 1585 1289 1575 q 1264 1611 1265 1596 q 1274 1638 1263 1626 l 1406 1782 m 1493 1482 q 1519 1472 1508 1482 q 1531 1446 1531 1461 q 1519 1419 1531 1431 q 1493 1408 1508 1408 q 1378 1407 1431 1408 q 1281 1403 1325 1406 q 1238 1335 1267 1382 q 1160 1204 1210 1288 q 1040 997 1111 1121 q 869 697 968 872 q 642 288 771 521 q 351 -243 514 56 q 494 -239 418 -239 q 521 -250 510 -239 q 532 -276 532 -261 q 521 -302 532 -292 q 494 -312 510 -312 q 398 -315 444 -312 q 308 -322 351 -318 q 302 -333 306 -328 q 296 -344 299 -337 q 264 -364 285 -364 q 246 -360 254 -364 q 226 -331 229 -349 q 95 -352 143 -342 q 46 -362 47 -362 q 38 -364 43 -364 q 15 -356 25 -364 q 1 -336 4 -349 q 5 -308 -3 -321 q 28 -290 13 -294 q 95 -276 32 -289 q 263 -251 158 -262 q 530 237 410 19 q 745 625 650 454 q 913 924 840 796 q 1038 1144 985 1051 q 1128 1298 1092 1238 q 1188 1396 1165 1358 q 1033 1372 1079 1385 q 985 1360 986 1360 q 972 1358 981 1358 q 938 1382 946 1358 q 938 1410 932 1396 q 958 1429 943 1424 q 976 1435 960 1429 q 1025 1447 992 1440 q 1112 1462 1058 1454 q 1240 1475 1165 1469 q 1283 1476 1261 1489 q 1380 1481 1328 1479 q 1493 1482 1432 1482 z "},"Ú":{"ha":1369,"x_min":-11,"x_max":1658,"o":"m 1307 1782 q 1333 1794 1318 1793 q 1360 1785 1349 1796 q 1372 1758 1371 1774 q 1363 1732 1374 1743 l 1229 1588 q 1203 1575 1218 1575 q 1178 1585 1190 1575 q 1165 1611 1167 1596 q 1175 1638 1164 1626 l 1307 1782 m 1650 1465 q 1658 1438 1658 1453 q 1634 1365 1658 1415 q 1568 1246 1610 1315 q 1472 1092 1526 1176 q 1354 919 1417 1008 q 1226 740 1292 829 q 1100 568 1161 650 q 950 243 1024 413 q 811 -101 876 74 q 792 -123 806 -117 q 764 -124 779 -129 q 742 -105 749 -118 q 742 -76 736 -92 q 813 110 775 15 q 894 301 851 204 q 692 58 794 176 q 494 -154 589 -61 q 319 -303 399 -247 q 185 -360 239 -360 q 82 -334 118 -360 q 31 -281 46 -308 q 6 -71 -11 -210 q 101 282 22 68 q 322 790 179 496 q 674 1464 464 1083 q 694 1481 681 1476 q 721 1479 707 1486 q 740 1461 733 1474 q 742 1435 746 1449 l 707 1328 q 693 1308 704 1315 q 669 1301 682 1300 q 172 258 317 646 q 94 -243 26 -129 q 122 -271 103 -257 q 185 -285 140 -285 q 278 -242 215 -285 q 439 -105 342 -200 q 669 144 536 -10 q 972 521 801 297 q 1006 566 989 544 q 1039 610 1022 588 q 1135 796 1086 704 q 1233 976 1183 888 q 1338 1153 1283 1063 q 1445 1316 1393 1243 q 1542 1435 1497 1389 q 1615 1482 1586 1482 q 1650 1465 1638 1482 z "},"Ý":{"ha":1446,"x_min":-1,"x_max":1596,"o":"m 1158 1782 q 1185 1794 1169 1793 q 1211 1785 1200 1796 q 1224 1758 1222 1774 q 1214 1732 1225 1743 l 1081 1588 q 1054 1575 1069 1575 q 1029 1585 1042 1575 q 1017 1611 1018 1596 q 1026 1638 1015 1626 l 1158 1782 m 1449 511 q 1475 523 1460 522 q 1501 513 1490 524 q 1513 486 1513 501 q 1501 460 1513 471 q 1349 325 1435 393 q 1166 190 1263 257 q 965 59 1069 124 q 760 -65 861 -6 q 627 -244 694 -162 q 490 -385 560 -326 q 348 -478 419 -444 q 204 -511 276 -511 q 176 -510 193 -511 q 140 -505 158 -510 q 108 -490 122 -500 q 89 -461 94 -481 q 103 -404 82 -435 q 180 -332 124 -374 q 329 -234 236 -290 q 558 -97 422 -178 q 631 -55 594 -76 q 707 -11 668 -33 q 850 228 781 101 q 985 486 919 356 q 841 351 914 413 q 696 244 768 289 q 553 173 624 199 q 417 147 482 147 q 288 207 326 147 q 264 315 260 250 q 293 458 268 379 q 358 628 318 538 q 442 815 397 719 q 498 940 468 874 q 550 1065 528 1006 q 582 1169 572 1124 q 581 1233 592 1215 q 576 1237 581 1235 q 560 1239 572 1239 q 458 1211 514 1239 q 347 1141 403 1183 q 238 1047 292 1099 q 143 950 185 996 q 129 911 150 928 l 60 857 q 35 848 49 847 q 11 860 21 849 q -1 885 0 871 q 8 910 -1 899 q 38 945 11 914 q 107 1022 64 976 q 205 1118 150 1067 q 319 1213 260 1169 q 441 1285 379 1256 q 560 1314 503 1314 q 615 1301 596 1314 q 644 1272 635 1288 q 660 1199 663 1243 q 639 1094 658 1154 q 585 956 619 1033 q 508 783 551 878 q 438 625 474 707 q 375 469 401 543 q 340 337 349 396 q 350 247 331 278 q 366 233 353 243 q 417 222 379 222 q 558 256 481 222 q 722 353 635 289 q 903 510 808 417 q 1096 722 997 603 q 1101 728 1099 725 q 1106 733 1103 731 q 1189 913 1149 826 q 1317 1183 1264 1074 q 1409 1358 1369 1292 q 1479 1453 1449 1425 q 1539 1482 1510 1482 q 1583 1460 1569 1482 q 1596 1419 1596 1444 q 1563 1307 1596 1383 q 1473 1131 1531 1231 q 1337 917 1415 1032 q 1167 690 1258 803 q 1014 377 1093 535 q 847 74 935 219 q 1018 181 933 126 q 1181 291 1103 236 q 1326 401 1258 346 q 1449 511 1394 457 m 1515 1383 q 1478 1328 1499 1363 q 1433 1249 1457 1294 q 1385 1152 1410 1204 q 1333 1044 1360 1100 q 1453 1246 1407 1157 q 1515 1383 1500 1335 m 204 -437 q 403 -361 303 -437 q 601 -160 503 -285 q 599 -160 600 -160 q 597 -161 599 -161 q 463 -240 531 -200 q 336 -317 394 -281 q 234 -385 278 -354 q 172 -435 190 -415 q 204 -437 186 -437 z "},"Ó":{"ha":1504,"x_min":0,"x_max":1376,"o":"m 1190 1782 q 1217 1794 1201 1793 q 1243 1785 1232 1796 q 1256 1758 1254 1774 q 1246 1732 1257 1743 l 1113 1588 q 1086 1575 1101 1575 q 1061 1585 1074 1575 q 1049 1611 1050 1596 q 1058 1638 1047 1626 l 1190 1782 m 1308 1378 q 1376 1125 1376 1288 q 1351 913 1376 1028 q 1281 674 1326 797 q 1172 426 1235 551 q 1033 186 1108 301 q 870 -29 957 71 q 691 -203 783 -129 q 503 -321 599 -278 q 314 -364 407 -364 q 69 -269 151 -364 q 0 -40 0 -187 q 17 120 0 36 q 60 284 35 204 q 115 435 86 364 q 168 556 144 506 q 192 604 176 574 q 225 670 207 635 q 264 742 243 706 q 306 811 285 779 q 346 865 326 843 q 381 893 365 886 q 501 1113 428 1007 q 667 1301 575 1219 q 864 1432 758 1383 q 1079 1481 969 1481 q 1308 1378 1231 1481 m 314 -290 q 487 -249 399 -290 q 660 -137 575 -208 q 826 31 746 -65 q 978 238 907 128 q 1110 466 1050 347 q 1213 701 1169 585 q 1279 926 1256 818 q 1303 1125 1303 1035 q 1249 1333 1303 1263 q 1079 1407 1193 1407 q 907 1370 992 1407 q 745 1271 822 1333 q 603 1126 668 1208 q 490 951 538 1043 q 416 763 443 858 q 389 579 389 667 q 401 469 389 525 q 449 367 414 413 q 548 293 485 322 q 711 264 611 264 q 738 253 726 264 q 749 228 749 243 q 738 201 749 213 q 711 190 726 190 q 417 292 521 190 q 314 579 314 393 q 325 699 314 635 q 260 576 294 644 q 194 430 226 507 q 134 271 161 353 q 91 112 107 189 q 74 -36 75 35 q 92 -161 72 -107 q 314 -290 139 -290 z "},"Ñ":{"ha":1747,"x_min":-3,"x_max":2274,"o":"m 1932 1704 q 1945 1679 1943 1694 q 1936 1651 1947 1664 q 1867 1592 1900 1610 q 1801 1575 1833 1575 q 1720 1598 1757 1575 q 1654 1644 1683 1621 q 1606 1678 1626 1665 q 1567 1694 1586 1692 q 1530 1688 1549 1697 q 1489 1651 1511 1678 q 1464 1639 1479 1640 q 1436 1647 1449 1638 q 1424 1674 1425 1658 q 1432 1700 1422 1689 q 1510 1760 1472 1747 q 1583 1767 1549 1774 q 1647 1741 1617 1761 q 1700 1703 1676 1721 q 1751 1667 1729 1681 q 1794 1650 1774 1653 q 1834 1659 1814 1647 q 1879 1700 1854 1671 q 1906 1713 1890 1711 q 1932 1704 1921 1715 m 2236 1481 q 2263 1470 2251 1481 q 2274 1444 2274 1460 q 2263 1418 2274 1429 q 2236 1407 2251 1407 q 2137 1370 2190 1407 q 2024 1269 2083 1333 q 1902 1119 1965 1206 q 1776 934 1839 1033 q 1650 728 1713 835 q 1528 515 1588 621 q 1417 310 1469 410 q 1319 126 1364 210 q 1211 -77 1251 -3 q 1147 -189 1171 -151 q 1108 -237 1122 -226 q 1079 -247 1093 -247 q 1050 -235 1060 -247 q 1041 -219 1044 -229 q 1037 -189 1038 -210 q 1038 -131 1036 -168 q 1045 -33 1040 -94 q 1059 117 1050 28 q 1081 332 1068 206 q 1097 499 1088 408 q 1115 683 1106 590 q 1131 868 1124 776 q 1143 1039 1139 960 q 1149 1179 1147 1118 q 1146 1275 1150 1240 q 1039 1141 1108 1236 q 879 913 969 1046 q 684 622 789 781 q 472 295 579 463 q 261 -36 365 128 q 68 -342 157 -200 q 38 -360 58 -360 q 18 -354 25 -360 q 1 -331 4 -346 q 6 -303 -3 -317 q 27 -268 6 -301 q 85 -177 49 -235 q 170 -41 121 -119 q 278 129 219 38 q 401 322 336 221 q 532 525 465 422 q 767 881 669 736 q 932 1119 865 1025 q 1040 1263 999 1213 q 1104 1337 1081 1314 q 1140 1364 1128 1360 q 1160 1368 1151 1368 q 1196 1351 1181 1368 q 1219 1263 1214 1331 q 1219 1072 1225 1196 q 1197 764 1214 949 q 1154 324 1181 579 q 1142 208 1149 267 q 1131 94 1136 150 q 1121 -10 1125 39 q 1114 -99 1117 -60 q 1178 20 1142 -49 q 1254 161 1215 89 q 1431 491 1342 328 q 1606 801 1519 654 q 1778 1072 1693 947 q 1942 1287 1863 1196 q 2096 1429 2022 1378 q 2236 1481 2169 1481 z "},"á":{"ha":1189,"x_min":-272,"x_max":1286,"o":"m 535 979 q 561 992 546 990 q 588 982 576 993 q 600 956 599 971 q 590 929 601 940 l 457 785 q 431 772 446 772 q 406 782 418 772 q 393 808 394 793 q 403 835 392 824 l 535 979 m 1269 524 q 1284 499 1282 514 q 1275 472 1286 483 q 1242 435 1271 468 q 1165 354 1214 401 q 1050 253 1117 307 q 906 153 983 199 q 740 78 828 108 q 561 47 653 47 q 389 131 432 47 q 370 246 363 179 q 401 382 378 313 q 406 399 404 390 q 411 417 408 408 q 260 274 342 347 q 96 139 178 200 q -62 39 14 78 q -199 0 -139 0 q -252 20 -232 0 q -272 74 -272 40 q -242 176 -272 114 q -161 307 -211 238 q -46 445 -111 376 q 89 569 19 514 q 226 660 158 625 q 353 694 294 694 q 427 677 400 694 q 467 640 454 660 q 478 622 474 631 q 486 601 482 613 q 525 645 507 625 q 558 682 543 665 q 584 694 569 693 q 610 686 599 696 q 623 663 621 678 q 618 636 625 649 q 538 505 579 581 q 471 354 497 429 q 458 314 461 322 q 442 230 444 268 q 454 165 440 192 q 461 153 456 161 q 478 139 467 146 q 510 126 490 132 q 561 121 529 121 q 724 150 643 121 q 877 223 804 179 q 1012 318 950 267 q 1119 414 1074 369 q 1191 488 1165 458 q 1218 519 1217 518 q 1243 533 1228 531 q 1269 524 1258 535 m -199 75 q -69 119 -146 75 q 94 232 8 164 q 265 381 179 300 q 424 536 351 463 q 406 597 421 575 q 389 613 400 604 q 353 621 378 621 q 248 590 307 621 q 128 507 189 558 q 8 392 67 456 q -99 264 -51 328 q -178 138 -157 185 q -199 75 -199 90 z "},"é":{"ha":760,"x_min":-117,"x_max":853,"o":"m 410 979 q 436 992 421 990 q 463 982 451 993 q 475 956 474 971 q 465 929 476 940 l 332 785 q 306 772 321 772 q 281 782 293 772 q 268 808 269 793 q 278 835 267 824 l 410 979 m 838 525 q 851 499 849 514 q 842 472 853 483 q 805 431 838 468 q 717 340 772 393 q 590 226 663 286 q 433 114 517 165 q 258 28 350 63 q 76 -6 167 -6 q -66 41 -15 -6 q -117 174 -117 88 q -103 263 -117 215 q -67 363 -90 311 q -65 365 -67 363 q -26 438 -49 401 q 22 507 -4 474 q 67 560 39 528 q 133 622 96 592 q 215 673 171 651 q 306 694 258 694 q 375 671 349 694 q 403 606 403 646 q 372 513 403 563 q 287 419 342 463 q 156 346 232 376 q -8 311 81 315 q -33 240 -24 275 q -42 174 -42 206 q -17 99 -42 124 q 76 69 10 69 q 242 103 158 69 q 405 185 326 136 q 552 293 483 235 q 672 401 621 351 q 753 485 724 451 q 785 519 783 518 q 810 533 796 531 q 838 525 825 535 m 306 621 q 238 602 274 621 q 165 551 201 583 q 94 477 129 519 q 32 389 60 435 q 156 425 101 399 q 249 484 211 451 q 308 549 288 517 q 328 606 328 582 q 328 611 328 608 q 325 617 328 614 q 318 619 322 618 q 306 621 314 621 z "},"ú":{"ha":1215,"x_min":-87,"x_max":1311,"o":"m 535 979 q 561 992 546 990 q 588 982 576 993 q 600 956 599 971 q 590 929 601 940 l 457 785 q 431 772 446 772 q 406 782 418 772 q 393 808 394 793 q 403 835 392 824 l 535 979 m 1296 525 q 1310 500 1308 515 q 1301 472 1311 485 q 1269 435 1297 468 q 1192 355 1240 401 q 1076 254 1143 308 q 932 155 1010 200 q 767 79 854 110 q 588 49 679 49 q 413 133 458 49 q 391 215 393 169 q 399 310 389 260 q 32 49 188 49 q -36 66 -12 49 q -69 101 -60 83 q -83 186 -87 135 q -61 295 -79 238 q -15 413 -43 353 q 41 526 13 474 q 94 619 69 579 q 131 678 118 660 q 153 694 139 692 q 182 689 168 697 q 198 666 194 681 q 193 638 201 651 q 112 501 153 576 q 40 353 71 425 q -6 223 8 282 q -4 138 -19 164 q 3 128 -3 135 q 32 122 10 122 q 114 146 71 122 q 202 208 157 169 q 292 297 247 247 q 377 401 336 347 q 454 509 418 456 q 518 607 490 563 q 544 653 533 635 q 560 678 556 671 q 583 694 568 690 q 610 690 597 697 q 627 667 624 682 q 624 640 631 653 q 613 620 622 638 q 583 574 603 603 q 529 465 556 524 q 486 351 503 407 q 465 248 469 296 q 478 169 461 200 q 485 157 479 165 q 503 141 490 149 q 535 128 515 133 q 588 122 556 122 q 750 151 669 122 q 903 224 831 181 q 1038 319 976 268 q 1146 415 1100 371 q 1217 488 1192 458 q 1244 519 1243 518 q 1269 533 1254 532 q 1296 525 1285 535 z "},"ý":{"ha":965,"x_min":-496,"x_max":1064,"o":"m 428 979 q 454 992 439 990 q 481 982 469 993 q 493 956 492 971 q 483 929 494 940 l 350 785 q 324 772 339 772 q 299 782 311 772 q 286 808 288 793 q 296 835 285 824 l 428 979 m 1049 525 q 1062 499 1060 514 q 1053 472 1064 483 q 806 221 932 332 q 555 22 679 110 q 313 -133 431 -65 q 89 -253 194 -200 q -37 -428 26 -346 q -160 -572 -100 -511 q -273 -669 -219 -633 q -371 -706 -326 -706 q -426 -694 -403 -706 q -465 -665 -450 -682 q -488 -626 -481 -647 q -496 -586 -496 -606 q -467 -494 -496 -535 q -387 -415 -439 -453 q -262 -341 -335 -378 q -100 -261 -189 -304 q 38 -194 -33 -231 q 101 -97 68 -149 q 169 14 133 -44 q 226 109 199 63 q 281 203 253 156 q 10 49 128 49 q -72 69 -44 49 q -110 108 -99 89 q -124 176 -125 138 q -112 256 -124 215 q -82 339 -100 297 q -44 416 -64 381 q -8 478 -25 451 q 17 517 8 504 q 40 533 25 531 q 68 528 56 536 q 85 504 82 519 q 79 476 88 489 q 26 389 53 438 q -19 293 0 340 q -47 206 -39 246 q -43 144 -56 165 q -31 132 -40 140 q 10 124 -22 124 q 104 154 54 124 q 206 233 154 185 q 307 342 257 281 q 401 465 357 403 q 479 582 444 526 q 536 676 514 638 q 568 696 547 696 q 600 678 590 696 q 603 642 611 660 q 549 538 589 614 q 452 355 510 461 q 322 124 394 249 q 171 -126 250 -1 q 369 -12 267 -75 q 577 128 472 50 q 788 304 682 207 q 996 521 893 401 q 1022 533 1007 532 q 1049 525 1038 535 m -371 -631 q -334 -621 -358 -631 q -271 -578 -310 -611 q -177 -484 -232 -546 q -47 -318 -122 -422 q -58 -323 -53 -321 q -68 -328 -62 -325 q -210 -397 -146 -365 q -322 -460 -275 -429 q -396 -522 -369 -492 q -422 -586 -422 -553 q -420 -597 -422 -590 q -412 -612 -418 -604 q -397 -625 -407 -619 q -371 -631 -386 -631 z "},"À":{"ha":1822,"x_min":-1,"x_max":2056,"o":"m 2044 1638 q 2054 1611 2056 1626 q 2042 1585 2053 1596 q 2017 1575 2029 1575 q 1989 1588 1999 1575 l 1857 1732 q 1847 1758 1846 1743 q 1860 1785 1849 1774 q 1885 1794 1871 1796 q 1911 1782 1900 1793 l 2044 1638 m 1658 558 q 1684 547 1674 558 q 1694 521 1694 536 q 1684 495 1694 506 q 1658 485 1674 485 q 1607 483 1636 485 q 1542 479 1578 482 q 1395 192 1469 340 q 1250 -106 1321 44 q 1117 -402 1179 -256 q 1006 -686 1054 -549 q 992 -704 1003 -697 q 971 -711 982 -711 q 958 -708 967 -711 q 937 -690 943 -703 q 936 -661 931 -676 q 1044 -385 983 -528 q 1173 -97 1106 -242 q 1313 193 1240 49 q 1456 474 1385 338 q 1305 460 1386 468 q 1137 444 1224 453 q 960 425 1050 435 q 785 406 871 415 q 578 201 679 303 q 384 4 476 100 q 210 -180 292 -92 q 65 -344 129 -268 q 38 -358 54 -358 q 13 -349 24 -358 q 0 -324 1 -339 q 8 -297 -1 -308 q 283 6 115 -171 q 665 392 451 182 q 528 376 592 383 q 411 363 464 369 q 419 325 425 346 q 383 300 410 300 q 372 301 376 300 l 235 344 q 215 358 222 347 q 208 383 207 369 q 219 405 210 396 q 240 417 228 414 q 292 423 249 418 q 403 436 335 428 q 563 455 472 444 q 753 476 653 465 q 916 634 832 554 q 1088 796 1000 714 q 1228 926 1151 856 q 1384 1069 1304 997 q 1542 1209 1464 1140 q 1688 1333 1621 1278 q 1808 1427 1756 1389 q 1888 1478 1860 1465 q 1906 1482 1896 1482 l 1914 1482 q 1958 1454 1943 1478 q 1965 1372 1975 1426 q 1913 1222 1954 1318 q 1800 982 1872 1126 q 1621 631 1728 838 q 1601 593 1610 611 q 1582 556 1592 575 q 1624 558 1604 558 q 1658 558 1643 558 m 872 490 q 1040 509 956 500 q 1206 526 1125 518 q 1360 540 1286 533 q 1496 551 1433 547 q 1525 608 1511 579 q 1554 665 1539 638 q 1672 894 1613 778 q 1781 1110 1732 1010 q 1860 1288 1829 1211 q 1894 1400 1892 1365 q 1813 1340 1868 1383 q 1683 1232 1758 1297 q 1513 1084 1607 1167 q 1315 906 1419 1001 q 1099 704 1211 810 q 872 490 986 599 z "},"È":{"ha":1628,"x_min":-10,"x_max":1701,"o":"m 1354 1638 q 1364 1611 1365 1626 q 1351 1585 1363 1596 q 1326 1575 1339 1575 q 1299 1588 1308 1575 l 1167 1732 q 1157 1758 1156 1743 q 1169 1785 1158 1774 q 1195 1794 1181 1796 q 1221 1782 1210 1793 l 1354 1638 m 1692 496 q 1699 468 1701 483 q 1685 443 1697 453 q 1628 400 1678 438 q 1501 305 1579 363 q 1319 176 1422 247 q 1100 31 1217 104 q 859 -113 983 -43 q 615 -237 735 -183 q 383 -325 494 -292 q 179 -358 271 -358 q 141 -357 165 -358 q 90 -349 117 -356 q 41 -326 64 -342 q 7 -283 18 -311 q 15 -184 -10 -240 q 97 -58 39 -128 q 243 97 156 13 q 439 281 331 181 q 513 349 475 314 q 585 417 551 383 q 647 478 619 450 q 686 525 674 506 q 474 574 550 526 q 393 718 393 625 q 440 871 393 788 q 565 1039 486 954 q 749 1203 644 1124 q 968 1345 853 1283 q 1203 1444 1083 1407 q 1432 1482 1322 1482 q 1467 1481 1444 1482 q 1515 1473 1490 1479 q 1559 1452 1539 1467 q 1588 1411 1579 1438 q 1574 1332 1597 1376 q 1505 1238 1550 1288 q 1400 1138 1460 1189 q 1277 1039 1340 1086 q 1154 951 1214 992 q 1051 883 1094 911 q 1025 878 1039 875 q 1001 892 1011 881 q 994 916 993 903 q 1004 940 994 929 l 1072 1008 q 1092 1019 1081 1018 q 1115 1015 1104 1021 q 1280 1136 1204 1076 q 1410 1247 1356 1196 q 1493 1335 1464 1297 q 1517 1390 1522 1372 q 1503 1399 1513 1394 q 1476 1405 1493 1401 q 1432 1408 1460 1408 q 1217 1372 1328 1408 q 999 1278 1106 1336 q 795 1144 892 1219 q 626 993 699 1069 q 510 844 553 917 q 468 718 468 772 q 514 638 468 665 q 703 600 572 600 q 750 587 736 600 q 767 564 764 574 q 765 517 775 543 q 722 451 754 490 q 631 358 689 413 q 489 225 574 304 q 399 142 447 188 q 301 50 350 97 q 209 -44 253 3 q 133 -131 165 -90 q 85 -205 101 -172 q 76 -257 68 -237 q 103 -275 79 -267 q 179 -283 128 -283 q 374 -250 265 -283 q 600 -162 482 -217 q 841 -37 718 -107 q 1078 106 964 33 q 1294 250 1193 179 q 1472 376 1396 321 q 1592 466 1547 432 q 1639 501 1638 500 q 1667 509 1651 511 q 1692 496 1682 507 z "},"Ì":{"ha":1157,"x_min":-3,"x_max":1531,"o":"m 1338 1638 q 1347 1611 1349 1626 q 1335 1585 1346 1596 q 1310 1575 1322 1575 q 1282 1588 1292 1575 l 1150 1732 q 1140 1758 1139 1743 q 1153 1785 1142 1774 q 1178 1794 1164 1796 q 1204 1782 1193 1793 l 1338 1638 m 1493 1482 q 1519 1472 1508 1482 q 1531 1446 1531 1461 q 1519 1419 1531 1431 q 1493 1408 1508 1408 q 1378 1407 1431 1408 q 1281 1403 1325 1406 q 1238 1335 1267 1382 q 1160 1204 1210 1288 q 1040 997 1111 1121 q 869 697 968 872 q 642 288 771 521 q 351 -243 514 56 q 494 -239 418 -239 q 521 -250 510 -239 q 532 -276 532 -261 q 521 -302 532 -292 q 494 -312 510 -312 q 398 -315 444 -312 q 308 -322 351 -318 q 302 -333 306 -328 q 296 -344 299 -337 q 264 -364 285 -364 q 246 -360 254 -364 q 226 -331 229 -349 q 95 -352 143 -342 q 46 -362 47 -362 q 38 -364 43 -364 q 15 -356 25 -364 q 1 -336 4 -349 q 5 -308 -3 -321 q 28 -290 13 -294 q 95 -276 32 -289 q 263 -251 158 -262 q 530 237 410 19 q 745 625 650 454 q 913 924 840 796 q 1038 1144 985 1051 q 1128 1298 1092 1238 q 1188 1396 1165 1358 q 1033 1372 1079 1385 q 985 1360 986 1360 q 972 1358 981 1358 q 938 1382 946 1358 q 938 1410 932 1396 q 958 1429 943 1424 q 976 1435 960 1429 q 1025 1447 992 1440 q 1112 1462 1058 1454 q 1240 1475 1165 1469 q 1283 1476 1261 1489 q 1380 1481 1328 1479 q 1493 1482 1432 1482 z "},"Ò":{"ha":1504,"x_min":0,"x_max":1376,"o":"m 1208 1638 q 1218 1611 1219 1626 q 1206 1585 1217 1596 q 1181 1575 1193 1575 q 1153 1588 1163 1575 l 1021 1732 q 1011 1758 1010 1743 q 1024 1785 1013 1774 q 1049 1794 1035 1796 q 1075 1782 1064 1793 l 1208 1638 m 1308 1378 q 1376 1125 1376 1288 q 1351 913 1376 1028 q 1281 674 1326 797 q 1172 426 1235 551 q 1033 186 1108 301 q 870 -29 957 71 q 691 -203 783 -129 q 503 -321 599 -278 q 314 -364 407 -364 q 69 -269 151 -364 q 0 -40 0 -187 q 17 120 0 36 q 60 284 35 204 q 115 435 86 364 q 168 556 144 506 q 192 604 176 574 q 225 670 207 635 q 264 742 243 706 q 306 811 285 779 q 346 865 326 843 q 381 893 365 886 q 501 1113 428 1007 q 667 1301 575 1219 q 864 1432 758 1383 q 1079 1481 969 1481 q 1308 1378 1231 1481 m 314 -290 q 487 -249 399 -290 q 660 -137 575 -208 q 826 31 746 -65 q 978 238 907 128 q 1110 466 1050 347 q 1213 701 1169 585 q 1279 926 1256 818 q 1303 1125 1303 1035 q 1249 1333 1303 1263 q 1079 1407 1193 1407 q 907 1370 992 1407 q 745 1271 822 1333 q 603 1126 668 1208 q 490 951 538 1043 q 416 763 443 858 q 389 579 389 667 q 401 469 389 525 q 449 367 414 413 q 548 293 485 322 q 711 264 611 264 q 738 253 726 264 q 749 228 749 243 q 738 201 749 213 q 711 190 726 190 q 417 292 521 190 q 314 579 314 393 q 325 699 314 635 q 260 576 294 644 q 194 430 226 507 q 134 271 161 353 q 91 112 107 189 q 74 -36 75 35 q 92 -161 72 -107 q 314 -290 139 -290 z "},"Ù":{"ha":1369,"x_min":-11,"x_max":1658,"o":"m 1272 1638 q 1282 1611 1283 1626 q 1269 1585 1281 1596 q 1244 1575 1257 1575 q 1217 1588 1226 1575 l 1085 1732 q 1075 1758 1074 1743 q 1088 1785 1076 1774 q 1113 1794 1099 1796 q 1139 1782 1128 1793 l 1272 1638 m 1650 1465 q 1658 1438 1658 1453 q 1634 1365 1658 1415 q 1568 1246 1610 1315 q 1472 1092 1526 1176 q 1354 919 1417 1008 q 1226 740 1292 829 q 1100 568 1161 650 q 950 243 1024 413 q 811 -101 876 74 q 792 -123 806 -117 q 764 -124 779 -129 q 742 -105 749 -118 q 742 -76 736 -92 q 813 110 775 15 q 894 301 851 204 q 692 58 794 176 q 494 -154 589 -61 q 319 -303 399 -247 q 185 -360 239 -360 q 82 -334 118 -360 q 31 -281 46 -308 q 6 -71 -11 -210 q 101 282 22 68 q 322 790 179 496 q 674 1464 464 1083 q 694 1481 681 1476 q 721 1479 707 1486 q 740 1461 733 1474 q 742 1435 746 1449 l 707 1328 q 693 1308 704 1315 q 669 1301 682 1300 q 172 258 317 646 q 94 -243 26 -129 q 122 -271 103 -257 q 185 -285 140 -285 q 278 -242 215 -285 q 439 -105 342 -200 q 669 144 536 -10 q 972 521 801 297 q 1006 566 989 544 q 1039 610 1022 588 q 1135 796 1086 704 q 1233 976 1183 888 q 1338 1153 1283 1063 q 1445 1316 1393 1243 q 1542 1435 1497 1389 q 1615 1482 1586 1482 q 1650 1465 1638 1482 z "},"à":{"ha":1189,"x_min":-272,"x_max":1286,"o":"m 549 831 q 558 804 560 819 q 546 778 557 789 q 521 768 533 768 q 493 781 503 768 l 361 925 q 351 951 350 936 q 364 978 353 967 q 390 988 375 989 q 415 975 404 986 l 549 831 m 1269 524 q 1284 499 1282 514 q 1275 472 1286 483 q 1242 435 1271 468 q 1165 354 1214 401 q 1050 253 1117 307 q 906 153 983 199 q 740 78 828 108 q 561 47 653 47 q 389 131 432 47 q 370 246 363 179 q 401 382 378 313 q 406 399 404 390 q 411 417 408 408 q 260 274 342 347 q 96 139 178 200 q -62 39 14 78 q -199 0 -139 0 q -252 20 -232 0 q -272 74 -272 40 q -242 176 -272 114 q -161 307 -211 238 q -46 445 -111 376 q 89 569 19 514 q 226 660 158 625 q 353 694 294 694 q 427 677 400 694 q 467 640 454 660 q 478 622 474 631 q 486 601 482 613 q 525 645 507 625 q 558 682 543 665 q 584 694 569 693 q 610 686 599 696 q 623 663 621 678 q 618 636 625 649 q 538 505 579 581 q 471 354 497 429 q 458 314 461 322 q 442 230 444 268 q 454 165 440 192 q 461 153 456 161 q 478 139 467 146 q 510 126 490 132 q 561 121 529 121 q 724 150 643 121 q 877 223 804 179 q 1012 318 950 267 q 1119 414 1074 369 q 1191 488 1165 458 q 1218 519 1217 518 q 1243 533 1228 531 q 1269 524 1258 535 m -199 75 q -69 119 -146 75 q 94 232 8 164 q 265 381 179 300 q 424 536 351 463 q 406 597 421 575 q 389 613 400 604 q 353 621 378 621 q 248 590 307 621 q 128 507 189 558 q 8 392 67 456 q -99 264 -51 328 q -178 138 -157 185 q -199 75 -199 90 z "},"è":{"ha":760,"x_min":-117,"x_max":853,"o":"m 425 831 q 435 804 436 819 q 422 778 433 789 q 397 768 410 768 q 369 781 379 768 l 238 925 q 228 951 226 936 q 240 978 229 967 q 266 988 251 989 q 292 975 281 986 l 425 831 m 838 525 q 851 499 849 514 q 842 472 853 483 q 805 431 838 468 q 717 340 772 393 q 590 226 663 286 q 433 114 517 165 q 258 28 350 63 q 76 -6 167 -6 q -66 41 -15 -6 q -117 174 -117 88 q -103 263 -117 215 q -67 363 -90 311 q -65 365 -67 363 q -26 438 -49 401 q 22 507 -4 474 q 67 560 39 528 q 133 622 96 592 q 215 673 171 651 q 306 694 258 694 q 375 671 349 694 q 403 606 403 646 q 372 513 403 563 q 287 419 342 463 q 156 346 232 376 q -8 311 81 315 q -33 240 -24 275 q -42 174 -42 206 q -17 99 -42 124 q 76 69 10 69 q 242 103 158 69 q 405 185 326 136 q 552 293 483 235 q 672 401 621 351 q 753 485 724 451 q 785 519 783 518 q 810 533 796 531 q 838 525 825 535 m 306 621 q 238 602 274 621 q 165 551 201 583 q 94 477 129 519 q 32 389 60 435 q 156 425 101 399 q 249 484 211 451 q 308 549 288 517 q 328 606 328 582 q 328 611 328 608 q 325 617 328 614 q 318 619 322 618 q 306 621 314 621 z "},"ò":{"ha":857,"x_min":-140,"x_max":951,"o":"m 351 831 q 361 804 363 819 q 349 778 360 789 q 324 768 336 768 q 296 781 306 768 l 164 925 q 154 951 153 936 q 167 978 156 967 q 192 988 178 989 q 218 975 207 986 l 351 831 m 935 526 q 949 502 947 517 q 943 475 951 488 q 919 445 940 472 q 861 380 899 418 q 771 298 824 342 q 652 217 718 254 q 508 156 586 181 q 343 132 431 132 q 263 143 300 132 q 260 140 261 142 q 257 138 260 139 q 126 34 196 72 q -3 -4 56 -4 q -122 71 -90 -4 q -134 174 -140 114 q -105 298 -128 235 q -47 420 -82 361 q 28 519 -12 479 q 53 531 39 531 q 78 522 67 532 q 113 613 89 575 q 174 674 138 653 q 253 696 210 696 q 365 641 325 696 q 406 489 406 586 q 314 208 406 340 q 328 206 321 207 q 343 206 336 206 q 491 228 421 206 q 621 286 561 251 q 729 361 681 321 q 811 436 778 401 q 863 494 844 471 q 882 518 882 517 q 907 533 892 531 q 935 526 922 536 m -3 69 q 89 98 36 69 q 192 176 142 126 q 99 294 129 221 q 69 443 69 367 l 69 454 q 8 367 36 417 q -37 267 -19 318 q -59 172 -54 217 q -53 99 -64 126 q -38 78 -49 88 q -3 69 -28 69 m 242 233 q 306 351 281 286 q 331 489 331 415 q 328 535 331 511 q 317 577 325 558 q 293 608 308 596 q 253 621 278 621 q 175 572 207 621 q 151 514 160 549 q 143 443 143 479 q 148 389 143 418 q 164 331 153 360 q 194 277 175 303 q 242 233 214 251 z "},"ù":{"ha":1215,"x_min":-87,"x_max":1311,"o":"m 489 831 q 499 804 500 819 q 486 778 497 789 q 461 768 474 768 q 433 781 443 768 l 301 925 q 292 951 290 936 q 304 978 293 967 q 330 988 315 989 q 356 975 344 986 l 489 831 m 1296 525 q 1310 500 1308 515 q 1301 472 1311 485 q 1269 435 1297 468 q 1192 355 1240 401 q 1076 254 1143 308 q 932 155 1010 200 q 767 79 854 110 q 588 49 679 49 q 413 133 458 49 q 391 215 393 169 q 399 310 389 260 q 32 49 188 49 q -36 66 -12 49 q -69 101 -60 83 q -83 186 -87 135 q -61 295 -79 238 q -15 413 -43 353 q 41 526 13 474 q 94 619 69 579 q 131 678 118 660 q 153 694 139 692 q 182 689 168 697 q 198 666 194 681 q 193 638 201 651 q 112 501 153 576 q 40 353 71 425 q -6 223 8 282 q -4 138 -19 164 q 3 128 -3 135 q 32 122 10 122 q 114 146 71 122 q 202 208 157 169 q 292 297 247 247 q 377 401 336 347 q 454 509 418 456 q 518 607 490 563 q 544 653 533 635 q 560 678 556 671 q 583 694 568 690 q 610 690 597 697 q 627 667 624 682 q 624 640 631 653 q 613 620 622 638 q 583 574 603 603 q 529 465 556 524 q 486 351 503 407 q 465 248 469 296 q 478 169 461 200 q 485 157 479 165 q 503 141 490 149 q 535 128 515 133 q 588 122 556 122 q 750 151 669 122 q 903 224 831 181 q 1038 319 976 268 q 1146 415 1100 371 q 1217 488 1192 458 q 1244 519 1243 518 q 1269 533 1254 532 q 1296 525 1285 535 z "},"ó":{"ha":857,"x_min":-140,"x_max":951,"o":"m 344 979 q 371 992 356 990 q 397 982 386 993 q 410 956 408 971 q 400 929 411 940 l 267 785 q 240 772 256 772 q 215 782 228 772 q 203 808 204 793 q 213 835 201 824 l 344 979 m 935 526 q 949 502 947 517 q 943 475 951 488 q 919 445 940 472 q 861 380 899 418 q 771 298 824 342 q 652 217 718 254 q 508 156 586 181 q 343 132 431 132 q 263 143 300 132 q 260 140 261 142 q 257 138 260 139 q 126 34 196 72 q -3 -4 56 -4 q -122 71 -90 -4 q -134 174 -140 114 q -105 298 -128 235 q -47 420 -82 361 q 28 519 -12 479 q 53 531 39 531 q 78 522 67 532 q 113 613 89 575 q 174 674 138 653 q 253 696 210 696 q 365 641 325 696 q 406 489 406 586 q 314 208 406 340 q 328 206 321 207 q 343 206 336 206 q 491 228 421 206 q 621 286 561 251 q 729 361 681 321 q 811 436 778 401 q 863 494 844 471 q 882 518 882 517 q 907 533 892 531 q 935 526 922 536 m -3 69 q 89 98 36 69 q 192 176 142 126 q 99 294 129 221 q 69 443 69 367 l 69 454 q 8 367 36 417 q -37 267 -19 318 q -59 172 -54 217 q -53 99 -64 126 q -38 78 -49 88 q -3 69 -28 69 m 242 233 q 306 351 281 286 q 331 489 331 415 q 328 535 331 511 q 317 577 325 558 q 293 608 308 596 q 253 621 278 621 q 175 572 207 621 q 151 514 160 549 q 143 443 143 479 q 148 389 143 418 q 164 331 153 360 q 194 277 175 303 q 242 233 214 251 z "},"Â":{"ha":1822,"x_min":-1,"x_max":2244,"o":"m 1940 1786 q 1953 1760 1951 1775 q 1943 1733 1954 1744 l 1810 1589 q 1783 1576 1799 1576 q 1758 1586 1771 1576 q 1746 1613 1747 1597 q 1756 1639 1744 1628 l 1888 1783 q 1914 1796 1899 1794 q 1940 1786 1929 1797 m 2233 1639 q 2243 1613 2244 1628 q 2231 1586 2242 1597 q 2206 1576 2218 1576 q 2178 1589 2190 1576 l 2046 1733 q 2036 1760 2035 1744 q 2049 1786 2038 1775 q 2075 1796 2060 1797 q 2101 1783 2090 1794 l 2233 1639 m 1658 558 q 1684 547 1674 558 q 1694 521 1694 536 q 1684 495 1694 506 q 1658 485 1674 485 q 1607 483 1636 485 q 1542 479 1578 482 q 1395 192 1469 340 q 1250 -106 1321 44 q 1117 -402 1179 -256 q 1006 -686 1054 -549 q 992 -704 1003 -697 q 971 -711 982 -711 q 958 -708 967 -711 q 937 -690 943 -703 q 936 -661 931 -676 q 1044 -385 983 -528 q 1173 -97 1106 -242 q 1313 193 1240 49 q 1456 474 1385 338 q 1305 460 1386 468 q 1137 444 1224 453 q 960 425 1050 435 q 785 406 871 415 q 578 201 679 303 q 384 4 476 100 q 210 -180 292 -92 q 65 -344 129 -268 q 38 -358 54 -358 q 13 -349 24 -358 q 0 -324 1 -339 q 8 -297 -1 -308 q 283 6 115 -171 q 665 392 451 182 q 528 376 592 383 q 411 363 464 369 q 419 325 425 346 q 383 300 410 300 q 372 301 376 300 l 235 344 q 215 358 222 347 q 208 383 207 369 q 219 405 210 396 q 240 417 228 414 q 292 423 249 418 q 403 436 335 428 q 563 455 472 444 q 753 476 653 465 q 916 634 832 554 q 1088 796 1000 714 q 1228 926 1151 856 q 1384 1069 1304 997 q 1542 1209 1464 1140 q 1688 1333 1621 1278 q 1808 1427 1756 1389 q 1888 1478 1860 1465 q 1906 1482 1896 1482 l 1914 1482 q 1958 1454 1943 1478 q 1965 1372 1975 1426 q 1913 1222 1954 1318 q 1800 982 1872 1126 q 1621 631 1728 838 q 1601 593 1610 611 q 1582 556 1592 575 q 1624 558 1604 558 q 1658 558 1643 558 m 872 490 q 1040 509 956 500 q 1206 526 1125 518 q 1360 540 1286 533 q 1496 551 1433 547 q 1525 608 1511 579 q 1554 665 1539 638 q 1672 894 1613 778 q 1781 1110 1732 1010 q 1860 1288 1829 1211 q 1894 1400 1892 1365 q 1813 1340 1868 1383 q 1683 1232 1758 1297 q 1513 1084 1607 1167 q 1315 906 1419 1001 q 1099 704 1211 810 q 872 490 986 599 z "},"Ê":{"ha":1628,"x_min":-10,"x_max":1701,"o":"m 1246 1786 q 1258 1760 1257 1775 q 1249 1733 1260 1744 l 1115 1589 q 1089 1576 1104 1576 q 1064 1586 1076 1576 q 1051 1613 1053 1597 q 1061 1639 1050 1628 l 1193 1783 q 1219 1796 1204 1794 q 1246 1786 1235 1797 m 1539 1639 q 1549 1613 1550 1628 q 1536 1586 1547 1597 q 1511 1576 1524 1576 q 1483 1589 1496 1576 l 1351 1733 q 1342 1760 1340 1744 q 1354 1786 1343 1775 q 1381 1796 1365 1797 q 1407 1783 1396 1794 l 1539 1639 m 1692 496 q 1699 468 1701 483 q 1685 443 1697 453 q 1628 400 1678 438 q 1501 305 1579 363 q 1319 176 1422 247 q 1100 31 1217 104 q 859 -113 983 -43 q 615 -237 735 -183 q 383 -325 494 -292 q 179 -358 271 -358 q 141 -357 165 -358 q 90 -349 117 -356 q 41 -326 64 -342 q 7 -283 18 -311 q 15 -184 -10 -240 q 97 -58 39 -128 q 243 97 156 13 q 439 281 331 181 q 513 349 475 314 q 585 417 551 383 q 647 478 619 450 q 686 525 674 506 q 474 574 550 526 q 393 718 393 625 q 440 871 393 788 q 565 1039 486 954 q 749 1203 644 1124 q 968 1345 853 1283 q 1203 1444 1083 1407 q 1432 1482 1322 1482 q 1467 1481 1444 1482 q 1515 1473 1490 1479 q 1559 1452 1539 1467 q 1588 1411 1579 1438 q 1574 1332 1597 1376 q 1505 1238 1550 1288 q 1400 1138 1460 1189 q 1277 1039 1340 1086 q 1154 951 1214 992 q 1051 883 1094 911 q 1025 878 1039 875 q 1001 892 1011 881 q 994 916 993 903 q 1004 940 994 929 l 1072 1008 q 1092 1019 1081 1018 q 1115 1015 1104 1021 q 1280 1136 1204 1076 q 1410 1247 1356 1196 q 1493 1335 1464 1297 q 1517 1390 1522 1372 q 1503 1399 1513 1394 q 1476 1405 1493 1401 q 1432 1408 1460 1408 q 1217 1372 1328 1408 q 999 1278 1106 1336 q 795 1144 892 1219 q 626 993 699 1069 q 510 844 553 917 q 468 718 468 772 q 514 638 468 665 q 703 600 572 600 q 750 587 736 600 q 767 564 764 574 q 765 517 775 543 q 722 451 754 490 q 631 358 689 413 q 489 225 574 304 q 399 142 447 188 q 301 50 350 97 q 209 -44 253 3 q 133 -131 165 -90 q 85 -205 101 -172 q 76 -257 68 -237 q 103 -275 79 -267 q 179 -283 128 -283 q 374 -250 265 -283 q 600 -162 482 -217 q 841 -37 718 -107 q 1078 106 964 33 q 1294 250 1193 179 q 1472 376 1396 321 q 1592 466 1547 432 q 1639 501 1638 500 q 1667 509 1651 511 q 1692 496 1682 507 z "},"Î":{"ha":1157,"x_min":-3,"x_max":1543,"o":"m 1239 1786 q 1251 1760 1250 1775 q 1242 1733 1253 1744 l 1108 1589 q 1082 1576 1097 1576 q 1057 1586 1069 1576 q 1044 1613 1046 1597 q 1054 1639 1043 1628 l 1186 1783 q 1213 1796 1197 1794 q 1239 1786 1228 1797 m 1532 1639 q 1542 1613 1543 1628 q 1529 1586 1540 1597 q 1504 1576 1517 1576 q 1476 1589 1489 1576 l 1344 1733 q 1335 1760 1333 1744 q 1347 1786 1336 1775 q 1374 1796 1358 1797 q 1400 1783 1389 1794 l 1532 1639 m 1493 1482 q 1519 1472 1508 1482 q 1531 1446 1531 1461 q 1519 1419 1531 1431 q 1493 1408 1508 1408 q 1378 1407 1431 1408 q 1281 1403 1325 1406 q 1238 1335 1267 1382 q 1160 1204 1210 1288 q 1040 997 1111 1121 q 869 697 968 872 q 642 288 771 521 q 351 -243 514 56 q 494 -239 418 -239 q 521 -250 510 -239 q 532 -276 532 -261 q 521 -302 532 -292 q 494 -312 510 -312 q 398 -315 444 -312 q 308 -322 351 -318 q 302 -333 306 -328 q 296 -344 299 -337 q 264 -364 285 -364 q 246 -360 254 -364 q 226 -331 229 -349 q 95 -352 143 -342 q 46 -362 47 -362 q 38 -364 43 -364 q 15 -356 25 -364 q 1 -336 4 -349 q 5 -308 -3 -321 q 28 -290 13 -294 q 95 -276 32 -289 q 263 -251 158 -262 q 530 237 410 19 q 745 625 650 454 q 913 924 840 796 q 1038 1144 985 1051 q 1128 1298 1092 1238 q 1188 1396 1165 1358 q 1033 1372 1079 1385 q 985 1360 986 1360 q 972 1358 981 1358 q 938 1382 946 1358 q 938 1410 932 1396 q 958 1429 943 1424 q 976 1435 960 1429 q 1025 1447 992 1440 q 1112 1462 1058 1454 q 1240 1475 1165 1469 q 1283 1476 1261 1489 q 1380 1481 1328 1479 q 1493 1482 1432 1482 z "},"Ô":{"ha":1504,"x_min":0,"x_max":1376,"o":"m 1051 1786 q 1064 1760 1063 1775 q 1054 1733 1065 1744 l 921 1589 q 894 1576 910 1576 q 869 1586 882 1576 q 857 1613 858 1597 q 867 1639 856 1628 l 999 1783 q 1025 1796 1010 1794 q 1051 1786 1040 1797 m 1344 1639 q 1354 1613 1356 1628 q 1342 1586 1353 1597 q 1317 1576 1329 1576 q 1289 1589 1301 1576 l 1157 1733 q 1147 1760 1146 1744 q 1160 1786 1149 1775 q 1186 1796 1171 1797 q 1213 1783 1201 1794 l 1344 1639 m 1308 1378 q 1376 1125 1376 1288 q 1351 913 1376 1028 q 1281 674 1326 797 q 1172 426 1235 551 q 1033 186 1108 301 q 870 -29 957 71 q 691 -203 783 -129 q 503 -321 599 -278 q 314 -364 407 -364 q 69 -269 151 -364 q 0 -40 0 -187 q 17 120 0 36 q 60 284 35 204 q 115 435 86 364 q 168 556 144 506 q 192 604 176 574 q 225 670 207 635 q 264 742 243 706 q 306 811 285 779 q 346 865 326 843 q 381 893 365 886 q 501 1113 428 1007 q 667 1301 575 1219 q 864 1432 758 1383 q 1079 1481 969 1481 q 1308 1378 1231 1481 m 314 -290 q 487 -249 399 -290 q 660 -137 575 -208 q 826 31 746 -65 q 978 238 907 128 q 1110 466 1050 347 q 1213 701 1169 585 q 1279 926 1256 818 q 1303 1125 1303 1035 q 1249 1333 1303 1263 q 1079 1407 1193 1407 q 907 1370 992 1407 q 745 1271 822 1333 q 603 1126 668 1208 q 490 951 538 1043 q 416 763 443 858 q 389 579 389 667 q 401 469 389 525 q 449 367 414 413 q 548 293 485 322 q 711 264 611 264 q 738 253 726 264 q 749 228 749 243 q 738 201 749 213 q 711 190 726 190 q 417 292 521 190 q 314 579 314 393 q 325 699 314 635 q 260 576 294 644 q 194 430 226 507 q 134 271 161 353 q 91 112 107 189 q 74 -36 75 35 q 92 -161 72 -107 q 314 -290 139 -290 z "},"Û":{"ha":1369,"x_min":-11,"x_max":1658,"o":"m 1144 1786 q 1157 1760 1156 1775 q 1147 1733 1158 1744 l 1014 1589 q 988 1576 1003 1576 q 963 1586 975 1576 q 950 1613 951 1597 q 960 1639 949 1628 l 1092 1783 q 1118 1796 1103 1794 q 1144 1786 1133 1797 m 1438 1639 q 1447 1613 1449 1628 q 1435 1586 1446 1597 q 1410 1576 1422 1576 q 1382 1589 1394 1576 l 1250 1733 q 1240 1760 1239 1744 q 1253 1786 1242 1775 q 1279 1796 1264 1797 q 1306 1783 1294 1794 l 1438 1639 m 1650 1465 q 1658 1438 1658 1453 q 1634 1365 1658 1415 q 1568 1246 1610 1315 q 1472 1092 1526 1176 q 1354 919 1417 1008 q 1226 740 1292 829 q 1100 568 1161 650 q 950 243 1024 413 q 811 -101 876 74 q 792 -123 806 -117 q 764 -124 779 -129 q 742 -105 749 -118 q 742 -76 736 -92 q 813 110 775 15 q 894 301 851 204 q 692 58 794 176 q 494 -154 589 -61 q 319 -303 399 -247 q 185 -360 239 -360 q 82 -334 118 -360 q 31 -281 46 -308 q 6 -71 -11 -210 q 101 282 22 68 q 322 790 179 496 q 674 1464 464 1083 q 694 1481 681 1476 q 721 1479 707 1486 q 740 1461 733 1474 q 742 1435 746 1449 l 707 1328 q 693 1308 704 1315 q 669 1301 682 1300 q 172 258 317 646 q 94 -243 26 -129 q 122 -271 103 -257 q 185 -285 140 -285 q 278 -242 215 -285 q 439 -105 342 -200 q 669 144 536 -10 q 972 521 801 297 q 1006 566 989 544 q 1039 610 1022 588 q 1135 796 1086 704 q 1233 976 1183 888 q 1338 1153 1283 1063 q 1445 1316 1393 1243 q 1542 1435 1497 1389 q 1615 1482 1586 1482 q 1650 1465 1638 1482 z "},"â":{"ha":1189,"x_min":-272,"x_max":1286,"o":"m 1269 524 q 1284 499 1282 514 q 1275 472 1286 483 q 1242 435 1271 468 q 1165 354 1214 401 q 1050 253 1117 307 q 906 153 983 199 q 740 78 828 108 q 561 47 653 47 q 389 131 432 47 q 370 246 363 179 q 401 382 378 313 q 406 399 404 390 q 411 417 408 408 q 260 274 342 347 q 96 139 178 200 q -62 39 14 78 q -199 0 -139 0 q -252 20 -232 0 q -272 74 -272 40 q -242 176 -272 114 q -161 307 -211 238 q -46 445 -111 376 q 89 569 19 514 q 226 660 158 625 q 353 694 294 694 q 427 677 400 694 q 467 640 454 660 q 478 622 474 631 q 486 601 482 613 q 525 645 507 625 q 558 682 543 665 q 584 694 569 693 q 610 686 599 696 q 623 663 621 678 q 618 636 625 649 q 538 505 579 581 q 471 354 497 429 q 458 314 461 322 q 442 230 444 268 q 454 165 440 192 q 461 153 456 161 q 478 139 467 146 q 510 126 490 132 q 561 121 529 121 q 724 150 643 121 q 877 223 804 179 q 1012 318 950 267 q 1119 414 1074 369 q 1191 488 1165 458 q 1218 519 1217 518 q 1243 533 1228 531 q 1269 524 1258 535 m -199 75 q -69 119 -146 75 q 94 232 8 164 q 265 381 179 300 q 424 536 351 463 q 406 597 421 575 q 389 613 400 604 q 353 621 378 621 q 248 590 307 621 q 128 507 189 558 q 8 392 67 456 q -99 264 -51 328 q -178 138 -157 185 q -199 75 -199 90 m 582 817 q 581 788 588 801 q 560 768 575 774 q 547 767 556 767 q 513 790 521 767 l 467 914 l 324 776 q 297 766 313 765 q 271 778 282 767 q 260 804 260 789 q 272 831 261 819 l 456 1007 q 490 1015 471 1019 q 517 993 510 1010 l 582 817 z "},"ê":{"ha":760,"x_min":-117,"x_max":853,"o":"m 838 525 q 851 499 849 514 q 842 472 853 483 q 805 431 838 468 q 717 340 772 393 q 590 226 663 286 q 433 114 517 165 q 258 28 350 63 q 76 -6 167 -6 q -66 41 -15 -6 q -117 174 -117 88 q -103 263 -117 215 q -67 363 -90 311 q -65 365 -67 363 q -26 438 -49 401 q 22 507 -4 474 q 67 560 39 528 q 133 622 96 592 q 215 673 171 651 q 306 694 258 694 q 375 671 349 694 q 403 606 403 646 q 372 513 403 563 q 287 419 342 463 q 156 346 232 376 q -8 311 81 315 q -33 240 -24 275 q -42 174 -42 206 q -17 99 -42 124 q 76 69 10 69 q 242 103 158 69 q 405 185 326 136 q 552 293 483 235 q 672 401 621 351 q 753 485 724 451 q 785 519 783 518 q 810 533 796 531 q 838 525 825 535 m 306 621 q 238 602 274 621 q 165 551 201 583 q 94 477 129 519 q 32 389 60 435 q 156 425 101 399 q 249 484 211 451 q 308 549 288 517 q 328 606 328 582 q 328 611 328 608 q 325 617 328 614 q 318 619 322 618 q 306 621 314 621 m 469 817 q 469 788 475 801 q 447 768 463 774 q 435 767 443 767 q 400 790 408 767 l 354 914 l 211 776 q 185 766 200 765 q 158 778 169 767 q 148 804 147 789 q 160 831 149 819 l 343 1007 q 378 1015 358 1019 q 404 993 397 1010 l 469 817 z "},"î":{"ha":760,"x_min":-67,"x_max":854,"o":"m 839 522 q 852 497 850 513 q 844 469 854 482 q 812 432 840 465 q 734 351 783 399 q 619 251 685 304 q 474 151 553 197 q 308 75 396 106 q 129 44 221 44 q -44 128 -1 44 q -65 224 -67 169 q -46 335 -62 278 q -3 450 -29 393 q 49 554 22 507 q 96 634 75 601 q 124 676 117 667 q 147 692 132 689 q 175 686 163 696 q 190 663 188 678 q 185 635 193 647 q 115 519 151 585 q 51 385 78 453 q 14 258 25 318 q 22 163 3 199 q 29 151 24 158 q 47 138 35 144 q 78 125 58 131 q 129 119 97 119 q 292 149 211 119 q 445 222 372 178 q 580 317 518 265 q 688 412 642 368 q 759 485 733 456 q 786 517 785 515 q 811 531 796 529 q 839 522 826 532 m 332 817 q 331 788 338 801 q 310 768 325 774 q 297 767 306 767 q 263 790 271 767 l 217 914 l 74 776 q 47 766 63 765 q 21 778 32 767 q 10 804 10 789 q 22 831 11 819 l 206 1007 q 240 1015 221 1019 q 267 993 260 1010 l 332 817 z "},"ì":{"ha":760,"x_min":-67,"x_max":854,"o":"m 839 522 q 852 497 850 513 q 844 469 854 482 q 812 432 840 465 q 734 351 783 399 q 619 251 685 304 q 474 151 553 197 q 308 75 396 106 q 129 44 221 44 q -44 128 -1 44 q -65 224 -67 169 q -46 335 -62 278 q -3 450 -29 393 q 49 554 22 507 q 96 634 75 601 q 124 676 117 667 q 147 692 132 689 q 175 686 163 696 q 190 663 188 678 q 185 635 193 647 q 115 519 151 585 q 51 385 78 453 q 14 258 25 318 q 22 163 3 199 q 29 151 24 158 q 47 138 35 144 q 78 125 58 131 q 129 119 97 119 q 292 149 211 119 q 445 222 372 178 q 580 317 518 265 q 688 412 642 368 q 759 485 733 456 q 786 517 785 515 q 811 531 796 529 q 839 522 826 532 m 307 831 q 317 804 318 819 q 304 778 315 789 q 279 768 292 768 q 251 781 261 768 l 119 925 q 110 951 108 936 q 122 978 111 967 q 148 988 133 989 q 174 975 163 986 l 307 831 z "},"í":{"ha":760,"x_min":-67,"x_max":854,"o":"m 410 979 q 436 992 421 990 q 463 982 451 993 q 475 956 474 971 q 465 929 476 940 l 332 785 q 306 772 321 772 q 281 782 293 772 q 268 808 269 793 q 278 835 267 824 l 410 979 m 839 522 q 852 497 850 513 q 844 469 854 482 q 812 432 840 465 q 734 351 783 399 q 619 251 685 304 q 474 151 553 197 q 308 75 396 106 q 129 44 221 44 q -44 128 -1 44 q -65 224 -67 169 q -46 335 -62 278 q -3 450 -29 393 q 49 554 22 507 q 96 634 75 601 q 124 676 117 667 q 147 692 132 689 q 175 686 163 696 q 190 663 188 678 q 185 635 193 647 q 115 519 151 585 q 51 385 78 453 q 14 258 25 318 q 22 163 3 199 q 29 151 24 158 q 47 138 35 144 q 78 125 58 131 q 129 119 97 119 q 292 149 211 119 q 445 222 372 178 q 580 317 518 265 q 688 412 642 368 q 759 485 733 456 q 786 517 785 515 q 811 531 796 529 q 839 522 826 532 z "},"Ž":{"ha":1157,"x_min":-1,"x_max":1826,"o":"m 1569 1750 q 1579 1724 1581 1739 q 1567 1697 1578 1708 l 1435 1581 q 1410 1571 1422 1571 q 1382 1583 1392 1571 q 1375 1597 1376 1592 l 1285 1732 q 1280 1760 1276 1746 q 1296 1785 1283 1775 q 1324 1790 1308 1793 q 1347 1774 1339 1786 l 1418 1665 l 1517 1753 q 1544 1763 1529 1764 q 1569 1750 1558 1761 m 1818 1401 q 1824 1345 1826 1379 q 1796 1258 1821 1311 q 1716 1131 1771 1206 q 1565 951 1661 1056 q 1324 708 1468 846 q 974 390 1179 569 q 783 227 878 307 q 599 74 688 147 q 429 -65 510 0 q 282 -182 349 -129 q 419 -135 346 -158 q 569 -94 492 -112 q 724 -63 646 -75 q 875 -51 801 -51 q 1019 -71 958 -51 q 1124 -120 1081 -90 q 1197 -184 1168 -150 q 1241 -248 1225 -218 q 1263 -298 1257 -278 q 1269 -318 1269 -318 q 1265 -347 1274 -333 q 1242 -362 1257 -360 q 1233 -364 1239 -364 q 1210 -356 1221 -364 q 1197 -335 1200 -349 q 1192 -316 1197 -332 q 1173 -277 1186 -300 q 1137 -228 1160 -254 q 1078 -178 1114 -201 q 993 -141 1043 -156 q 875 -126 943 -126 q 694 -144 789 -126 q 509 -187 600 -161 q 336 -242 418 -212 q 192 -299 254 -272 q 92 -342 129 -325 q 54 -360 56 -360 q 26 -362 40 -367 q 6 -346 13 -358 q 1 -320 -1 -335 q 14 -297 3 -306 q 53 -267 15 -296 q 154 -188 90 -239 q 305 -68 218 -137 q 492 83 392 1 q 703 258 593 165 q 925 447 814 350 q 1270 760 1129 625 q 1503 996 1411 896 q 1647 1165 1596 1096 q 1722 1277 1699 1233 q 1749 1344 1746 1321 q 1749 1378 1751 1368 q 1734 1394 1744 1388 q 1710 1403 1724 1400 q 1683 1407 1697 1406 q 1658 1408 1669 1408 q 1521 1396 1601 1408 q 1347 1363 1440 1383 q 1155 1317 1254 1343 q 960 1265 1056 1292 q 779 1212 864 1238 q 631 1167 694 1186 q 619 1147 628 1156 q 597 1136 611 1138 l 490 1124 q 463 1129 475 1121 q 449 1153 451 1138 q 453 1178 446 1167 q 474 1196 460 1190 q 522 1211 481 1197 q 631 1245 564 1225 q 783 1291 697 1265 q 963 1343 868 1317 q 1156 1394 1057 1369 q 1347 1439 1256 1419 q 1519 1470 1439 1458 q 1658 1482 1600 1482 q 1818 1401 1792 1482 z "},"ž":{"ha":1107,"x_min":-411,"x_max":1201,"o":"m 619 951 q 629 925 631 940 q 617 899 628 910 l 485 782 q 460 772 472 772 q 432 785 442 772 q 425 799 426 793 l 335 933 q 330 962 326 947 q 346 986 333 976 q 374 991 358 994 q 397 975 389 988 l 468 867 l 567 954 q 594 964 579 965 q 619 951 608 963 m 1190 521 q 1200 494 1201 510 q 1188 469 1199 479 q 923 256 1068 364 q 625 42 778 147 q 563 -104 614 -24 q 437 -267 513 -185 q 267 -429 361 -350 q 72 -569 172 -508 q -126 -668 -28 -631 q -307 -706 -224 -706 q -329 -705 -315 -706 q -358 -700 -343 -704 q -385 -686 -372 -696 q -403 -658 -397 -676 q -389 -594 -411 -629 q -299 -504 -367 -560 q -112 -366 -232 -449 q 194 -160 8 -283 q 370 -42 279 -103 q 554 82 461 18 q 548 104 553 97 q 538 114 543 111 q 461 132 515 132 q 355 119 408 132 q 252 89 301 107 q 160 49 203 71 q 86 9 118 28 q 35 -22 54 -10 q 17 -35 17 -35 q -11 -42 4 -44 q -36 -26 -26 -39 q -42 1 -44 -14 q -28 25 -40 15 q 121 140 47 81 q 260 258 194 200 q 383 372 326 317 q 478 472 439 426 q 538 553 518 518 q 551 606 557 588 q 536 615 550 610 q 486 621 522 621 q 342 603 413 621 q 217 563 272 585 q 126 524 161 542 q 92 506 92 506 q 63 501 78 497 q 40 518 49 506 q 37 547 33 532 q 54 569 40 561 q 94 591 57 571 q 192 635 132 611 q 329 677 253 658 q 486 696 406 696 q 622 629 599 696 q 624 579 628 608 q 592 503 621 550 q 503 388 564 456 q 333 224 442 321 q 306 199 319 211 q 279 176 293 188 q 369 198 324 190 q 461 206 415 206 q 583 172 539 206 q 619 128 607 156 q 894 326 761 226 q 1138 525 1028 426 q 1165 533 1150 535 q 1190 521 1179 532 m -307 -631 q -158 -602 -237 -631 q 4 -526 -78 -574 q 165 -416 86 -478 q 313 -287 244 -354 q 436 -154 382 -221 q 521 -31 490 -87 q 374 -128 446 -81 q 235 -222 303 -176 q 53 -344 144 -282 q -117 -461 -39 -406 q -251 -561 -194 -517 q -325 -631 -307 -606 l -307 -631 z "},"Ä":{"ha":1822,"x_min":-1,"x_max":2100,"o":"m 1846 1651 q 1878 1665 1858 1665 q 1910 1651 1897 1665 q 1924 1619 1924 1639 q 1910 1588 1924 1600 q 1878 1574 1897 1574 q 1846 1588 1858 1574 q 1832 1619 1832 1600 q 1846 1651 1832 1639 m 2088 1651 q 2100 1619 2100 1639 q 2088 1588 2100 1600 q 2054 1574 2074 1574 q 2022 1588 2035 1574 q 2008 1619 2008 1601 q 2022 1651 2008 1638 q 2054 1665 2035 1665 q 2088 1651 2074 1665 m 1658 558 q 1684 547 1674 558 q 1694 521 1694 536 q 1684 495 1694 506 q 1658 485 1674 485 q 1607 483 1636 485 q 1542 479 1578 482 q 1395 192 1469 340 q 1250 -106 1321 44 q 1117 -402 1179 -256 q 1006 -686 1054 -549 q 992 -704 1003 -697 q 971 -711 982 -711 q 958 -708 967 -711 q 937 -690 943 -703 q 936 -661 931 -676 q 1044 -385 983 -528 q 1173 -97 1106 -242 q 1313 193 1240 49 q 1456 474 1385 338 q 1305 460 1386 468 q 1137 444 1224 453 q 960 425 1050 435 q 785 406 871 415 q 578 201 679 303 q 384 4 476 100 q 210 -180 292 -92 q 65 -344 129 -268 q 38 -358 54 -358 q 13 -349 24 -358 q 0 -324 1 -339 q 8 -297 -1 -308 q 283 6 115 -171 q 665 392 451 182 q 528 376 592 383 q 411 363 464 369 q 419 325 425 346 q 383 300 410 300 q 372 301 376 300 l 235 344 q 215 358 222 347 q 208 383 207 369 q 219 405 210 396 q 240 417 228 414 q 292 423 249 418 q 403 436 335 428 q 563 455 472 444 q 753 476 653 465 q 916 634 832 554 q 1088 796 1000 714 q 1228 926 1151 856 q 1384 1069 1304 997 q 1542 1209 1464 1140 q 1688 1333 1621 1278 q 1808 1427 1756 1389 q 1888 1478 1860 1465 q 1906 1482 1896 1482 l 1914 1482 q 1958 1454 1943 1478 q 1965 1372 1975 1426 q 1913 1222 1954 1318 q 1800 982 1872 1126 q 1621 631 1728 838 q 1601 593 1610 611 q 1582 556 1592 575 q 1624 558 1604 558 q 1658 558 1643 558 m 872 490 q 1040 509 956 500 q 1206 526 1125 518 q 1360 540 1286 533 q 1496 551 1433 547 q 1525 608 1511 579 q 1554 665 1539 638 q 1672 894 1613 778 q 1781 1110 1732 1010 q 1860 1288 1829 1211 q 1894 1400 1892 1365 q 1813 1340 1868 1383 q 1683 1232 1758 1297 q 1513 1084 1607 1167 q 1315 906 1419 1001 q 1099 704 1211 810 q 872 490 986 599 z "},"Ë":{"ha":1628,"x_min":-10,"x_max":1701,"o":"m 1211 1651 q 1243 1665 1224 1665 q 1275 1651 1263 1665 q 1289 1619 1289 1639 q 1275 1588 1289 1600 q 1243 1574 1263 1574 q 1211 1588 1224 1574 q 1197 1619 1197 1600 q 1211 1651 1197 1639 m 1453 1651 q 1465 1619 1465 1639 q 1453 1588 1465 1600 q 1419 1574 1439 1574 q 1388 1588 1400 1574 q 1374 1619 1374 1601 q 1388 1651 1374 1638 q 1419 1665 1400 1665 q 1453 1651 1439 1665 m 1692 496 q 1699 468 1701 483 q 1685 443 1697 453 q 1628 400 1678 438 q 1501 305 1579 363 q 1319 176 1422 247 q 1100 31 1217 104 q 859 -113 983 -43 q 615 -237 735 -183 q 383 -325 494 -292 q 179 -358 271 -358 q 141 -357 165 -358 q 90 -349 117 -356 q 41 -326 64 -342 q 7 -283 18 -311 q 15 -184 -10 -240 q 97 -58 39 -128 q 243 97 156 13 q 439 281 331 181 q 513 349 475 314 q 585 417 551 383 q 647 478 619 450 q 686 525 674 506 q 474 574 550 526 q 393 718 393 625 q 440 871 393 788 q 565 1039 486 954 q 749 1203 644 1124 q 968 1345 853 1283 q 1203 1444 1083 1407 q 1432 1482 1322 1482 q 1467 1481 1444 1482 q 1515 1473 1490 1479 q 1559 1452 1539 1467 q 1588 1411 1579 1438 q 1574 1332 1597 1376 q 1505 1238 1550 1288 q 1400 1138 1460 1189 q 1277 1039 1340 1086 q 1154 951 1214 992 q 1051 883 1094 911 q 1025 878 1039 875 q 1001 892 1011 881 q 994 916 993 903 q 1004 940 994 929 l 1072 1008 q 1092 1019 1081 1018 q 1115 1015 1104 1021 q 1280 1136 1204 1076 q 1410 1247 1356 1196 q 1493 1335 1464 1297 q 1517 1390 1522 1372 q 1503 1399 1513 1394 q 1476 1405 1493 1401 q 1432 1408 1460 1408 q 1217 1372 1328 1408 q 999 1278 1106 1336 q 795 1144 892 1219 q 626 993 699 1069 q 510 844 553 917 q 468 718 468 772 q 514 638 468 665 q 703 600 572 600 q 750 587 736 600 q 767 564 764 574 q 765 517 775 543 q 722 451 754 490 q 631 358 689 413 q 489 225 574 304 q 399 142 447 188 q 301 50 350 97 q 209 -44 253 3 q 133 -131 165 -90 q 85 -205 101 -172 q 76 -257 68 -237 q 103 -275 79 -267 q 179 -283 128 -283 q 374 -250 265 -283 q 600 -162 482 -217 q 841 -37 718 -107 q 1078 106 964 33 q 1294 250 1193 179 q 1472 376 1396 321 q 1592 466 1547 432 q 1639 501 1638 500 q 1667 509 1651 511 q 1692 496 1682 507 z "},"Ï":{"ha":1157,"x_min":-3,"x_max":1531,"o":"m 1176 1651 q 1208 1665 1189 1665 q 1240 1651 1228 1665 q 1254 1619 1254 1639 q 1240 1588 1254 1600 q 1208 1574 1228 1574 q 1176 1588 1189 1574 q 1163 1619 1163 1600 q 1176 1651 1163 1639 m 1418 1651 q 1431 1619 1431 1639 q 1418 1588 1431 1600 q 1385 1574 1404 1574 q 1353 1588 1365 1574 q 1339 1619 1339 1601 q 1353 1651 1339 1638 q 1385 1665 1365 1665 q 1418 1651 1404 1665 m 1493 1482 q 1519 1472 1508 1482 q 1531 1446 1531 1461 q 1519 1419 1531 1431 q 1493 1408 1508 1408 q 1378 1407 1431 1408 q 1281 1403 1325 1406 q 1238 1335 1267 1382 q 1160 1204 1210 1288 q 1040 997 1111 1121 q 869 697 968 872 q 642 288 771 521 q 351 -243 514 56 q 494 -239 418 -239 q 521 -250 510 -239 q 532 -276 532 -261 q 521 -302 532 -292 q 494 -312 510 -312 q 398 -315 444 -312 q 308 -322 351 -318 q 302 -333 306 -328 q 296 -344 299 -337 q 264 -364 285 -364 q 246 -360 254 -364 q 226 -331 229 -349 q 95 -352 143 -342 q 46 -362 47 -362 q 38 -364 43 -364 q 15 -356 25 -364 q 1 -336 4 -349 q 5 -308 -3 -321 q 28 -290 13 -294 q 95 -276 32 -289 q 263 -251 158 -262 q 530 237 410 19 q 745 625 650 454 q 913 924 840 796 q 1038 1144 985 1051 q 1128 1298 1092 1238 q 1188 1396 1165 1358 q 1033 1372 1079 1385 q 985 1360 986 1360 q 972 1358 981 1358 q 938 1382 946 1358 q 938 1410 932 1396 q 958 1429 943 1424 q 976 1435 960 1429 q 1025 1447 992 1440 q 1112 1462 1058 1454 q 1240 1475 1165 1469 q 1283 1476 1261 1489 q 1380 1481 1328 1479 q 1493 1482 1432 1482 z "},"Ö":{"ha":1504,"x_min":0,"x_max":1376,"o":"m 999 1651 q 1031 1665 1011 1665 q 1063 1651 1050 1665 q 1076 1619 1076 1639 q 1063 1588 1076 1600 q 1031 1574 1050 1574 q 999 1588 1011 1574 q 985 1619 985 1600 q 999 1651 985 1639 m 1240 1651 q 1253 1619 1253 1639 q 1240 1588 1253 1600 q 1207 1574 1226 1574 q 1175 1588 1188 1574 q 1161 1619 1161 1601 q 1175 1651 1161 1638 q 1207 1665 1188 1665 q 1240 1651 1226 1665 m 1308 1378 q 1376 1125 1376 1288 q 1351 913 1376 1028 q 1281 674 1326 797 q 1172 426 1235 551 q 1033 186 1108 301 q 870 -29 957 71 q 691 -203 783 -129 q 503 -321 599 -278 q 314 -364 407 -364 q 69 -269 151 -364 q 0 -40 0 -187 q 17 120 0 36 q 60 284 35 204 q 115 435 86 364 q 168 556 144 506 q 192 604 176 574 q 225 670 207 635 q 264 742 243 706 q 306 811 285 779 q 346 865 326 843 q 381 893 365 886 q 501 1113 428 1007 q 667 1301 575 1219 q 864 1432 758 1383 q 1079 1481 969 1481 q 1308 1378 1231 1481 m 314 -290 q 487 -249 399 -290 q 660 -137 575 -208 q 826 31 746 -65 q 978 238 907 128 q 1110 466 1050 347 q 1213 701 1169 585 q 1279 926 1256 818 q 1303 1125 1303 1035 q 1249 1333 1303 1263 q 1079 1407 1193 1407 q 907 1370 992 1407 q 745 1271 822 1333 q 603 1126 668 1208 q 490 951 538 1043 q 416 763 443 858 q 389 579 389 667 q 401 469 389 525 q 449 367 414 413 q 548 293 485 322 q 711 264 611 264 q 738 253 726 264 q 749 228 749 243 q 738 201 749 213 q 711 190 726 190 q 417 292 521 190 q 314 579 314 393 q 325 699 314 635 q 260 576 294 644 q 194 430 226 507 q 134 271 161 353 q 91 112 107 189 q 74 -36 75 35 q 92 -161 72 -107 q 314 -290 139 -290 z "},"Ü":{"ha":1369,"x_min":-11,"x_max":1658,"o":"m 1050 1651 q 1082 1665 1063 1665 q 1114 1651 1101 1665 q 1128 1619 1128 1639 q 1114 1588 1128 1600 q 1082 1574 1101 1574 q 1050 1588 1063 1574 q 1036 1619 1036 1600 q 1050 1651 1036 1639 m 1292 1651 q 1304 1619 1304 1639 q 1292 1588 1304 1600 q 1258 1574 1278 1574 q 1226 1588 1239 1574 q 1213 1619 1213 1601 q 1226 1651 1213 1638 q 1258 1665 1239 1665 q 1292 1651 1278 1665 m 1650 1465 q 1658 1438 1658 1453 q 1634 1365 1658 1415 q 1568 1246 1610 1315 q 1472 1092 1526 1176 q 1354 919 1417 1008 q 1226 740 1292 829 q 1100 568 1161 650 q 950 243 1024 413 q 811 -101 876 74 q 792 -123 806 -117 q 764 -124 779 -129 q 742 -105 749 -118 q 742 -76 736 -92 q 813 110 775 15 q 894 301 851 204 q 692 58 794 176 q 494 -154 589 -61 q 319 -303 399 -247 q 185 -360 239 -360 q 82 -334 118 -360 q 31 -281 46 -308 q 6 -71 -11 -210 q 101 282 22 68 q 322 790 179 496 q 674 1464 464 1083 q 694 1481 681 1476 q 721 1479 707 1486 q 740 1461 733 1474 q 742 1435 746 1449 l 707 1328 q 693 1308 704 1315 q 669 1301 682 1300 q 172 258 317 646 q 94 -243 26 -129 q 122 -271 103 -257 q 185 -285 140 -285 q 278 -242 215 -285 q 439 -105 342 -200 q 669 144 536 -10 q 972 521 801 297 q 1006 566 989 544 q 1039 610 1022 588 q 1135 796 1086 704 q 1233 976 1183 888 q 1338 1153 1283 1063 q 1445 1316 1393 1243 q 1542 1435 1497 1389 q 1615 1482 1586 1482 q 1650 1465 1638 1482 z "},"ä":{"ha":1189,"x_min":-272,"x_max":1286,"o":"m 268 846 q 300 860 281 860 q 332 846 319 860 q 346 814 346 833 q 332 782 346 794 q 300 768 319 768 q 268 782 281 768 q 254 814 254 794 q 268 846 254 833 m 510 846 q 522 814 522 833 q 510 782 522 794 q 476 768 496 768 q 444 782 457 768 q 431 814 431 796 q 444 846 431 832 q 476 860 457 860 q 510 846 496 860 m 1269 524 q 1284 499 1282 514 q 1275 472 1286 483 q 1242 435 1271 468 q 1165 354 1214 401 q 1050 253 1117 307 q 906 153 983 199 q 740 78 828 108 q 561 47 653 47 q 389 131 432 47 q 370 246 363 179 q 401 382 378 313 q 406 399 404 390 q 411 417 408 408 q 260 274 342 347 q 96 139 178 200 q -62 39 14 78 q -199 0 -139 0 q -252 20 -232 0 q -272 74 -272 40 q -242 176 -272 114 q -161 307 -211 238 q -46 445 -111 376 q 89 569 19 514 q 226 660 158 625 q 353 694 294 694 q 427 677 400 694 q 467 640 454 660 q 478 622 474 631 q 486 601 482 613 q 525 645 507 625 q 558 682 543 665 q 584 694 569 693 q 610 686 599 696 q 623 663 621 678 q 618 636 625 649 q 538 505 579 581 q 471 354 497 429 q 458 314 461 322 q 442 230 444 268 q 454 165 440 192 q 461 153 456 161 q 478 139 467 146 q 510 126 490 132 q 561 121 529 121 q 724 150 643 121 q 877 223 804 179 q 1012 318 950 267 q 1119 414 1074 369 q 1191 488 1165 458 q 1218 519 1217 518 q 1243 533 1228 531 q 1269 524 1258 535 m -199 75 q -69 119 -146 75 q 94 232 8 164 q 265 381 179 300 q 424 536 351 463 q 406 597 421 575 q 389 613 400 604 q 353 621 378 621 q 248 590 307 621 q 128 507 189 558 q 8 392 67 456 q -99 264 -51 328 q -178 138 -157 185 q -199 75 -199 90 z "},"ë":{"ha":760,"x_min":-117,"x_max":853,"o":"m 207 846 q 239 860 219 860 q 271 846 258 860 q 285 814 285 833 q 271 782 285 794 q 239 768 258 768 q 207 782 219 768 q 193 814 193 794 q 207 846 193 833 m 449 846 q 461 814 461 833 q 449 782 461 794 q 415 768 435 768 q 383 782 396 768 q 369 814 369 796 q 383 846 369 832 q 415 860 396 860 q 449 846 435 860 m 838 525 q 851 499 849 514 q 842 472 853 483 q 805 431 838 468 q 717 340 772 393 q 590 226 663 286 q 433 114 517 165 q 258 28 350 63 q 76 -6 167 -6 q -66 41 -15 -6 q -117 174 -117 88 q -103 263 -117 215 q -67 363 -90 311 q -65 365 -67 363 q -26 438 -49 401 q 22 507 -4 474 q 67 560 39 528 q 133 622 96 592 q 215 673 171 651 q 306 694 258 694 q 375 671 349 694 q 403 606 403 646 q 372 513 403 563 q 287 419 342 463 q 156 346 232 376 q -8 311 81 315 q -33 240 -24 275 q -42 174 -42 206 q -17 99 -42 124 q 76 69 10 69 q 242 103 158 69 q 405 185 326 136 q 552 293 483 235 q 672 401 621 351 q 753 485 724 451 q 785 519 783 518 q 810 533 796 531 q 838 525 825 535 m 306 621 q 238 602 274 621 q 165 551 201 583 q 94 477 129 519 q 32 389 60 435 q 156 425 101 399 q 249 484 211 451 q 308 549 288 517 q 328 606 328 582 q 328 611 328 608 q 325 617 328 614 q 318 619 322 618 q 306 621 314 621 z "},"ï":{"ha":760,"x_min":-67,"x_max":854,"o":"m 74 846 q 106 860 86 860 q 138 846 125 860 q 151 814 151 833 q 138 782 151 794 q 106 768 125 768 q 74 782 86 768 q 60 814 60 794 q 74 846 60 833 m 315 846 q 328 814 328 833 q 315 782 328 794 q 282 768 301 768 q 250 782 263 768 q 236 814 236 796 q 250 846 236 832 q 282 860 263 860 q 315 846 301 860 m 839 522 q 852 497 850 513 q 844 469 854 482 q 812 432 840 465 q 734 351 783 399 q 619 251 685 304 q 474 151 553 197 q 308 75 396 106 q 129 44 221 44 q -44 128 -1 44 q -65 224 -67 169 q -46 335 -62 278 q -3 450 -29 393 q 49 554 22 507 q 96 634 75 601 q 124 676 117 667 q 147 692 132 689 q 175 686 163 696 q 190 663 188 678 q 185 635 193 647 q 115 519 151 585 q 51 385 78 453 q 14 258 25 318 q 22 163 3 199 q 29 151 24 158 q 47 138 35 144 q 78 125 58 131 q 129 119 97 119 q 292 149 211 119 q 445 222 372 178 q 580 317 518 265 q 688 412 642 368 q 759 485 733 456 q 786 517 785 515 q 811 531 796 529 q 839 522 826 532 z "},"ö":{"ha":857,"x_min":-140,"x_max":951,"o":"m 125 846 q 157 860 138 860 q 189 846 176 860 q 203 814 203 833 q 189 782 203 794 q 157 768 176 768 q 125 782 138 768 q 111 814 111 794 q 125 846 111 833 m 367 846 q 379 814 379 833 q 367 782 379 794 q 333 768 353 768 q 301 782 314 768 q 288 814 288 796 q 301 846 288 832 q 333 860 314 860 q 367 846 353 860 m 935 526 q 949 502 947 517 q 943 475 951 488 q 919 445 940 472 q 861 380 899 418 q 771 298 824 342 q 652 217 718 254 q 508 156 586 181 q 343 132 431 132 q 263 143 300 132 q 260 140 261 142 q 257 138 260 139 q 126 34 196 72 q -3 -4 56 -4 q -122 71 -90 -4 q -134 174 -140 114 q -105 298 -128 235 q -47 420 -82 361 q 28 519 -12 479 q 53 531 39 531 q 78 522 67 532 q 113 613 89 575 q 174 674 138 653 q 253 696 210 696 q 365 641 325 696 q 406 489 406 586 q 314 208 406 340 q 328 206 321 207 q 343 206 336 206 q 491 228 421 206 q 621 286 561 251 q 729 361 681 321 q 811 436 778 401 q 863 494 844 471 q 882 518 882 517 q 907 533 892 531 q 935 526 922 536 m -3 69 q 89 98 36 69 q 192 176 142 126 q 99 294 129 221 q 69 443 69 367 l 69 454 q 8 367 36 417 q -37 267 -19 318 q -59 172 -54 217 q -53 99 -64 126 q -38 78 -49 88 q -3 69 -28 69 m 242 233 q 306 351 281 286 q 331 489 331 415 q 328 535 331 511 q 317 577 325 558 q 293 608 308 596 q 253 621 278 621 q 175 572 207 621 q 151 514 160 549 q 143 443 143 479 q 148 389 143 418 q 164 331 153 360 q 194 277 175 303 q 242 233 214 251 z "},"ü":{"ha":1215,"x_min":-87,"x_max":1311,"o":"m 288 846 q 319 860 300 860 q 351 846 339 860 q 365 814 365 833 q 351 782 365 794 q 319 768 339 768 q 288 782 300 768 q 274 814 274 794 q 288 846 274 833 m 529 846 q 542 814 542 833 q 529 782 542 794 q 496 768 515 768 q 464 782 476 768 q 450 814 450 796 q 464 846 450 832 q 496 860 476 860 q 529 846 515 860 m 1296 525 q 1310 500 1308 515 q 1301 472 1311 485 q 1269 435 1297 468 q 1192 355 1240 401 q 1076 254 1143 308 q 932 155 1010 200 q 767 79 854 110 q 588 49 679 49 q 413 133 458 49 q 391 215 393 169 q 399 310 389 260 q 32 49 188 49 q -36 66 -12 49 q -69 101 -60 83 q -83 186 -87 135 q -61 295 -79 238 q -15 413 -43 353 q 41 526 13 474 q 94 619 69 579 q 131 678 118 660 q 153 694 139 692 q 182 689 168 697 q 198 666 194 681 q 193 638 201 651 q 112 501 153 576 q 40 353 71 425 q -6 223 8 282 q -4 138 -19 164 q 3 128 -3 135 q 32 122 10 122 q 114 146 71 122 q 202 208 157 169 q 292 297 247 247 q 377 401 336 347 q 454 509 418 456 q 518 607 490 563 q 544 653 533 635 q 560 678 556 671 q 583 694 568 690 q 610 690 597 697 q 627 667 624 682 q 624 640 631 653 q 613 620 622 638 q 583 574 603 603 q 529 465 556 524 q 486 351 503 407 q 465 248 469 296 q 478 169 461 200 q 485 157 479 165 q 503 141 490 149 q 535 128 515 133 q 588 122 556 122 q 750 151 669 122 q 903 224 831 181 q 1038 319 976 268 q 1146 415 1100 371 q 1217 488 1192 458 q 1244 519 1243 518 q 1269 533 1254 532 q 1296 525 1285 535 z "},"ÿ":{"ha":965,"x_min":-496,"x_max":1064,"o":"m 231 846 q 263 860 243 860 q 294 846 282 860 q 308 814 308 833 q 294 782 308 794 q 263 768 282 768 q 231 782 243 768 q 217 814 217 794 q 231 846 217 833 m 472 846 q 485 814 485 833 q 472 782 485 794 q 439 768 458 768 q 407 782 419 768 q 393 814 393 796 q 407 846 393 832 q 439 860 419 860 q 472 846 458 860 m 1049 525 q 1062 499 1060 514 q 1053 472 1064 483 q 806 221 932 332 q 555 22 679 110 q 313 -133 431 -65 q 89 -253 194 -200 q -37 -428 26 -346 q -160 -572 -100 -511 q -273 -669 -219 -633 q -371 -706 -326 -706 q -426 -694 -403 -706 q -465 -665 -450 -682 q -488 -626 -481 -647 q -496 -586 -496 -606 q -467 -494 -496 -535 q -387 -415 -439 -453 q -262 -341 -335 -378 q -100 -261 -189 -304 q 38 -194 -33 -231 q 101 -97 68 -149 q 169 14 133 -44 q 226 109 199 63 q 281 203 253 156 q 10 49 128 49 q -72 69 -44 49 q -110 108 -99 89 q -124 176 -125 138 q -112 256 -124 215 q -82 339 -100 297 q -44 416 -64 381 q -8 478 -25 451 q 17 517 8 504 q 40 533 25 531 q 68 528 56 536 q 85 504 82 519 q 79 476 88 489 q 26 389 53 438 q -19 293 0 340 q -47 206 -39 246 q -43 144 -56 165 q -31 132 -40 140 q 10 124 -22 124 q 104 154 54 124 q 206 233 154 185 q 307 342 257 281 q 401 465 357 403 q 479 582 444 526 q 536 676 514 638 q 568 696 547 696 q 600 678 590 696 q 603 642 611 660 q 549 538 589 614 q 452 355 510 461 q 322 124 394 249 q 171 -126 250 -1 q 369 -12 267 -75 q 577 128 472 50 q 788 304 682 207 q 996 521 893 401 q 1022 533 1007 532 q 1049 525 1038 535 m -371 -631 q -334 -621 -358 -631 q -271 -578 -310 -611 q -177 -484 -232 -546 q -47 -318 -122 -422 q -58 -323 -53 -321 q -68 -328 -62 -325 q -210 -397 -146 -365 q -322 -460 -275 -429 q -396 -522 -369 -492 q -422 -586 -422 -553 q -420 -597 -422 -590 q -412 -612 -418 -604 q -397 -625 -407 -619 q -371 -631 -386 -631 z "},"ô":{"ha":857,"x_min":-140,"x_max":951,"o":"m 935 526 q 949 502 947 517 q 943 475 951 488 q 919 445 940 472 q 861 380 899 418 q 771 298 824 342 q 652 217 718 254 q 508 156 586 181 q 343 132 431 132 q 263 143 300 132 q 260 140 261 142 q 257 138 260 139 q 126 34 196 72 q -3 -4 56 -4 q -122 71 -90 -4 q -134 174 -140 114 q -105 298 -128 235 q -47 420 -82 361 q 28 519 -12 479 q 53 531 39 531 q 78 522 67 532 q 113 613 89 575 q 174 674 138 653 q 253 696 210 696 q 365 641 325 696 q 406 489 406 586 q 314 208 406 340 q 328 206 321 207 q 343 206 336 206 q 491 228 421 206 q 621 286 561 251 q 729 361 681 321 q 811 436 778 401 q 863 494 844 471 q 882 518 882 517 q 907 533 892 531 q 935 526 922 536 m -3 69 q 89 98 36 69 q 192 176 142 126 q 99 294 129 221 q 69 443 69 367 l 69 454 q 8 367 36 417 q -37 267 -19 318 q -59 172 -54 217 q -53 99 -64 126 q -38 78 -49 88 q -3 69 -28 69 m 242 233 q 306 351 281 286 q 331 489 331 415 q 328 535 331 511 q 317 577 325 558 q 293 608 308 596 q 253 621 278 621 q 175 572 207 621 q 151 514 160 549 q 143 443 143 479 q 148 389 143 418 q 164 331 153 360 q 194 277 175 303 q 242 233 214 251 m 425 817 q 424 788 431 801 q 403 768 418 774 q 390 767 399 767 q 356 790 364 767 l 310 914 l 167 776 q 140 766 156 765 q 114 778 125 767 q 103 804 103 789 q 115 831 104 819 l 299 1007 q 333 1015 314 1019 q 360 993 353 1010 l 425 817 z "},"û":{"ha":1215,"x_min":-87,"x_max":1311,"o":"m 1296 525 q 1310 500 1308 515 q 1301 472 1311 485 q 1269 435 1297 468 q 1192 355 1240 401 q 1076 254 1143 308 q 932 155 1010 200 q 767 79 854 110 q 588 49 679 49 q 413 133 458 49 q 391 215 393 169 q 399 310 389 260 q 32 49 188 49 q -36 66 -12 49 q -69 101 -60 83 q -83 186 -87 135 q -61 295 -79 238 q -15 413 -43 353 q 41 526 13 474 q 94 619 69 579 q 131 678 118 660 q 153 694 139 692 q 182 689 168 697 q 198 666 194 681 q 193 638 201 651 q 112 501 153 576 q 40 353 71 425 q -6 223 8 282 q -4 138 -19 164 q 3 128 -3 135 q 32 122 10 122 q 114 146 71 122 q 202 208 157 169 q 292 297 247 247 q 377 401 336 347 q 454 509 418 456 q 518 607 490 563 q 544 653 533 635 q 560 678 556 671 q 583 694 568 690 q 610 690 597 697 q 627 667 624 682 q 624 640 631 653 q 613 620 622 638 q 583 574 603 603 q 529 465 556 524 q 486 351 503 407 q 465 248 469 296 q 478 169 461 200 q 485 157 479 165 q 503 141 490 149 q 535 128 515 133 q 588 122 556 122 q 750 151 669 122 q 903 224 831 181 q 1038 319 976 268 q 1146 415 1100 371 q 1217 488 1192 458 q 1244 519 1243 518 q 1269 533 1254 532 q 1296 525 1285 535 m 563 817 q 562 788 568 801 q 540 768 556 774 q 528 767 536 767 q 493 790 501 767 l 447 914 l 304 776 q 278 766 293 765 q 251 778 263 767 q 241 804 240 789 q 253 831 242 819 l 436 1007 q 471 1015 451 1019 q 497 993 490 1010 l 563 817 z "},"Å":{"ha":1822,"x_min":-1,"x_max":2139,"o":"m 2089 1811 q 2129 1751 2119 1788 q 2125 1675 2139 1714 q 2070 1602 2110 1631 q 1983 1574 2031 1574 q 1900 1599 1932 1574 q 1861 1669 1868 1625 q 1864 1728 1857 1697 q 1887 1787 1871 1758 q 1927 1837 1903 1815 q 1982 1868 1951 1858 q 2010 1865 1997 1872 q 2028 1843 2024 1858 q 2026 1815 2033 1828 q 2004 1797 2019 1801 q 1974 1780 1988 1793 q 1951 1749 1961 1767 q 1937 1714 1942 1732 q 1935 1681 1932 1696 q 1946 1658 1938 1669 q 1983 1647 1954 1647 q 2030 1664 2011 1647 q 2056 1700 2049 1681 q 2058 1725 2058 1710 q 2043 1753 2058 1740 q 2028 1778 2031 1764 q 2036 1806 2026 1793 q 2063 1819 2047 1817 q 2089 1811 2078 1821 m 1658 558 q 1684 547 1674 558 q 1694 521 1694 536 q 1684 495 1694 506 q 1658 485 1674 485 q 1607 483 1636 485 q 1542 479 1578 482 q 1395 192 1469 340 q 1250 -106 1321 44 q 1117 -402 1179 -256 q 1006 -686 1054 -549 q 992 -704 1003 -697 q 971 -711 982 -711 q 958 -708 967 -711 q 937 -690 943 -703 q 936 -661 931 -676 q 1044 -385 983 -528 q 1173 -97 1106 -242 q 1313 193 1240 49 q 1456 474 1385 338 q 1305 460 1386 468 q 1137 444 1224 453 q 960 425 1050 435 q 785 406 871 415 q 578 201 679 303 q 384 4 476 100 q 210 -180 292 -92 q 65 -344 129 -268 q 38 -358 54 -358 q 13 -349 24 -358 q 0 -324 1 -339 q 8 -297 -1 -308 q 283 6 115 -171 q 665 392 451 182 q 528 376 592 383 q 411 363 464 369 q 419 325 425 346 q 383 300 410 300 q 372 301 376 300 l 235 344 q 215 358 222 347 q 208 383 207 369 q 219 405 210 396 q 240 417 228 414 q 292 423 249 418 q 403 436 335 428 q 563 455 472 444 q 753 476 653 465 q 916 634 832 554 q 1088 796 1000 714 q 1228 926 1151 856 q 1384 1069 1304 997 q 1542 1209 1464 1140 q 1688 1333 1621 1278 q 1808 1427 1756 1389 q 1888 1478 1860 1465 q 1906 1482 1896 1482 l 1914 1482 q 1958 1454 1943 1478 q 1965 1372 1975 1426 q 1913 1222 1954 1318 q 1800 982 1872 1126 q 1621 631 1728 838 q 1601 593 1610 611 q 1582 556 1592 575 q 1624 558 1604 558 q 1658 558 1643 558 m 872 490 q 1040 509 956 500 q 1206 526 1125 518 q 1360 540 1286 533 q 1496 551 1433 547 q 1525 608 1511 579 q 1554 665 1539 638 q 1672 894 1613 778 q 1781 1110 1732 1010 q 1860 1288 1829 1211 q 1894 1400 1892 1365 q 1813 1340 1868 1383 q 1683 1232 1758 1297 q 1513 1084 1607 1167 q 1315 906 1419 1001 q 1099 704 1211 810 q 872 490 986 599 z "},"å":{"ha":1189,"x_min":-272,"x_max":1286,"o":"m 507 999 q 547 938 538 975 q 543 863 557 901 q 488 790 528 818 q 401 761 449 761 q 318 787 350 761 q 279 857 286 813 q 282 915 275 885 q 305 974 289 946 q 345 1024 321 1003 q 400 1056 369 1046 q 428 1053 415 1060 q 446 1031 442 1046 q 444 1002 451 1015 q 422 985 438 989 q 392 967 406 981 q 369 937 379 954 q 355 901 360 919 q 353 868 350 883 q 364 846 356 857 q 401 835 372 835 q 448 851 429 835 q 474 888 467 868 q 476 913 476 897 q 461 940 476 928 q 447 966 449 951 q 454 993 444 981 q 481 1006 465 1004 q 507 999 496 1008 m 1269 524 q 1284 499 1282 514 q 1275 472 1286 483 q 1242 435 1271 468 q 1165 354 1214 401 q 1050 253 1117 307 q 906 153 983 199 q 740 78 828 108 q 561 47 653 47 q 389 131 432 47 q 370 246 363 179 q 401 382 378 313 q 406 399 404 390 q 411 417 408 408 q 260 274 342 347 q 96 139 178 200 q -62 39 14 78 q -199 0 -139 0 q -252 20 -232 0 q -272 74 -272 40 q -242 176 -272 114 q -161 307 -211 238 q -46 445 -111 376 q 89 569 19 514 q 226 660 158 625 q 353 694 294 694 q 427 677 400 694 q 467 640 454 660 q 478 622 474 631 q 486 601 482 613 q 525 645 507 625 q 558 682 543 665 q 584 694 569 693 q 610 686 599 696 q 623 663 621 678 q 618 636 625 649 q 538 505 579 581 q 471 354 497 429 q 458 314 461 322 q 442 230 444 268 q 454 165 440 192 q 461 153 456 161 q 478 139 467 146 q 510 126 490 132 q 561 121 529 121 q 724 150 643 121 q 877 223 804 179 q 1012 318 950 267 q 1119 414 1074 369 q 1191 488 1165 458 q 1218 519 1217 518 q 1243 533 1228 531 q 1269 524 1258 535 m -199 75 q -69 119 -146 75 q 94 232 8 164 q 265 381 179 300 q 424 536 351 463 q 406 597 421 575 q 389 613 400 604 q 353 621 378 621 q 248 590 307 621 q 128 507 189 558 q 8 392 67 456 q -99 264 -51 328 q -178 138 -157 185 q -199 75 -199 90 z "},"Š":{"ha":1238,"x_min":-1,"x_max":1447,"o":"m 1350 1756 q 1360 1729 1361 1744 q 1347 1703 1358 1714 l 1215 1586 q 1190 1576 1203 1576 q 1163 1589 1172 1576 q 1156 1603 1157 1597 l 1065 1738 q 1060 1766 1057 1751 q 1076 1790 1064 1781 q 1104 1795 1089 1799 q 1128 1779 1119 1792 l 1199 1671 l 1297 1758 q 1324 1768 1310 1769 q 1350 1756 1339 1767 m 488 840 q 436 702 454 772 q 418 560 418 632 q 435 378 418 471 q 471 193 451 285 q 483 133 478 163 q 494 75 489 104 q 560 115 526 94 q 632 160 594 136 q 790 253 711 207 q 940 339 868 299 q 1072 413 1011 379 q 1178 472 1133 447 q 1249 511 1224 497 q 1276 525 1275 525 q 1305 528 1290 532 q 1326 510 1319 524 q 1329 481 1333 496 q 1311 460 1325 467 q 876 218 1081 338 q 508 -6 672 99 q 515 -183 522 -101 q 458 -325 507 -265 q 139 -436 369 -436 q 108 -435 128 -436 q 66 -428 88 -435 q 26 -409 44 -422 q 3 -372 8 -396 q 0 -349 1 -362 q 8 -316 -1 -336 q 42 -266 18 -296 q 115 -194 67 -236 q 238 -97 163 -153 q 428 32 314 -42 q 413 104 421 68 q 397 178 406 140 q 360 369 378 274 q 343 560 343 465 q 360 706 343 635 q 407 844 376 776 q 221 887 289 856 q 118 951 153 918 q 74 1010 83 983 q 65 1040 65 1038 q 72 1067 63 1056 q 96 1082 81 1079 q 123 1076 111 1085 q 138 1051 135 1067 q 147 1031 138 1050 q 188 990 157 1013 q 279 945 219 967 q 442 917 339 924 q 612 1142 510 1039 q 828 1322 714 1246 q 1059 1440 943 1397 q 1274 1482 1175 1482 q 1397 1454 1356 1482 q 1447 1364 1447 1422 q 1411 1258 1447 1315 q 1310 1142 1375 1200 q 1158 1030 1246 1085 q 967 933 1071 975 q 749 866 864 892 q 518 840 635 840 l 488 840 m 1274 1408 q 1083 1371 1186 1408 q 878 1267 981 1333 q 685 1110 776 1200 q 528 914 593 1019 q 751 941 643 915 q 952 1006 858 967 q 1124 1095 1046 1046 q 1256 1194 1201 1144 q 1342 1288 1311 1243 q 1372 1364 1372 1333 q 1357 1392 1372 1382 q 1329 1403 1349 1397 q 1274 1408 1310 1408 m 400 -279 q 439 -180 432 -239 q 439 -50 446 -121 q 289 -152 356 -104 q 176 -239 222 -200 q 103 -306 129 -278 q 75 -351 76 -335 q 93 -358 79 -354 q 139 -361 107 -361 q 400 -279 335 -361 z "},"š":{"ha":754,"x_min":-249,"x_max":846,"o":"m 365 949 q 375 922 376 938 q 363 896 374 907 l 231 779 q 206 769 218 769 q 178 782 188 769 q 171 796 172 790 l 81 931 q 76 959 72 944 q 92 983 79 974 q 119 988 104 992 q 143 972 135 985 l 214 864 l 313 951 q 340 961 325 963 q 365 949 354 960 m 838 517 q 843 489 846 504 q 828 465 840 474 q 622 326 725 397 q 423 187 519 256 q 238 53 326 118 q 78 -69 150 -12 q 53 -183 69 -131 q 8 -274 38 -235 q -67 -336 -22 -314 q -178 -358 -112 -358 q -228 -344 -214 -358 q -246 -318 -242 -329 q -248 -291 -249 -307 q -225 -244 -247 -275 q -149 -163 -203 -214 q 7 -31 -96 -112 q 15 189 15 65 q 20 368 15 278 q 47 531 25 458 q 115 650 68 604 q 249 696 163 696 q 275 685 264 696 q 286 658 286 674 q 275 632 286 643 q 249 621 264 621 q 163 591 194 621 q 116 505 132 561 q 95 369 100 449 q 90 188 90 289 q 89 110 89 149 q 86 32 89 71 q 169 94 125 61 q 265 164 214 128 q 454 299 361 233 q 621 415 547 364 q 740 496 694 465 q 786 526 785 526 q 814 533 799 536 q 838 517 829 529 m -162 -283 q -65 -242 -100 -279 q -12 -142 -31 -206 q -107 -224 -68 -187 q -162 -283 -146 -260 z "},"Ÿ":{"ha":1446,"x_min":-1,"x_max":1596,"o":"m 956 1651 q 988 1665 968 1665 q 1019 1651 1007 1665 q 1033 1619 1033 1639 q 1019 1588 1033 1600 q 988 1574 1007 1574 q 956 1588 968 1574 q 942 1619 942 1600 q 956 1651 942 1639 m 1197 1651 q 1210 1619 1210 1639 q 1197 1588 1210 1600 q 1164 1574 1183 1574 q 1132 1588 1144 1574 q 1118 1619 1118 1601 q 1132 1651 1118 1638 q 1164 1665 1144 1665 q 1197 1651 1183 1665 m 1449 511 q 1475 523 1460 522 q 1501 513 1490 524 q 1513 486 1513 501 q 1501 460 1513 471 q 1349 325 1435 393 q 1166 190 1263 257 q 965 59 1069 124 q 760 -65 861 -6 q 627 -244 694 -162 q 490 -385 560 -326 q 348 -478 419 -444 q 204 -511 276 -511 q 176 -510 193 -511 q 140 -505 158 -510 q 108 -490 122 -500 q 89 -461 94 -481 q 103 -404 82 -435 q 180 -332 124 -374 q 329 -234 236 -290 q 558 -97 422 -178 q 631 -55 594 -76 q 707 -11 668 -33 q 850 228 781 101 q 985 486 919 356 q 841 351 914 413 q 696 244 768 289 q 553 173 624 199 q 417 147 482 147 q 288 207 326 147 q 264 315 260 250 q 293 458 268 379 q 358 628 318 538 q 442 815 397 719 q 498 940 468 874 q 550 1065 528 1006 q 582 1169 572 1124 q 581 1233 592 1215 q 576 1237 581 1235 q 560 1239 572 1239 q 458 1211 514 1239 q 347 1141 403 1183 q 238 1047 292 1099 q 143 950 185 996 q 129 911 150 928 l 60 857 q 35 848 49 847 q 11 860 21 849 q -1 885 0 871 q 8 910 -1 899 q 38 945 11 914 q 107 1022 64 976 q 205 1118 150 1067 q 319 1213 260 1169 q 441 1285 379 1256 q 560 1314 503 1314 q 615 1301 596 1314 q 644 1272 635 1288 q 660 1199 663 1243 q 639 1094 658 1154 q 585 956 619 1033 q 508 783 551 878 q 438 625 474 707 q 375 469 401 543 q 340 337 349 396 q 350 247 331 278 q 366 233 353 243 q 417 222 379 222 q 558 256 481 222 q 722 353 635 289 q 903 510 808 417 q 1096 722 997 603 q 1101 728 1099 725 q 1106 733 1103 731 q 1189 913 1149 826 q 1317 1183 1264 1074 q 1409 1358 1369 1292 q 1479 1453 1449 1425 q 1539 1482 1510 1482 q 1583 1460 1569 1482 q 1596 1419 1596 1444 q 1563 1307 1596 1383 q 1473 1131 1531 1231 q 1337 917 1415 1032 q 1167 690 1258 803 q 1014 377 1093 535 q 847 74 935 219 q 1018 181 933 126 q 1181 291 1103 236 q 1326 401 1258 346 q 1449 511 1394 457 m 1515 1383 q 1478 1328 1499 1363 q 1433 1249 1457 1294 q 1385 1152 1410 1204 q 1333 1044 1360 1100 q 1453 1246 1407 1157 q 1515 1383 1500 1335 m 204 -437 q 403 -361 303 -437 q 601 -160 503 -285 q 599 -160 600 -160 q 597 -161 599 -161 q 463 -240 531 -200 q 336 -317 394 -281 q 234 -385 278 -354 q 172 -435 190 -415 q 204 -437 186 -437 z "},"Ø":{"ha":1504,"x_min":-71,"x_max":1561,"o":"m 1550 1385 q 1559 1348 1561 1368 q 1542 1317 1557 1328 l 1375 1163 q 1376 1144 1376 1153 q 1376 1125 1376 1135 q 1351 913 1376 1028 q 1281 674 1326 797 q 1172 426 1235 551 q 1033 186 1108 301 q 870 -29 957 71 q 691 -203 783 -129 q 503 -321 599 -278 q 314 -364 407 -364 q 69 -269 151 -364 l 57 -254 l -7 -307 q -28 -314 -14 -314 q -60 -297 -50 -314 q -70 -264 -71 -282 q -58 -232 -69 -246 q -24 -188 -40 -210 q 11 -146 -7 -167 q 0 -40 0 -94 q 17 120 0 36 q 60 284 35 204 q 115 435 86 364 q 168 556 144 506 q 192 604 176 574 q 225 670 207 635 q 264 742 243 706 q 306 811 285 779 q 346 865 326 843 q 381 893 365 886 q 501 1113 428 1007 q 667 1301 575 1219 q 864 1432 758 1383 q 1079 1481 969 1481 q 1308 1378 1231 1481 q 1358 1272 1342 1332 q 1456 1362 1421 1331 q 1493 1396 1490 1393 q 1524 1405 1507 1408 q 1550 1385 1540 1401 m 314 -290 q 483 -251 397 -290 q 653 -142 569 -211 q 816 19 736 -74 q 966 218 896 111 q 1096 441 1036 325 q 1200 672 1156 557 q 1271 894 1244 786 q 1301 1093 1297 1001 q 1140 938 1229 1024 q 951 751 1051 851 q 742 539 851 651 q 522 306 633 426 q 604 275 558 286 q 711 264 650 264 q 738 253 726 264 q 749 228 749 243 q 738 201 749 213 q 711 190 726 190 q 472 250 568 190 q 311 70 390 161 q 153 -114 232 -21 q 156 -117 156 -117 q 162 -155 165 -136 q 144 -185 158 -174 l 115 -207 q 314 -290 174 -290 m 389 579 q 402 466 389 524 q 453 363 415 408 q 696 620 576 496 q 924 853 815 744 q 1127 1053 1032 961 q 1296 1214 1222 1144 q 1249 1333 1283 1285 q 1079 1407 1193 1407 q 907 1370 992 1407 q 745 1271 822 1333 q 603 1126 668 1208 q 490 951 538 1043 q 416 763 443 858 q 389 579 389 667 m 325 699 q 239 532 285 628 q 155 331 193 436 q 93 122 117 226 q 74 -68 69 18 q 237 122 154 28 q 403 308 319 217 q 314 579 314 408 q 325 699 314 635 z "},"ø":{"ha":857,"x_min":-212,"x_max":951,"o":"m 561 638 q 565 628 563 633 q 567 617 568 624 q 559 601 565 610 q 538 581 553 592 q 498 552 521 568 q 455 522 475 536 q 420 499 435 508 q 406 489 406 489 q 314 208 406 340 q 328 206 321 207 q 343 206 336 206 q 491 228 421 206 q 621 286 561 251 q 729 361 681 321 q 811 436 778 401 q 863 494 844 471 q 882 518 882 517 q 907 533 892 531 q 935 526 922 536 q 949 502 947 517 q 943 475 951 488 q 919 445 940 472 q 861 380 899 418 q 771 298 824 342 q 652 217 718 254 q 508 156 586 181 q 343 132 431 132 q 263 143 300 132 q 260 140 261 142 q 257 138 260 139 q 126 34 196 72 q -3 -4 56 -4 q -56 -1 -39 -4 q -90 29 -74 3 l -139 -7 q -154 -17 -146 -12 q -172 -26 -162 -22 q -190 -28 -181 -29 q -204 -19 -199 -26 q -212 -1 -212 -11 q -206 19 -211 10 q -194 37 -201 29 q -183 49 -187 44 l -129 96 q -131 198 -140 140 q -99 315 -121 256 q -43 428 -76 374 q 28 519 -10 482 q 53 531 39 531 q 78 522 67 532 q 113 613 89 575 q 174 674 138 653 q 253 696 210 696 q 349 659 311 696 q 400 556 388 622 q 470 609 444 590 q 497 629 496 628 q 508 635 500 631 q 527 643 517 640 q 547 645 538 646 q 561 638 557 644 m 143 443 q 146 401 143 424 q 156 356 149 379 q 248 433 204 396 q 331 500 292 469 q 326 542 331 521 q 314 581 322 564 q 290 610 306 599 q 253 621 275 621 q 175 572 207 621 q 151 514 160 549 q 143 443 143 479 m -3 69 q 89 98 36 69 q 192 176 142 126 q 154 208 165 194 q 129 250 143 222 q 46 175 88 214 q -37 96 4 136 q -29 77 -36 85 q -3 69 -22 69 m 69 454 q 21 389 43 425 q -19 313 -1 353 q -47 235 -36 274 q -60 163 -57 196 q 17 235 -21 199 q 94 304 56 271 q 69 454 69 368 m 242 233 q 276 278 258 256 q 308 325 293 301 q 335 375 324 349 q 349 433 346 401 q 272 371 313 404 q 188 301 231 338 q 207 262 199 275 q 242 233 215 249 z "},"Ð":{"ha":1881,"x_min":0,"x_max":1776,"o":"m 1083 700 q 1122 690 1107 700 q 1138 664 1138 679 q 1122 638 1138 649 q 1083 626 1107 626 l 761 626 q 658 457 710 543 q 554 283 606 371 q 740 315 642 303 q 950 326 838 326 q 976 315 965 326 q 988 289 988 304 q 976 263 988 274 q 950 251 965 251 q 708 236 819 251 q 503 193 596 221 l 408 19 q 375 0 397 0 q 358 4 367 0 q 340 26 344 11 q 343 54 336 40 q 369 105 356 79 q 397 156 383 131 q 258 85 318 124 q 156 6 197 47 q 94 -76 115 -35 q 74 -156 74 -118 q 126 -246 74 -210 q 206 -277 158 -267 q 314 -287 253 -287 q 563 -256 436 -287 q 813 -163 689 -224 q 1054 -14 936 -103 q 1281 188 1172 75 q 1454 399 1376 289 q 1587 622 1532 510 q 1672 840 1642 733 q 1701 1042 1701 947 q 1604 1304 1701 1213 q 1278 1408 1497 1408 q 937 1363 1092 1408 q 658 1248 782 1317 q 440 1098 533 1179 q 285 947 347 1017 q 190 831 222 878 q 157 783 158 785 q 135 766 150 769 q 107 769 121 763 q 90 792 93 778 q 93 821 86 807 q 128 872 94 822 q 227 996 161 922 q 392 1154 293 1069 q 622 1312 490 1239 q 917 1433 753 1385 q 1278 1482 1081 1482 q 1657 1358 1526 1482 q 1776 1042 1776 1243 q 1722 754 1776 910 q 1570 442 1668 599 q 1337 141 1472 286 q 1039 -116 1201 -4 q 692 -295 876 -228 q 314 -362 508 -362 q 85 -307 171 -362 q 22 -240 44 -279 q 0 -156 0 -201 q 29 -47 0 -104 q 115 66 58 11 q 257 169 172 121 q 453 254 342 218 q 563 443 507 350 q 675 626 619 536 l 469 626 q 431 638 447 626 q 415 664 415 649 q 431 690 415 679 q 469 700 447 700 l 721 700 q 871 934 800 825 q 996 1124 942 1043 q 1082 1251 1050 1204 q 1115 1299 1114 1297 q 1138 1313 1124 1310 q 1164 1310 1151 1317 q 1181 1263 1192 1293 l 1143 1172 q 1126 1153 1138 1160 q 1103 1150 1115 1147 q 974 959 1051 1075 q 807 700 897 843 l 1083 700 l 1083 700 z "},"a":{"ha":1189,"x_min":-272,"x_max":1286,"o":"m 1269 524 q 1284 499 1282 514 q 1275 472 1286 483 q 1242 435 1271 468 q 1165 354 1214 401 q 1050 253 1117 307 q 906 153 983 199 q 740 78 828 108 q 561 47 653 47 q 389 131 432 47 q 370 246 363 179 q 401 382 378 313 q 406 399 404 390 q 411 417 408 408 q 260 274 342 347 q 96 139 178 200 q -62 39 14 78 q -199 0 -139 0 q -252 20 -232 0 q -272 74 -272 40 q -242 176 -272 114 q -161 307 -211 238 q -46 445 -111 376 q 89 569 19 514 q 226 660 158 625 q 353 694 294 694 q 427 677 400 694 q 467 640 454 660 q 478 622 474 631 q 486 601 482 613 q 525 645 507 625 q 558 682 543 665 q 584 694 569 693 q 610 686 599 696 q 623 663 621 678 q 618 636 625 649 q 538 505 579 581 q 471 354 497 429 q 458 314 461 322 q 442 230 444 268 q 454 165 440 192 q 461 153 456 161 q 478 139 467 146 q 510 126 490 132 q 561 121 529 121 q 724 150 643 121 q 877 223 804 179 q 1012 318 950 267 q 1119 414 1074 369 q 1191 488 1165 458 q 1218 519 1217 518 q 1243 533 1228 531 q 1269 524 1258 535 m -199 75 q -69 119 -146 75 q 94 232 8 164 q 265 381 179 300 q 424 536 351 463 q 406 597 421 575 q 389 613 400 604 q 353 621 378 621 q 248 590 307 621 q 128 507 189 558 q 8 392 67 456 q -99 264 -51 328 q -178 138 -157 185 q -199 75 -199 90 z "},"A":{"ha":1822,"x_min":-1,"x_max":1975,"o":"m 1658 558 q 1684 547 1674 558 q 1694 521 1694 536 q 1684 495 1694 506 q 1658 485 1674 485 q 1607 483 1636 485 q 1542 479 1578 482 q 1395 192 1469 340 q 1250 -106 1321 44 q 1117 -402 1179 -256 q 1006 -686 1054 -549 q 992 -704 1003 -697 q 971 -711 982 -711 q 958 -708 967 -711 q 937 -690 943 -703 q 936 -661 931 -676 q 1044 -385 983 -528 q 1173 -97 1106 -242 q 1313 193 1240 49 q 1456 474 1385 338 q 1305 460 1386 468 q 1137 444 1224 453 q 960 425 1050 435 q 785 406 871 415 q 578 201 679 303 q 384 4 476 100 q 210 -180 292 -92 q 65 -344 129 -268 q 38 -358 54 -358 q 13 -349 24 -358 q 0 -324 1 -339 q 8 -297 -1 -308 q 283 6 115 -171 q 665 392 451 182 q 528 376 592 383 q 411 363 464 369 q 419 325 425 346 q 383 300 410 300 q 372 301 376 300 l 235 344 q 215 358 222 347 q 208 383 207 369 q 219 405 210 396 q 240 417 228 414 q 292 423 249 418 q 403 436 335 428 q 563 455 472 444 q 753 476 653 465 q 916 634 832 554 q 1088 796 1000 714 q 1228 926 1151 856 q 1384 1069 1304 997 q 1542 1209 1464 1140 q 1688 1333 1621 1278 q 1808 1427 1756 1389 q 1888 1478 1860 1465 q 1906 1482 1896 1482 l 1914 1482 q 1958 1454 1943 1478 q 1965 1372 1975 1426 q 1913 1222 1954 1318 q 1800 982 1872 1126 q 1621 631 1728 838 q 1601 593 1610 611 q 1582 556 1592 575 q 1624 558 1604 558 q 1658 558 1643 558 m 872 490 q 1040 509 956 500 q 1206 526 1125 518 q 1360 540 1286 533 q 1496 551 1433 547 q 1525 608 1511 579 q 1554 665 1539 638 q 1672 894 1613 778 q 1781 1110 1732 1010 q 1860 1288 1829 1211 q 1894 1400 1892 1365 q 1813 1340 1868 1383 q 1683 1232 1758 1297 q 1513 1084 1607 1167 q 1315 906 1419 1001 q 1099 704 1211 810 q 872 490 986 599 z "},"R":{"ha":1461,"x_min":-3,"x_max":1894,"o":"m 1868 -486 q 1889 -506 1883 -493 q 1888 -535 1894 -519 q 1874 -561 1888 -537 q 1827 -612 1860 -585 q 1740 -663 1794 -640 q 1603 -686 1685 -686 q 1400 -634 1492 -686 q 1228 -497 1308 -582 q 1078 -306 1149 -412 q 940 -87 1008 -199 q 809 120 874 21 q 674 294 744 219 q 583 279 629 285 q 490 272 538 274 q 362 31 422 150 q 254 -194 301 -87 q 258 -197 257 -196 q 263 -200 260 -199 q 276 -226 274 -211 q 268 -253 278 -240 l 190 -346 q 161 -360 178 -360 q 143 -354 150 -360 q 126 -335 131 -347 q 126 -310 121 -322 q 245 -34 172 -183 q 406 272 318 115 q 325 282 361 275 q 261 300 289 289 q 221 322 236 310 q 197 347 206 335 q 186 371 189 360 q 183 390 183 382 q 199 440 183 417 q 244 479 215 463 q 311 505 272 496 q 396 514 350 514 q 528 489 465 514 q 647 690 588 592 q 759 876 706 789 q 860 1038 813 964 q 943 1168 907 1113 q 1001 1257 979 1224 q 1028 1297 1024 1290 q 1051 1313 1036 1310 q 1079 1308 1065 1317 q 1094 1284 1092 1299 q 1089 1256 1097 1269 q 1044 1187 1088 1253 q 931 1010 1000 1121 q 773 756 861 900 q 594 456 685 613 q 696 376 647 424 q 914 456 810 404 q 1108 573 1018 507 q 1272 716 1199 639 q 1396 872 1344 793 q 1476 1030 1447 951 q 1504 1176 1504 1108 q 1475 1294 1504 1249 q 1401 1365 1446 1339 q 1300 1399 1356 1390 q 1190 1408 1244 1408 q 849 1363 1004 1408 q 569 1248 693 1317 q 351 1098 444 1179 q 196 947 258 1017 q 101 831 133 878 q 69 783 69 785 q 47 765 61 769 q 18 769 32 761 q 1 792 4 776 q 6 821 -3 807 q 40 872 7 822 q 140 994 74 921 q 304 1153 206 1068 q 534 1312 403 1239 q 829 1433 665 1385 q 1190 1482 993 1482 q 1482 1397 1383 1482 q 1579 1176 1579 1317 q 1551 1019 1579 1103 q 1472 851 1524 935 q 1345 685 1419 767 q 1179 531 1271 603 q 981 403 1088 460 q 756 314 874 347 q 884 142 824 236 q 1004 -49 944 47 q 1133 -253 1068 -153 q 1272 -433 1199 -354 q 1426 -562 1344 -512 q 1603 -611 1507 -611 q 1708 -595 1667 -611 q 1775 -559 1750 -579 q 1810 -522 1800 -539 q 1819 -506 1819 -506 q 1840 -485 1826 -492 q 1868 -486 1853 -479 m 289 368 q 345 354 308 361 q 446 346 382 347 q 468 385 457 365 q 490 424 479 404 q 396 440 444 440 q 335 435 361 440 q 292 421 310 429 q 266 404 275 413 q 257 390 257 396 q 263 383 257 389 q 289 368 269 376 m 558 392 q 546 370 551 381 q 533 349 540 360 q 570 353 553 351 q 606 357 588 354 q 582 376 594 367 q 558 392 569 385 z "}}}
